<svg width="217" height="42" viewBox="0 0 217 42" fill="none" xmlns="http://www.w3.org/2000/svg">
<rect y="3" width="217" height="39" rx="19.5" fill="#FFDAE6"/>
<path d="M55.11 18.02C54.97 17.8 54.84 17.5 54.72 17.12C54.6 16.74 54.54 16.34 54.54 15.92C54.54 15.14 54.71 14.58 55.05 14.24C55.41 13.9 55.87 13.73 56.43 13.73H69.51C69.65 13.95 69.78 14.25 69.9 14.63C70.02 15.01 70.08 15.41 70.08 15.83C70.08 16.61 69.9 17.17 69.54 17.51C69.2 17.85 68.75 18.02 68.19 18.02H64.86V31.88C64.64 31.94 64.29 32 63.81 32.06C63.35 32.12 62.89 32.15 62.43 32.15C61.97 32.15 61.56 32.11 61.2 32.03C60.86 31.97 60.57 31.85 60.33 31.67C60.09 31.49 59.91 31.24 59.79 30.92C59.67 30.6 59.61 30.18 59.61 29.66V18.02H55.11ZM85.5328 24.71C85.5328 25.95 85.3428 27.06 84.9628 28.04C84.5828 29 84.0428 29.81 83.3428 30.47C82.6628 31.13 81.8428 31.63 80.8828 31.97C79.9228 32.31 78.8528 32.48 77.6728 32.48C76.4928 32.48 75.4228 32.3 74.4628 31.94C73.5028 31.58 72.6728 31.07 71.9728 30.41C71.2928 29.73 70.7628 28.91 70.3828 27.95C70.0028 26.99 69.8128 25.91 69.8128 24.71C69.8128 23.53 70.0028 22.46 70.3828 21.5C70.7628 20.54 71.2928 19.73 71.9728 19.07C72.6728 18.39 73.5028 17.87 74.4628 17.51C75.4228 17.15 76.4928 16.97 77.6728 16.97C78.8528 16.97 79.9228 17.16 80.8828 17.54C81.8428 17.9 82.6628 18.42 83.3428 19.1C84.0428 19.76 84.5828 20.57 84.9628 21.53C85.3428 22.49 85.5328 23.55 85.5328 24.71ZM75.0328 24.71C75.0328 25.93 75.2628 26.87 75.7228 27.53C76.2028 28.17 76.8628 28.49 77.7028 28.49C78.5428 28.49 79.1828 28.16 79.6228 27.5C80.0828 26.84 80.3128 25.91 80.3128 24.71C80.3128 23.51 80.0828 22.59 79.6228 21.95C79.1628 21.29 78.5128 20.96 77.6728 20.96C76.8328 20.96 76.1828 21.29 75.7228 21.95C75.2628 22.59 75.0328 23.51 75.0328 24.71ZM86.828 29.57C86.828 28.73 87.088 28.03 87.608 27.47C88.128 26.91 88.838 26.63 89.738 26.63C90.638 26.63 91.348 26.91 91.868 27.47C92.388 28.03 92.648 28.73 92.648 29.57C92.648 30.41 92.388 31.11 91.868 31.67C91.348 32.23 90.638 32.51 89.738 32.51C88.838 32.51 88.128 32.23 87.608 31.67C87.088 31.11 86.828 30.41 86.828 29.57ZM100.546 13.31C101.686 13.31 102.696 13.46 103.576 13.76C104.456 14.04 105.206 14.43 105.826 14.93C106.446 15.43 106.916 16.02 107.236 16.7C107.556 17.38 107.716 18.11 107.716 18.89C107.716 20.99 106.526 22.99 104.146 24.89L100.216 28.04H107.416C107.536 28.26 107.646 28.54 107.746 28.88C107.866 29.22 107.926 29.59 107.926 29.99C107.926 30.71 107.766 31.23 107.446 31.55C107.126 31.85 106.706 32 106.186 32H95.7764C95.3364 31.7 94.9864 31.32 94.7264 30.86C94.4864 30.38 94.3664 29.82 94.3664 29.18C94.3664 28.5 94.5064 27.93 94.7864 27.47C95.0664 26.99 95.3764 26.61 95.7164 26.33L99.8564 22.79C100.376 22.35 100.806 21.96 101.146 21.62C101.486 21.26 101.756 20.94 101.956 20.66C102.176 20.38 102.326 20.12 102.406 19.88C102.506 19.64 102.556 19.41 102.556 19.19C102.556 18.63 102.306 18.19 101.806 17.87C101.326 17.55 100.726 17.39 100.006 17.39C99.2064 17.39 98.4864 17.52 97.8464 17.78C97.2264 18.02 96.7064 18.28 96.2864 18.56C95.9464 18.32 95.6664 18.02 95.4464 17.66C95.2264 17.3 95.1164 16.88 95.1164 16.4C95.1164 15.36 95.6064 14.59 96.5864 14.09C97.5664 13.57 98.8864 13.31 100.546 13.31ZM120.99 22.88C120.99 21.12 120.73 19.76 120.21 18.8C119.71 17.84 118.99 17.36 118.05 17.36C117.11 17.36 116.39 17.84 115.89 18.8C115.41 19.76 115.17 21.12 115.17 22.88C115.17 24.64 115.41 26.01 115.89 26.99C116.39 27.95 117.11 28.43 118.05 28.43C118.99 28.43 119.71 27.95 120.21 26.99C120.73 26.01 120.99 24.64 120.99 22.88ZM126.12 22.88C126.12 24.42 125.92 25.79 125.52 26.99C125.12 28.19 124.56 29.2 123.84 30.02C123.14 30.82 122.29 31.43 121.29 31.85C120.31 32.27 119.24 32.48 118.08 32.48C116.9 32.48 115.81 32.27 114.81 31.85C113.83 31.43 112.98 30.82 112.26 30.02C111.56 29.2 111.01 28.19 110.61 26.99C110.23 25.79 110.04 24.42 110.04 22.88C110.04 21.34 110.23 19.98 110.61 18.8C111.01 17.6 111.56 16.6 112.26 15.8C112.98 14.98 113.83 14.36 114.81 13.94C115.81 13.52 116.9 13.31 118.08 13.31C119.24 13.31 120.31 13.52 121.29 13.94C122.29 14.36 123.14 14.98 123.84 15.8C124.56 16.6 125.12 17.6 125.52 18.8C125.92 19.98 126.12 21.34 126.12 22.88ZM133.974 13.31C135.114 13.31 136.124 13.46 137.004 13.76C137.884 14.04 138.634 14.43 139.254 14.93C139.874 15.43 140.344 16.02 140.664 16.7C140.984 17.38 141.144 18.11 141.144 18.89C141.144 20.99 139.954 22.99 137.574 24.89L133.644 28.04H140.844C140.964 28.26 141.074 28.54 141.174 28.88C141.294 29.22 141.354 29.59 141.354 29.99C141.354 30.71 141.194 31.23 140.874 31.55C140.554 31.85 140.134 32 139.614 32H129.204C128.764 31.7 128.414 31.32 128.154 30.86C127.914 30.38 127.794 29.82 127.794 29.18C127.794 28.5 127.934 27.93 128.214 27.47C128.494 26.99 128.804 26.61 129.144 26.33L133.284 22.79C133.804 22.35 134.234 21.96 134.574 21.62C134.914 21.26 135.184 20.94 135.384 20.66C135.604 20.38 135.754 20.12 135.834 19.88C135.934 19.64 135.984 19.41 135.984 19.19C135.984 18.63 135.734 18.19 135.234 17.87C134.754 17.55 134.154 17.39 133.434 17.39C132.634 17.39 131.914 17.52 131.274 17.78C130.654 18.02 130.134 18.28 129.714 18.56C129.374 18.32 129.094 18.02 128.874 17.66C128.654 17.3 128.544 16.88 128.544 16.4C128.544 15.36 129.034 14.59 130.014 14.09C130.994 13.57 132.314 13.31 133.974 13.31ZM149.408 13.31C151.708 13.31 153.458 13.79 154.658 14.75C155.858 15.69 156.458 16.96 156.458 18.56C156.458 19.52 156.198 20.34 155.678 21.02C155.178 21.68 154.578 22.18 153.878 22.52C154.298 22.68 154.688 22.88 155.048 23.12C155.408 23.36 155.728 23.66 156.008 24.02C156.288 24.38 156.508 24.8 156.668 25.28C156.828 25.76 156.908 26.32 156.908 26.96C156.908 27.82 156.718 28.59 156.338 29.27C155.978 29.95 155.468 30.53 154.808 31.01C154.148 31.49 153.358 31.85 152.438 32.09C151.538 32.35 150.548 32.48 149.468 32.48C147.388 32.48 145.818 32.19 144.758 31.61C143.698 31.03 143.168 30.29 143.168 29.39C143.168 28.85 143.298 28.39 143.558 28.01C143.818 27.61 144.138 27.3 144.518 27.08C144.918 27.36 145.448 27.66 146.108 27.98C146.788 28.28 147.668 28.43 148.748 28.43C149.768 28.43 150.518 28.25 150.998 27.89C151.498 27.53 151.748 27.06 151.748 26.48C151.748 25.9 151.548 25.46 151.148 25.16C150.768 24.86 150.098 24.71 149.138 24.71H146.318C146.178 24.49 146.058 24.22 145.958 23.9C145.858 23.58 145.808 23.2 145.808 22.76C145.808 22.3 145.848 21.91 145.928 21.59C146.028 21.25 146.158 20.97 146.318 20.75H149.138C150.578 20.75 151.298 20.2 151.298 19.1C151.298 18.58 151.068 18.16 150.608 17.84C150.148 17.52 149.458 17.36 148.538 17.36C147.718 17.36 146.998 17.46 146.378 17.66C145.758 17.84 145.248 18.07 144.848 18.35C144.508 18.11 144.228 17.82 144.008 17.48C143.788 17.12 143.678 16.7 143.678 16.22C143.678 15.22 144.198 14.49 145.238 14.03C146.278 13.55 147.668 13.31 149.408 13.31Z" fill="white"/>
<path d="M54.11 17.02C53.97 16.8 53.84 16.5 53.72 16.12C53.6 15.74 53.54 15.34 53.54 14.92C53.54 14.14 53.71 13.58 54.05 13.24C54.41 12.9 54.87 12.73 55.43 12.73H68.51C68.65 12.95 68.78 13.25 68.9 13.63C69.02 14.01 69.08 14.41 69.08 14.83C69.08 15.61 68.9 16.17 68.54 16.51C68.2 16.85 67.75 17.02 67.19 17.02H63.86V30.88C63.64 30.94 63.29 31 62.81 31.06C62.35 31.12 61.89 31.15 61.43 31.15C60.97 31.15 60.56 31.11 60.2 31.03C59.86 30.97 59.57 30.85 59.33 30.67C59.09 30.49 58.91 30.24 58.79 29.92C58.67 29.6 58.61 29.18 58.61 28.66V17.02H54.11ZM84.5328 23.71C84.5328 24.95 84.3428 26.06 83.9628 27.04C83.5828 28 83.0428 28.81 82.3428 29.47C81.6628 30.13 80.8428 30.63 79.8828 30.97C78.9228 31.31 77.8528 31.48 76.6728 31.48C75.4928 31.48 74.4228 31.3 73.4628 30.94C72.5028 30.58 71.6728 30.07 70.9728 29.41C70.2928 28.73 69.7628 27.91 69.3828 26.95C69.0028 25.99 68.8128 24.91 68.8128 23.71C68.8128 22.53 69.0028 21.46 69.3828 20.5C69.7628 19.54 70.2928 18.73 70.9728 18.07C71.6728 17.39 72.5028 16.87 73.4628 16.51C74.4228 16.15 75.4928 15.97 76.6728 15.97C77.8528 15.97 78.9228 16.16 79.8828 16.54C80.8428 16.9 81.6628 17.42 82.3428 18.1C83.0428 18.76 83.5828 19.57 83.9628 20.53C84.3428 21.49 84.5328 22.55 84.5328 23.71ZM74.0328 23.71C74.0328 24.93 74.2628 25.87 74.7228 26.53C75.2028 27.17 75.8628 27.49 76.7028 27.49C77.5428 27.49 78.1828 27.16 78.6228 26.5C79.0828 25.84 79.3128 24.91 79.3128 23.71C79.3128 22.51 79.0828 21.59 78.6228 20.95C78.1628 20.29 77.5128 19.96 76.6728 19.96C75.8328 19.96 75.1828 20.29 74.7228 20.95C74.2628 21.59 74.0328 22.51 74.0328 23.71ZM85.828 28.57C85.828 27.73 86.088 27.03 86.608 26.47C87.128 25.91 87.838 25.63 88.738 25.63C89.638 25.63 90.348 25.91 90.868 26.47C91.388 27.03 91.648 27.73 91.648 28.57C91.648 29.41 91.388 30.11 90.868 30.67C90.348 31.23 89.638 31.51 88.738 31.51C87.838 31.51 87.128 31.23 86.608 30.67C86.088 30.11 85.828 29.41 85.828 28.57ZM99.5464 12.31C100.686 12.31 101.696 12.46 102.576 12.76C103.456 13.04 104.206 13.43 104.826 13.93C105.446 14.43 105.916 15.02 106.236 15.7C106.556 16.38 106.716 17.11 106.716 17.89C106.716 19.99 105.526 21.99 103.146 23.89L99.2164 27.04H106.416C106.536 27.26 106.646 27.54 106.746 27.88C106.866 28.22 106.926 28.59 106.926 28.99C106.926 29.71 106.766 30.23 106.446 30.55C106.126 30.85 105.706 31 105.186 31H94.7764C94.3364 30.7 93.9864 30.32 93.7264 29.86C93.4864 29.38 93.3664 28.82 93.3664 28.18C93.3664 27.5 93.5064 26.93 93.7864 26.47C94.0664 25.99 94.3764 25.61 94.7164 25.33L98.8564 21.79C99.3764 21.35 99.8064 20.96 100.146 20.62C100.486 20.26 100.756 19.94 100.956 19.66C101.176 19.38 101.326 19.12 101.406 18.88C101.506 18.64 101.556 18.41 101.556 18.19C101.556 17.63 101.306 17.19 100.806 16.87C100.326 16.55 99.7264 16.39 99.0064 16.39C98.2064 16.39 97.4864 16.52 96.8464 16.78C96.2264 17.02 95.7064 17.28 95.2864 17.56C94.9464 17.32 94.6664 17.02 94.4464 16.66C94.2264 16.3 94.1164 15.88 94.1164 15.4C94.1164 14.36 94.6064 13.59 95.5864 13.09C96.5664 12.57 97.8864 12.31 99.5464 12.31ZM119.99 21.88C119.99 20.12 119.73 18.76 119.21 17.8C118.71 16.84 117.99 16.36 117.05 16.36C116.11 16.36 115.39 16.84 114.89 17.8C114.41 18.76 114.17 20.12 114.17 21.88C114.17 23.64 114.41 25.01 114.89 25.99C115.39 26.95 116.11 27.43 117.05 27.43C117.99 27.43 118.71 26.95 119.21 25.99C119.73 25.01 119.99 23.64 119.99 21.88ZM125.12 21.88C125.12 23.42 124.92 24.79 124.52 25.99C124.12 27.19 123.56 28.2 122.84 29.02C122.14 29.82 121.29 30.43 120.29 30.85C119.31 31.27 118.24 31.48 117.08 31.48C115.9 31.48 114.81 31.27 113.81 30.85C112.83 30.43 111.98 29.82 111.26 29.02C110.56 28.2 110.01 27.19 109.61 25.99C109.23 24.79 109.04 23.42 109.04 21.88C109.04 20.34 109.23 18.98 109.61 17.8C110.01 16.6 110.56 15.6 111.26 14.8C111.98 13.98 112.83 13.36 113.81 12.94C114.81 12.52 115.9 12.31 117.08 12.31C118.24 12.31 119.31 12.52 120.29 12.94C121.29 13.36 122.14 13.98 122.84 14.8C123.56 15.6 124.12 16.6 124.52 17.8C124.92 18.98 125.12 20.34 125.12 21.88ZM132.974 12.31C134.114 12.31 135.124 12.46 136.004 12.76C136.884 13.04 137.634 13.43 138.254 13.93C138.874 14.43 139.344 15.02 139.664 15.7C139.984 16.38 140.144 17.11 140.144 17.89C140.144 19.99 138.954 21.99 136.574 23.89L132.644 27.04H139.844C139.964 27.26 140.074 27.54 140.174 27.88C140.294 28.22 140.354 28.59 140.354 28.99C140.354 29.71 140.194 30.23 139.874 30.55C139.554 30.85 139.134 31 138.614 31H128.204C127.764 30.7 127.414 30.32 127.154 29.86C126.914 29.38 126.794 28.82 126.794 28.18C126.794 27.5 126.934 26.93 127.214 26.47C127.494 25.99 127.804 25.61 128.144 25.33L132.284 21.79C132.804 21.35 133.234 20.96 133.574 20.62C133.914 20.26 134.184 19.94 134.384 19.66C134.604 19.38 134.754 19.12 134.834 18.88C134.934 18.64 134.984 18.41 134.984 18.19C134.984 17.63 134.734 17.19 134.234 16.87C133.754 16.55 133.154 16.39 132.434 16.39C131.634 16.39 130.914 16.52 130.274 16.78C129.654 17.02 129.134 17.28 128.714 17.56C128.374 17.32 128.094 17.02 127.874 16.66C127.654 16.3 127.544 15.88 127.544 15.4C127.544 14.36 128.034 13.59 129.014 13.09C129.994 12.57 131.314 12.31 132.974 12.31ZM148.408 12.31C150.708 12.31 152.458 12.79 153.658 13.75C154.858 14.69 155.458 15.96 155.458 17.56C155.458 18.52 155.198 19.34 154.678 20.02C154.178 20.68 153.578 21.18 152.878 21.52C153.298 21.68 153.688 21.88 154.048 22.12C154.408 22.36 154.728 22.66 155.008 23.02C155.288 23.38 155.508 23.8 155.668 24.28C155.828 24.76 155.908 25.32 155.908 25.96C155.908 26.82 155.718 27.59 155.338 28.27C154.978 28.95 154.468 29.53 153.808 30.01C153.148 30.49 152.358 30.85 151.438 31.09C150.538 31.35 149.548 31.48 148.468 31.48C146.388 31.48 144.818 31.19 143.758 30.61C142.698 30.03 142.168 29.29 142.168 28.39C142.168 27.85 142.298 27.39 142.558 27.01C142.818 26.61 143.138 26.3 143.518 26.08C143.918 26.36 144.448 26.66 145.108 26.98C145.788 27.28 146.668 27.43 147.748 27.43C148.768 27.43 149.518 27.25 149.998 26.89C150.498 26.53 150.748 26.06 150.748 25.48C150.748 24.9 150.548 24.46 150.148 24.16C149.768 23.86 149.098 23.71 148.138 23.71H145.318C145.178 23.49 145.058 23.22 144.958 22.9C144.858 22.58 144.808 22.2 144.808 21.76C144.808 21.3 144.848 20.91 144.928 20.59C145.028 20.25 145.158 19.97 145.318 19.75H148.138C149.578 19.75 150.298 19.2 150.298 18.1C150.298 17.58 150.068 17.16 149.608 16.84C149.148 16.52 148.458 16.36 147.538 16.36C146.718 16.36 145.998 16.46 145.378 16.66C144.758 16.84 144.248 17.07 143.848 17.35C143.508 17.11 143.228 16.82 143.008 16.48C142.788 16.12 142.678 15.7 142.678 15.22C142.678 14.22 143.198 13.49 144.238 13.03C145.278 12.55 146.668 12.31 148.408 12.31Z" fill="#C72A5F"/>
</svg>
