<svg width="217" height="42" viewBox="0 0 217 42" fill="none" xmlns="http://www.w3.org/2000/svg">
<rect y="3" width="217" height="39" rx="19.5" fill="#FFDAE6"/>
<path d="M56.11 18.02C55.97 17.8 55.84 17.5 55.72 17.12C55.6 16.74 55.54 16.34 55.54 15.92C55.54 15.14 55.71 14.58 56.05 14.24C56.41 13.9 56.87 13.73 57.43 13.73H70.51C70.65 13.95 70.78 14.25 70.9 14.63C71.02 15.01 71.08 15.41 71.08 15.83C71.08 16.61 70.9 17.17 70.54 17.51C70.2 17.85 69.75 18.02 69.19 18.02H65.86V31.88C65.64 31.94 65.29 32 64.81 32.06C64.35 32.12 63.89 32.15 63.43 32.15C62.97 32.15 62.56 32.11 62.2 32.03C61.86 31.97 61.57 31.85 61.33 31.67C61.09 31.49 60.91 31.24 60.79 30.92C60.67 30.6 60.61 30.18 60.61 29.66V18.02H56.11ZM86.5328 24.71C86.5328 25.95 86.3428 27.06 85.9628 28.04C85.5828 29 85.0428 29.81 84.3428 30.47C83.6628 31.13 82.8428 31.63 81.8828 31.97C80.9228 32.31 79.8528 32.48 78.6728 32.48C77.4928 32.48 76.4228 32.3 75.4628 31.94C74.5028 31.58 73.6728 31.07 72.9728 30.41C72.2928 29.73 71.7628 28.91 71.3828 27.95C71.0028 26.99 70.8128 25.91 70.8128 24.71C70.8128 23.53 71.0028 22.46 71.3828 21.5C71.7628 20.54 72.2928 19.73 72.9728 19.07C73.6728 18.39 74.5028 17.87 75.4628 17.51C76.4228 17.15 77.4928 16.97 78.6728 16.97C79.8528 16.97 80.9228 17.16 81.8828 17.54C82.8428 17.9 83.6628 18.42 84.3428 19.1C85.0428 19.76 85.5828 20.57 85.9628 21.53C86.3428 22.49 86.5328 23.55 86.5328 24.71ZM76.0328 24.71C76.0328 25.93 76.2628 26.87 76.7228 27.53C77.2028 28.17 77.8628 28.49 78.7028 28.49C79.5428 28.49 80.1828 28.16 80.6228 27.5C81.0828 26.84 81.3128 25.91 81.3128 24.71C81.3128 23.51 81.0828 22.59 80.6228 21.95C80.1628 21.29 79.5128 20.96 78.6728 20.96C77.8328 20.96 77.1828 21.29 76.7228 21.95C76.2628 22.59 76.0328 23.51 76.0328 24.71ZM87.828 29.57C87.828 28.73 88.088 28.03 88.608 27.47C89.128 26.91 89.838 26.63 90.738 26.63C91.638 26.63 92.348 26.91 92.868 27.47C93.388 28.03 93.648 28.73 93.648 29.57C93.648 30.41 93.388 31.11 92.868 31.67C92.348 32.23 91.638 32.51 90.738 32.51C89.838 32.51 89.128 32.23 88.608 31.67C88.088 31.11 87.828 30.41 87.828 29.57ZM101.546 13.31C102.686 13.31 103.696 13.46 104.576 13.76C105.456 14.04 106.206 14.43 106.826 14.93C107.446 15.43 107.916 16.02 108.236 16.7C108.556 17.38 108.716 18.11 108.716 18.89C108.716 20.99 107.526 22.99 105.146 24.89L101.216 28.04H108.416C108.536 28.26 108.646 28.54 108.746 28.88C108.866 29.22 108.926 29.59 108.926 29.99C108.926 30.71 108.766 31.23 108.446 31.55C108.126 31.85 107.706 32 107.186 32H96.7764C96.3364 31.7 95.9864 31.32 95.7264 30.86C95.4864 30.38 95.3664 29.82 95.3664 29.18C95.3664 28.5 95.5064 27.93 95.7864 27.47C96.0664 26.99 96.3764 26.61 96.7164 26.33L100.856 22.79C101.376 22.35 101.806 21.96 102.146 21.62C102.486 21.26 102.756 20.94 102.956 20.66C103.176 20.38 103.326 20.12 103.406 19.88C103.506 19.64 103.556 19.41 103.556 19.19C103.556 18.63 103.306 18.19 102.806 17.87C102.326 17.55 101.726 17.39 101.006 17.39C100.206 17.39 99.4864 17.52 98.8464 17.78C98.2264 18.02 97.7064 18.28 97.2864 18.56C96.9464 18.32 96.6664 18.02 96.4464 17.66C96.2264 17.3 96.1164 16.88 96.1164 16.4C96.1164 15.36 96.6064 14.59 97.5864 14.09C98.5664 13.57 99.8864 13.31 101.546 13.31ZM121.99 22.88C121.99 21.12 121.73 19.76 121.21 18.8C120.71 17.84 119.99 17.36 119.05 17.36C118.11 17.36 117.39 17.84 116.89 18.8C116.41 19.76 116.17 21.12 116.17 22.88C116.17 24.64 116.41 26.01 116.89 26.99C117.39 27.95 118.11 28.43 119.05 28.43C119.99 28.43 120.71 27.95 121.21 26.99C121.73 26.01 121.99 24.64 121.99 22.88ZM127.12 22.88C127.12 24.42 126.92 25.79 126.52 26.99C126.12 28.19 125.56 29.2 124.84 30.02C124.14 30.82 123.29 31.43 122.29 31.85C121.31 32.27 120.24 32.48 119.08 32.48C117.9 32.48 116.81 32.27 115.81 31.85C114.83 31.43 113.98 30.82 113.26 30.02C112.56 29.2 112.01 28.19 111.61 26.99C111.23 25.79 111.04 24.42 111.04 22.88C111.04 21.34 111.23 19.98 111.61 18.8C112.01 17.6 112.56 16.6 113.26 15.8C113.98 14.98 114.83 14.36 115.81 13.94C116.81 13.52 117.9 13.31 119.08 13.31C120.24 13.31 121.31 13.52 122.29 13.94C123.29 14.36 124.14 14.98 124.84 15.8C125.56 16.6 126.12 17.6 126.52 18.8C126.92 19.98 127.12 21.34 127.12 22.88ZM134.974 13.31C136.114 13.31 137.124 13.46 138.004 13.76C138.884 14.04 139.634 14.43 140.254 14.93C140.874 15.43 141.344 16.02 141.664 16.7C141.984 17.38 142.144 18.11 142.144 18.89C142.144 20.99 140.954 22.99 138.574 24.89L134.644 28.04H141.844C141.964 28.26 142.074 28.54 142.174 28.88C142.294 29.22 142.354 29.59 142.354 29.99C142.354 30.71 142.194 31.23 141.874 31.55C141.554 31.85 141.134 32 140.614 32H130.204C129.764 31.7 129.414 31.32 129.154 30.86C128.914 30.38 128.794 29.82 128.794 29.18C128.794 28.5 128.934 27.93 129.214 27.47C129.494 26.99 129.804 26.61 130.144 26.33L134.284 22.79C134.804 22.35 135.234 21.96 135.574 21.62C135.914 21.26 136.184 20.94 136.384 20.66C136.604 20.38 136.754 20.12 136.834 19.88C136.934 19.64 136.984 19.41 136.984 19.19C136.984 18.63 136.734 18.19 136.234 17.87C135.754 17.55 135.154 17.39 134.434 17.39C133.634 17.39 132.914 17.52 132.274 17.78C131.654 18.02 131.134 18.28 130.714 18.56C130.374 18.32 130.094 18.02 129.874 17.66C129.654 17.3 129.544 16.88 129.544 16.4C129.544 15.36 130.034 14.59 131.014 14.09C131.994 13.57 133.314 13.31 134.974 13.31ZM151.851 13.97C152.231 13.85 152.661 13.75 153.141 13.67C153.641 13.59 154.091 13.55 154.491 13.55C154.951 13.55 155.391 13.6 155.811 13.7C156.251 13.78 156.641 13.93 156.981 14.15C157.321 14.35 157.591 14.63 157.791 14.99C157.991 15.35 158.091 15.8 158.091 16.34V24.32H160.761C160.881 24.54 161.001 24.83 161.121 25.19C161.241 25.55 161.301 25.93 161.301 26.33C161.301 27.09 161.131 27.63 160.791 27.95C160.451 28.27 160.021 28.43 159.501 28.43H158.091V31.97C157.871 32.01 157.541 32.06 157.101 32.12C156.661 32.2 156.241 32.24 155.841 32.24C155.401 32.24 155.011 32.22 154.671 32.18C154.331 32.14 154.041 32.05 153.801 31.91C153.581 31.75 153.411 31.53 153.291 31.25C153.171 30.97 153.111 30.59 153.111 30.11V28.43H145.581C145.121 28.19 144.721 27.84 144.381 27.38C144.061 26.9 143.901 26.32 143.901 25.64C143.901 25.26 143.951 24.84 144.051 24.38C144.151 23.92 144.321 23.52 144.561 23.18L151.851 13.97ZM153.381 18.68H153.291L149.301 24.32H153.381V18.68Z" fill="white"/>
<path d="M55.11 17.02C54.97 16.8 54.84 16.5 54.72 16.12C54.6 15.74 54.54 15.34 54.54 14.92C54.54 14.14 54.71 13.58 55.05 13.24C55.41 12.9 55.87 12.73 56.43 12.73H69.51C69.65 12.95 69.78 13.25 69.9 13.63C70.02 14.01 70.08 14.41 70.08 14.83C70.08 15.61 69.9 16.17 69.54 16.51C69.2 16.85 68.75 17.02 68.19 17.02H64.86V30.88C64.64 30.94 64.29 31 63.81 31.06C63.35 31.12 62.89 31.15 62.43 31.15C61.97 31.15 61.56 31.11 61.2 31.03C60.86 30.97 60.57 30.85 60.33 30.67C60.09 30.49 59.91 30.24 59.79 29.92C59.67 29.6 59.61 29.18 59.61 28.66V17.02H55.11ZM85.5328 23.71C85.5328 24.95 85.3428 26.06 84.9628 27.04C84.5828 28 84.0428 28.81 83.3428 29.47C82.6628 30.13 81.8428 30.63 80.8828 30.97C79.9228 31.31 78.8528 31.48 77.6728 31.48C76.4928 31.48 75.4228 31.3 74.4628 30.94C73.5028 30.58 72.6728 30.07 71.9728 29.41C71.2928 28.73 70.7628 27.91 70.3828 26.95C70.0028 25.99 69.8128 24.91 69.8128 23.71C69.8128 22.53 70.0028 21.46 70.3828 20.5C70.7628 19.54 71.2928 18.73 71.9728 18.07C72.6728 17.39 73.5028 16.87 74.4628 16.51C75.4228 16.15 76.4928 15.97 77.6728 15.97C78.8528 15.97 79.9228 16.16 80.8828 16.54C81.8428 16.9 82.6628 17.42 83.3428 18.1C84.0428 18.76 84.5828 19.57 84.9628 20.53C85.3428 21.49 85.5328 22.55 85.5328 23.71ZM75.0328 23.71C75.0328 24.93 75.2628 25.87 75.7228 26.53C76.2028 27.17 76.8628 27.49 77.7028 27.49C78.5428 27.49 79.1828 27.16 79.6228 26.5C80.0828 25.84 80.3128 24.91 80.3128 23.71C80.3128 22.51 80.0828 21.59 79.6228 20.95C79.1628 20.29 78.5128 19.96 77.6728 19.96C76.8328 19.96 76.1828 20.29 75.7228 20.95C75.2628 21.59 75.0328 22.51 75.0328 23.71ZM86.828 28.57C86.828 27.73 87.088 27.03 87.608 26.47C88.128 25.91 88.838 25.63 89.738 25.63C90.638 25.63 91.348 25.91 91.868 26.47C92.388 27.03 92.648 27.73 92.648 28.57C92.648 29.41 92.388 30.11 91.868 30.67C91.348 31.23 90.638 31.51 89.738 31.51C88.838 31.51 88.128 31.23 87.608 30.67C87.088 30.11 86.828 29.41 86.828 28.57ZM100.546 12.31C101.686 12.31 102.696 12.46 103.576 12.76C104.456 13.04 105.206 13.43 105.826 13.93C106.446 14.43 106.916 15.02 107.236 15.7C107.556 16.38 107.716 17.11 107.716 17.89C107.716 19.99 106.526 21.99 104.146 23.89L100.216 27.04H107.416C107.536 27.26 107.646 27.54 107.746 27.88C107.866 28.22 107.926 28.59 107.926 28.99C107.926 29.71 107.766 30.23 107.446 30.55C107.126 30.85 106.706 31 106.186 31H95.7764C95.3364 30.7 94.9864 30.32 94.7264 29.86C94.4864 29.38 94.3664 28.82 94.3664 28.18C94.3664 27.5 94.5064 26.93 94.7864 26.47C95.0664 25.99 95.3764 25.61 95.7164 25.33L99.8564 21.79C100.376 21.35 100.806 20.96 101.146 20.62C101.486 20.26 101.756 19.94 101.956 19.66C102.176 19.38 102.326 19.12 102.406 18.88C102.506 18.64 102.556 18.41 102.556 18.19C102.556 17.63 102.306 17.19 101.806 16.87C101.326 16.55 100.726 16.39 100.006 16.39C99.2064 16.39 98.4864 16.52 97.8464 16.78C97.2264 17.02 96.7064 17.28 96.2864 17.56C95.9464 17.32 95.6664 17.02 95.4464 16.66C95.2264 16.3 95.1164 15.88 95.1164 15.4C95.1164 14.36 95.6064 13.59 96.5864 13.09C97.5664 12.57 98.8864 12.31 100.546 12.31ZM120.99 21.88C120.99 20.12 120.73 18.76 120.21 17.8C119.71 16.84 118.99 16.36 118.05 16.36C117.11 16.36 116.39 16.84 115.89 17.8C115.41 18.76 115.17 20.12 115.17 21.88C115.17 23.64 115.41 25.01 115.89 25.99C116.39 26.95 117.11 27.43 118.05 27.43C118.99 27.43 119.71 26.95 120.21 25.99C120.73 25.01 120.99 23.64 120.99 21.88ZM126.12 21.88C126.12 23.42 125.92 24.79 125.52 25.99C125.12 27.19 124.56 28.2 123.84 29.02C123.14 29.82 122.29 30.43 121.29 30.85C120.31 31.27 119.24 31.48 118.08 31.48C116.9 31.48 115.81 31.27 114.81 30.85C113.83 30.43 112.98 29.82 112.26 29.02C111.56 28.2 111.01 27.19 110.61 25.99C110.23 24.79 110.04 23.42 110.04 21.88C110.04 20.34 110.23 18.98 110.61 17.8C111.01 16.6 111.56 15.6 112.26 14.8C112.98 13.98 113.83 13.36 114.81 12.94C115.81 12.52 116.9 12.31 118.08 12.31C119.24 12.31 120.31 12.52 121.29 12.94C122.29 13.36 123.14 13.98 123.84 14.8C124.56 15.6 125.12 16.6 125.52 17.8C125.92 18.98 126.12 20.34 126.12 21.88ZM133.974 12.31C135.114 12.31 136.124 12.46 137.004 12.76C137.884 13.04 138.634 13.43 139.254 13.93C139.874 14.43 140.344 15.02 140.664 15.7C140.984 16.38 141.144 17.11 141.144 17.89C141.144 19.99 139.954 21.99 137.574 23.89L133.644 27.04H140.844C140.964 27.26 141.074 27.54 141.174 27.88C141.294 28.22 141.354 28.59 141.354 28.99C141.354 29.71 141.194 30.23 140.874 30.55C140.554 30.85 140.134 31 139.614 31H129.204C128.764 30.7 128.414 30.32 128.154 29.86C127.914 29.38 127.794 28.82 127.794 28.18C127.794 27.5 127.934 26.93 128.214 26.47C128.494 25.99 128.804 25.61 129.144 25.33L133.284 21.79C133.804 21.35 134.234 20.96 134.574 20.62C134.914 20.26 135.184 19.94 135.384 19.66C135.604 19.38 135.754 19.12 135.834 18.88C135.934 18.64 135.984 18.41 135.984 18.19C135.984 17.63 135.734 17.19 135.234 16.87C134.754 16.55 134.154 16.39 133.434 16.39C132.634 16.39 131.914 16.52 131.274 16.78C130.654 17.02 130.134 17.28 129.714 17.56C129.374 17.32 129.094 17.02 128.874 16.66C128.654 16.3 128.544 15.88 128.544 15.4C128.544 14.36 129.034 13.59 130.014 13.09C130.994 12.57 132.314 12.31 133.974 12.31ZM150.851 12.97C151.231 12.85 151.661 12.75 152.141 12.67C152.641 12.59 153.091 12.55 153.491 12.55C153.951 12.55 154.391 12.6 154.811 12.7C155.251 12.78 155.641 12.93 155.981 13.15C156.321 13.35 156.591 13.63 156.791 13.99C156.991 14.35 157.091 14.8 157.091 15.34V23.32H159.761C159.881 23.54 160.001 23.83 160.121 24.19C160.241 24.55 160.301 24.93 160.301 25.33C160.301 26.09 160.131 26.63 159.791 26.95C159.451 27.27 159.021 27.43 158.501 27.43H157.091V30.97C156.871 31.01 156.541 31.06 156.101 31.12C155.661 31.2 155.241 31.24 154.841 31.24C154.401 31.24 154.011 31.22 153.671 31.18C153.331 31.14 153.041 31.05 152.801 30.91C152.581 30.75 152.411 30.53 152.291 30.25C152.171 29.97 152.111 29.59 152.111 29.11V27.43H144.581C144.121 27.19 143.721 26.84 143.381 26.38C143.061 25.9 142.901 25.32 142.901 24.64C142.901 24.26 142.951 23.84 143.051 23.38C143.151 22.92 143.321 22.52 143.561 22.18L150.851 12.97ZM152.381 17.68H152.291L148.301 23.32H152.381V17.68Z" fill="#C72A5F"/>
</svg>
