<svg width="75" height="70" viewBox="0 0 75 70" fill="none" xmlns="http://www.w3.org/2000/svg">
<g filter="url(#filter0_f_9_290)">
<path d="M35.1153 61.6848C36.3852 62.4149 37.9399 62.3505 39.188 61.5861C48.1129 56.1195 62.9674 45.1563 68.9189 30.5386C77.6117 11.6095 57.1474 -3.17986 43.0374 7.69319C41.5046 8.87411 39.4245 10.6133 38.0888 12.0519C37.5983 12.5801 36.7006 12.6273 36.1969 12.1077C34.5897 10.4415 32.0104 8.05391 30.2849 6.91164C18.2594 -1.07138 -3.56688 9.11888 5.76097 31.5649C9.17681 41.6135 25.8618 56.3127 35.1153 61.6848Z" fill="#CCC1D3"/>
</g>
<path d="M32.6404 63.4888C33.9104 64.2189 35.465 64.1501 36.7131 63.3901C45.9096 57.7646 61.2721 46.4492 67.4162 31.3549C76.3762 11.8418 55.2856 -3.39847 40.7464 7.80524C39.1523 9.03339 36.989 10.8413 35.6139 12.3314C35.4956 12.4596 35.3521 12.5631 35.192 12.6357C35.0319 12.7082 34.8585 12.7483 34.6823 12.7535C34.506 12.7587 34.3305 12.7289 34.1662 12.666C34.002 12.6031 33.8524 12.5082 33.7264 12.3872C32.0667 10.6695 29.3909 8.18743 27.5998 6.99792C15.2065 -1.22558 -7.29425 9.27387 2.3314 32.4113C5.84795 42.7862 23.1154 57.9836 32.6404 63.4888Z" fill="url(#paint0_radial_9_290)"/>
<path d="M32.6404 63.4888C33.9104 64.2189 35.465 64.1501 36.7131 63.3901C45.9096 57.7646 61.2721 46.4492 67.4162 31.3549C76.3762 11.8418 55.2856 -3.39847 40.7464 7.80524C39.1523 9.03339 36.989 10.8413 35.6139 12.3314C35.4956 12.4596 35.3521 12.5631 35.192 12.6357C35.0319 12.7082 34.8585 12.7483 34.6823 12.7535C34.506 12.7587 34.3305 12.7289 34.1662 12.666C34.002 12.6031 33.8524 12.5082 33.7264 12.3872C32.0667 10.6695 29.3909 8.18743 27.5998 6.99792C15.2065 -1.22558 -7.29425 9.27387 2.3314 32.4113C5.84795 42.7862 23.1154 57.9836 32.6404 63.4888Z" fill="url(#paint1_radial_9_290)"/>
<path d="M32.6404 63.4888C33.9104 64.2189 35.465 64.1501 36.7131 63.3901C45.9096 57.7646 61.2721 46.4492 67.4162 31.3549C76.3762 11.8418 55.2856 -3.39847 40.7464 7.80524C39.1523 9.03339 36.989 10.8413 35.6139 12.3314C35.4956 12.4596 35.3521 12.5631 35.192 12.6357C35.0319 12.7082 34.8585 12.7483 34.6823 12.7535C34.506 12.7587 34.3305 12.7289 34.1662 12.666C34.002 12.6031 33.8524 12.5082 33.7264 12.3872C32.0667 10.6695 29.3909 8.18743 27.5998 6.99792C15.2065 -1.22558 -7.29425 9.27387 2.3314 32.4113C5.84795 42.7862 23.1154 57.9836 32.6404 63.4888Z" fill="url(#paint2_linear_9_290)"/>
<path d="M32.6404 63.4888C33.9103 64.2189 35.465 64.1501 36.7131 63.3901C45.9096 57.7646 61.2721 46.4492 67.4162 31.3549C76.3762 11.8418 55.2856 -3.39847 40.7464 7.80524C39.1523 9.03339 36.989 10.8413 35.6139 12.3314C35.4956 12.4596 35.3521 12.5631 35.192 12.6357C35.0319 12.7082 34.8585 12.7483 34.6823 12.7535C34.506 12.7587 34.3305 12.7289 34.1662 12.666C34.002 12.6031 33.8524 12.5082 33.7264 12.3872C32.0667 10.6695 29.3909 8.18743 27.5998 6.99792C15.2065 -1.22558 -7.29425 9.27387 2.3314 32.4113C5.84795 42.7862 23.1154 57.9836 32.6404 63.4888Z" fill="url(#paint3_radial_9_290)" fill-opacity="0.75"/>
<g filter="url(#filter1_f_9_290)">
<path d="M61.5857 10.1191C68.286 14.5465 68.1546 21.7952 67.4671 24.7454" stroke="url(#paint4_linear_9_290)" stroke-opacity="0.6" stroke-width="1.5625" stroke-linecap="round"/>
</g>
<g filter="url(#filter2_di_9_290)">
<ellipse cx="55.4998" cy="48" rx="10.5" ry="10" fill="white"/>
<path d="M55.5 37C58.8152 37 61.9946 38.317 64.3388 40.6612C66.683 43.0054 68 46.1848 68 49.5C68 52.8152 66.683 55.9946 64.3388 58.3388C61.9946 60.683 58.8152 62 55.5 62C52.1848 62 49.0054 60.683 46.6612 58.3388C44.317 55.9946 43 52.8152 43 49.5C43 46.1848 44.317 43.0054 46.6612 40.6612C49.0054 38.317 52.1848 37 55.5 37ZM57.1594 43.7375C57.1594 43.3231 56.9948 42.9257 56.7017 42.6326C56.4087 42.3396 56.0113 42.175 55.5969 42.175C55.1825 42.175 54.785 42.3396 54.492 42.6326C54.199 42.9257 54.0344 43.3231 54.0344 43.7375V48.0344H49.7375C49.3231 48.0344 48.9257 48.199 48.6326 48.492C48.3396 48.785 48.175 49.1825 48.175 49.5969C48.175 50.0113 48.3396 50.4087 48.6326 50.7017C48.9257 50.9948 49.3231 51.1594 49.7375 51.1594H54.0344V55.4563C54.0344 55.8707 54.199 56.2681 54.492 56.5611C54.785 56.8541 55.1825 57.0188 55.5969 57.0188C56.0113 57.0188 56.4087 56.8541 56.7017 56.5611C56.9948 56.2681 57.1594 55.8707 57.1594 55.4563V51.1594H61.4563C61.8707 51.1594 62.2681 50.9948 62.5611 50.7017C62.8541 50.4087 63.0188 50.0113 63.0188 49.5969C63.0188 49.1825 62.8541 48.785 62.5611 48.492C62.2681 48.199 61.8707 48.0344 61.4563 48.0344H57.1594V43.7375Z" fill="#FFDAE6"/>
</g>
<defs>
<filter id="filter0_f_9_290" x="0.378418" y="0.875" width="73.7466" height="64.4475" filterUnits="userSpaceOnUse" color-interpolation-filters="sRGB">
<feFlood flood-opacity="0" result="BackgroundImageFix"/>
<feBlend mode="normal" in="SourceGraphic" in2="BackgroundImageFix" result="shape"/>
<feGaussianBlur stdDeviation="1.5625" result="effect1_foregroundBlur_9_290"/>
</filter>
<filter id="filter1_f_9_290" x="57.6794" y="6.21277" width="14.0054" height="22.4391" filterUnits="userSpaceOnUse" color-interpolation-filters="sRGB">
<feFlood flood-opacity="0" result="BackgroundImageFix"/>
<feBlend mode="normal" in="SourceGraphic" in2="BackgroundImageFix" result="shape"/>
<feGaussianBlur stdDeviation="1.5625" result="effect1_foregroundBlur_9_290"/>
</filter>
<filter id="filter2_di_9_290" x="39" y="37" width="33" height="33" filterUnits="userSpaceOnUse" color-interpolation-filters="sRGB">
<feFlood flood-opacity="0" result="BackgroundImageFix"/>
<feColorMatrix in="SourceAlpha" type="matrix" values="0 0 0 0 0 0 0 0 0 0 0 0 0 0 0 0 0 0 127 0" result="hardAlpha"/>
<feOffset dy="4"/>
<feGaussianBlur stdDeviation="2"/>
<feComposite in2="hardAlpha" operator="out"/>
<feColorMatrix type="matrix" values="0 0 0 0 0 0 0 0 0 0 0 0 0 0 0 0 0 0 0.25 0"/>
<feBlend mode="normal" in2="BackgroundImageFix" result="effect1_dropShadow_9_290"/>
<feBlend mode="normal" in="SourceGraphic" in2="effect1_dropShadow_9_290" result="shape"/>
<feColorMatrix in="SourceAlpha" type="matrix" values="0 0 0 0 0 0 0 0 0 0 0 0 0 0 0 0 0 0 127 0" result="hardAlpha"/>
<feOffset dy="2"/>
<feGaussianBlur stdDeviation="2"/>
<feComposite in2="hardAlpha" operator="arithmetic" k2="-1" k3="1"/>
<feColorMatrix type="matrix" values="0 0 0 0 0 0 0 0 0 0 0 0 0 0 0 0 0 0 0.25 0"/>
<feBlend mode="normal" in2="shape" result="effect2_innerShadow_9_290"/>
</filter>
<radialGradient id="paint0_radial_9_290" cx="0" cy="0" r="1" gradientUnits="userSpaceOnUse" gradientTransform="translate(46.3913 15.8183) rotate(90) scale(61.4615 121.081)">
<stop stop-color="#981B45"/>
<stop offset="0.596" stop-color="#EC105A"/>
<stop offset="1" stop-color="#FF6297"/>
</radialGradient>
<radialGradient id="paint1_radial_9_290" cx="0" cy="0" r="1" gradientUnits="userSpaceOnUse" gradientTransform="translate(52.0493 19.2838) rotate(143.524) scale(65.0124 121.098)">
<stop offset="0.483" stop-color="#C12372" stop-opacity="0"/>
<stop offset="0.834" stop-color="#981B45"/>
</radialGradient>
<linearGradient id="paint2_linear_9_290" x1="34.5322" y1="24.6516" x2="34.5322" y2="70.8492" gradientUnits="userSpaceOnUse">
<stop offset="0.151" stop-color="#C12372" stop-opacity="0"/>
<stop offset="0.895" stop-color="#981B45"/>
</linearGradient>
<radialGradient id="paint3_radial_9_290" cx="0" cy="0" r="1" gradientUnits="userSpaceOnUse" gradientTransform="translate(33.4374 59.0056) rotate(-90) scale(60.1196 89.9779)">
<stop offset="0.719" stop-color="#FF2C73" stop-opacity="0.12"/>
<stop offset="1" stop-color="#FF2C73"/>
</radialGradient>
<linearGradient id="paint4_linear_9_290" x1="64.0468" y1="8.10514" x2="76.9605" y2="12.9764" gradientUnits="userSpaceOnUse">
<stop stop-color="#FF9E75"/>
<stop offset="1" stop-color="#FF9E75" stop-opacity="0"/>
</linearGradient>
</defs>
</svg>
