<svg width="375" height="364" viewBox="0 0 375 364" fill="none" xmlns="http://www.w3.org/2000/svg">
<g filter="url(#filter0_i_5_725)">
<path d="M68.1932 329.496C64.811 332.155 59.859 329.852 59.9809 325.677L63.3144 211.57C63.4197 207.965 67.3496 205.6 70.669 207.144L159.77 248.577C163.089 250.121 163.548 254.526 160.628 256.822L68.1932 329.496Z" fill="#C72A5F"/>
</g>
<g filter="url(#filter1_i_5_725)">
<rect x="17" y="12" width="358" height="274" rx="50" fill="#C72A5F"/>
</g>
<g filter="url(#filter2_d_5_725)">
<path d="M103.592 122.36C104.531 122.531 105.683 122.701 107.048 122.872C108.413 122.957 109.693 123 110.888 123C113.789 123 116.435 122.573 118.824 121.72C121.299 120.867 123.389 119.544 125.096 117.752C126.888 115.96 128.253 113.656 129.192 110.84C130.216 107.939 130.728 104.483 130.728 100.472C130.728 92.792 128.936 87.032 125.352 83.192C121.768 79.2667 116.989 77.304 111.016 77.304C109.821 77.304 108.584 77.3467 107.304 77.432C106.109 77.5173 104.872 77.6453 103.592 77.816V122.36ZM110.76 141.048C109.309 141.048 107.645 141.005 105.768 140.92C103.891 140.835 101.928 140.664 99.88 140.408C97.9173 140.152 95.912 139.811 93.864 139.384C91.9013 139.043 90.0667 138.531 88.36 137.848C83.6667 136.056 81.32 132.941 81.32 128.504V68.728C81.32 66.936 81.7893 65.5707 82.728 64.632C83.752 63.608 85.1173 62.7973 86.824 62.2C90.4933 61.0053 94.376 60.2373 98.472 59.896C102.568 59.4693 106.237 59.256 109.48 59.256C116.136 59.256 122.152 60.0667 127.528 61.688C132.989 63.3093 137.64 65.8267 141.48 69.24C145.405 72.568 148.435 76.792 150.568 81.912C152.701 87.032 153.768 93.0907 153.768 100.088C153.768 106.915 152.744 112.888 150.696 118.008C148.648 123.043 145.704 127.309 141.864 130.808C138.109 134.221 133.587 136.781 128.296 138.488C123.005 140.195 117.16 141.048 110.76 141.048ZM164.906 77.688C165.759 77.432 167.082 77.176 168.874 76.92C170.751 76.664 172.671 76.536 174.634 76.536C176.511 76.536 178.175 76.664 179.626 76.92C181.162 77.176 182.442 77.688 183.466 78.456C184.49 79.224 185.258 80.2907 185.77 81.656C186.367 82.936 186.666 84.6427 186.666 86.776V114.296C186.666 117.795 187.519 120.312 189.226 121.848C190.933 123.299 193.407 124.024 196.65 124.024C198.613 124.024 200.191 123.853 201.386 123.512C202.666 123.171 203.647 122.829 204.33 122.488V77.688C205.183 77.432 206.506 77.176 208.298 76.92C210.175 76.664 212.095 76.536 214.058 76.536C215.935 76.536 217.599 76.664 219.05 76.92C220.586 77.176 221.866 77.688 222.89 78.456C223.914 79.224 224.682 80.2907 225.194 81.656C225.791 82.936 226.09 84.6427 226.09 86.776V125.688C226.09 129.955 224.298 133.155 220.714 135.288C217.727 137.165 214.143 138.573 209.962 139.512C205.866 140.536 201.386 141.048 196.522 141.048C191.914 141.048 187.647 140.536 183.722 139.512C179.882 138.488 176.554 136.909 173.738 134.776C170.922 132.643 168.746 129.912 167.21 126.584C165.674 123.171 164.906 119.075 164.906 114.296V77.688ZM300.206 127.736C299.779 131.747 298.585 134.819 296.622 136.952C294.745 139.085 291.971 140.152 288.302 140.152C285.571 140.152 283.139 139.512 281.006 138.232C278.873 136.867 276.569 134.605 274.094 131.448L261.422 115.576V138.872C260.483 139.043 259.075 139.256 257.198 139.512C255.406 139.853 253.571 140.024 251.694 140.024C249.817 140.024 248.11 139.896 246.574 139.64C245.123 139.384 243.886 138.872 242.862 138.104C241.838 137.336 241.027 136.312 240.43 135.032C239.918 133.667 239.662 131.917 239.662 129.784V55.672C240.601 55.416 241.966 55.16 243.758 54.904C245.635 54.5627 247.513 54.392 249.39 54.392C251.267 54.392 252.931 54.52 254.382 54.776C255.918 55.032 257.198 55.544 258.222 56.312C259.246 57.08 260.014 58.1467 260.526 59.512C261.123 60.792 261.422 62.4987 261.422 64.632V98.424L283.438 75.896C287.875 75.896 291.417 76.8773 294.062 78.84C296.793 80.8027 298.158 83.2773 298.158 86.264C298.158 87.544 297.945 88.7387 297.518 89.848C297.091 90.872 296.409 91.9387 295.47 93.048C294.617 94.1573 293.465 95.352 292.014 96.632C290.649 97.8267 289.027 99.2347 287.15 100.856L279.726 107.256L300.206 127.736Z" fill="white"/>
<path d="M103.592 220.664C104.531 220.835 105.683 221.006 107.048 221.176C108.413 221.262 109.693 221.304 110.888 221.304C113.789 221.304 116.435 220.878 118.824 220.024C121.299 219.171 123.389 217.848 125.096 216.056C126.888 214.264 128.253 211.96 129.192 209.144C130.216 206.243 130.728 202.787 130.728 198.776C130.728 191.096 128.936 185.336 125.352 181.496C121.768 177.571 116.989 175.608 111.016 175.608C109.821 175.608 108.584 175.651 107.304 175.736C106.109 175.822 104.872 175.95 103.592 176.12V220.664ZM110.76 239.352C109.309 239.352 107.645 239.31 105.768 239.224C103.891 239.139 101.928 238.968 99.88 238.712C97.9173 238.456 95.912 238.115 93.864 237.688C91.9013 237.347 90.0667 236.835 88.36 236.152C83.6667 234.36 81.32 231.246 81.32 226.808V167.032C81.32 165.24 81.7893 163.875 82.728 162.936C83.752 161.912 85.1173 161.102 86.824 160.504C90.4933 159.31 94.376 158.542 98.472 158.2C102.568 157.774 106.237 157.56 109.48 157.56C116.136 157.56 122.152 158.371 127.528 159.992C132.989 161.614 137.64 164.131 141.48 167.544C145.405 170.872 148.435 175.096 150.568 180.216C152.701 185.336 153.768 191.395 153.768 198.392C153.768 205.219 152.744 211.192 150.696 216.312C148.648 221.347 145.704 225.614 141.864 229.112C138.109 232.526 133.587 235.086 128.296 236.792C123.005 238.499 117.16 239.352 110.76 239.352ZM191.53 223.48C192.981 223.48 194.559 223.352 196.266 223.096C198.058 222.755 199.381 222.328 200.234 221.816V211.576L191.018 212.344C188.629 212.515 186.666 213.027 185.13 213.88C183.594 214.734 182.826 216.014 182.826 217.72C182.826 219.427 183.466 220.835 184.746 221.944C186.111 222.968 188.373 223.48 191.53 223.48ZM190.506 173.176C195.114 173.176 199.295 173.646 203.05 174.584C206.89 175.523 210.133 176.974 212.778 178.936C215.509 180.814 217.599 183.246 219.05 186.232C220.501 189.134 221.226 192.59 221.226 196.6V225.272C221.226 227.491 220.586 229.326 219.306 230.776C218.111 232.142 216.661 233.336 214.954 234.36C209.407 237.688 201.599 239.352 191.53 239.352C187.007 239.352 182.911 238.926 179.242 238.072C175.658 237.219 172.543 235.939 169.898 234.232C167.338 232.526 165.333 230.35 163.882 227.704C162.517 225.059 161.834 221.987 161.834 218.488C161.834 212.6 163.583 208.078 167.082 204.92C170.581 201.763 175.999 199.8 183.338 199.032L200.106 197.24V196.344C200.106 193.87 198.997 192.12 196.778 191.096C194.645 189.987 191.53 189.432 187.434 189.432C184.191 189.432 181.034 189.774 177.962 190.456C174.89 191.139 172.117 191.992 169.642 193.016C168.533 192.248 167.594 191.096 166.826 189.56C166.058 187.939 165.674 186.275 165.674 184.568C165.674 182.35 166.186 180.6 167.21 179.32C168.319 177.955 169.983 176.803 172.202 175.864C174.677 174.926 177.578 174.243 180.906 173.816C184.319 173.39 187.519 173.176 190.506 173.176ZM264.355 173.176C267.854 173.176 271.267 173.688 274.595 174.712C278.008 175.651 280.952 177.102 283.427 179.064C285.987 177.358 288.846 175.95 292.003 174.84C295.246 173.731 299.128 173.176 303.651 173.176C306.894 173.176 310.051 173.603 313.123 174.456C316.28 175.31 319.054 176.675 321.443 178.552C323.918 180.344 325.88 182.776 327.331 185.848C328.782 188.835 329.507 192.504 329.507 196.856V237.176C328.654 237.432 327.288 237.688 325.411 237.944C323.619 238.2 321.742 238.328 319.779 238.328C317.902 238.328 316.195 238.2 314.659 237.944C313.208 237.688 311.971 237.176 310.947 236.408C309.923 235.64 309.112 234.616 308.515 233.336C308.003 231.971 307.747 230.222 307.747 228.088V197.496C307.747 194.936 307.022 193.102 305.571 191.992C304.12 190.798 302.158 190.2 299.683 190.2C298.488 190.2 297.208 190.499 295.843 191.096C294.478 191.608 293.454 192.163 292.771 192.76C292.856 193.102 292.899 193.443 292.899 193.784C292.899 194.04 292.899 194.296 292.899 194.552V237.176C291.96 237.432 290.552 237.688 288.675 237.944C286.883 238.2 285.048 238.328 283.171 238.328C281.294 238.328 279.587 238.2 278.051 237.944C276.6 237.688 275.363 237.176 274.339 236.408C273.315 235.64 272.504 234.616 271.907 233.336C271.395 231.971 271.139 230.222 271.139 228.088V197.496C271.139 194.936 270.328 193.102 268.707 191.992C267.171 190.798 265.294 190.2 263.075 190.2C261.539 190.2 260.216 190.456 259.107 190.968C257.998 191.395 257.059 191.822 256.291 192.248V237.176C255.438 237.432 254.072 237.688 252.195 237.944C250.403 238.2 248.526 238.328 246.563 238.328C244.686 238.328 242.979 238.2 241.443 237.944C239.992 237.688 238.755 237.176 237.731 236.408C236.707 235.64 235.896 234.616 235.299 233.336C234.787 231.971 234.531 230.222 234.531 228.088V189.432C234.531 187.128 235 185.294 235.939 183.928C236.963 182.563 238.328 181.283 240.035 180.088C242.936 178.04 246.52 176.376 250.787 175.096C255.139 173.816 259.662 173.176 264.355 173.176Z" fill="white"/>
</g>
<path d="M99.592 117.36C100.531 117.531 101.683 117.701 103.048 117.872C104.413 117.957 105.693 118 106.888 118C109.789 118 112.435 117.573 114.824 116.72C117.299 115.867 119.389 114.544 121.096 112.752C122.888 110.96 124.253 108.656 125.192 105.84C126.216 102.939 126.728 99.4827 126.728 95.472C126.728 87.792 124.936 82.032 121.352 78.192C117.768 74.2667 112.989 72.304 107.016 72.304C105.821 72.304 104.584 72.3467 103.304 72.432C102.109 72.5173 100.872 72.6453 99.592 72.816V117.36ZM106.76 136.048C105.309 136.048 103.645 136.005 101.768 135.92C99.8907 135.835 97.928 135.664 95.88 135.408C93.9173 135.152 91.912 134.811 89.864 134.384C87.9013 134.043 86.0667 133.531 84.36 132.848C79.6667 131.056 77.32 127.941 77.32 123.504V63.728C77.32 61.936 77.7893 60.5707 78.728 59.632C79.752 58.608 81.1173 57.7973 82.824 57.2C86.4933 56.0053 90.376 55.2373 94.472 54.896C98.568 54.4693 102.237 54.256 105.48 54.256C112.136 54.256 118.152 55.0667 123.528 56.688C128.989 58.3093 133.64 60.8267 137.48 64.24C141.405 67.568 144.435 71.792 146.568 76.912C148.701 82.032 149.768 88.0907 149.768 95.088C149.768 101.915 148.744 107.888 146.696 113.008C144.648 118.043 141.704 122.309 137.864 125.808C134.109 129.221 129.587 131.781 124.296 133.488C119.005 135.195 113.16 136.048 106.76 136.048ZM160.906 72.688C161.759 72.432 163.082 72.176 164.874 71.92C166.751 71.664 168.671 71.536 170.634 71.536C172.511 71.536 174.175 71.664 175.626 71.92C177.162 72.176 178.442 72.688 179.466 73.456C180.49 74.224 181.258 75.2907 181.77 76.656C182.367 77.936 182.666 79.6427 182.666 81.776V109.296C182.666 112.795 183.519 115.312 185.226 116.848C186.933 118.299 189.407 119.024 192.65 119.024C194.613 119.024 196.191 118.853 197.386 118.512C198.666 118.171 199.647 117.829 200.33 117.488V72.688C201.183 72.432 202.506 72.176 204.298 71.92C206.175 71.664 208.095 71.536 210.058 71.536C211.935 71.536 213.599 71.664 215.05 71.92C216.586 72.176 217.866 72.688 218.89 73.456C219.914 74.224 220.682 75.2907 221.194 76.656C221.791 77.936 222.09 79.6427 222.09 81.776V120.688C222.09 124.955 220.298 128.155 216.714 130.288C213.727 132.165 210.143 133.573 205.962 134.512C201.866 135.536 197.386 136.048 192.522 136.048C187.914 136.048 183.647 135.536 179.722 134.512C175.882 133.488 172.554 131.909 169.738 129.776C166.922 127.643 164.746 124.912 163.21 121.584C161.674 118.171 160.906 114.075 160.906 109.296V72.688ZM296.206 122.736C295.779 126.747 294.585 129.819 292.622 131.952C290.745 134.085 287.971 135.152 284.302 135.152C281.571 135.152 279.139 134.512 277.006 133.232C274.873 131.867 272.569 129.605 270.094 126.448L257.422 110.576V133.872C256.483 134.043 255.075 134.256 253.198 134.512C251.406 134.853 249.571 135.024 247.694 135.024C245.817 135.024 244.11 134.896 242.574 134.64C241.123 134.384 239.886 133.872 238.862 133.104C237.838 132.336 237.027 131.312 236.43 130.032C235.918 128.667 235.662 126.917 235.662 124.784V50.672C236.601 50.416 237.966 50.16 239.758 49.904C241.635 49.5627 243.513 49.392 245.39 49.392C247.267 49.392 248.931 49.52 250.382 49.776C251.918 50.032 253.198 50.544 254.222 51.312C255.246 52.08 256.014 53.1467 256.526 54.512C257.123 55.792 257.422 57.4987 257.422 59.632V93.424L279.438 70.896C283.875 70.896 287.417 71.8773 290.062 73.84C292.793 75.8027 294.158 78.2773 294.158 81.264C294.158 82.544 293.945 83.7387 293.518 84.848C293.091 85.872 292.409 86.9387 291.47 88.048C290.617 89.1573 289.465 90.352 288.014 91.632C286.649 92.8267 285.027 94.2347 283.15 95.856L275.726 102.256L296.206 122.736Z" fill="#FFDAE6"/>
<path d="M99.592 215.664C100.531 215.835 101.683 216.006 103.048 216.176C104.413 216.262 105.693 216.304 106.888 216.304C109.789 216.304 112.435 215.878 114.824 215.024C117.299 214.171 119.389 212.848 121.096 211.056C122.888 209.264 124.253 206.96 125.192 204.144C126.216 201.243 126.728 197.787 126.728 193.776C126.728 186.096 124.936 180.336 121.352 176.496C117.768 172.571 112.989 170.608 107.016 170.608C105.821 170.608 104.584 170.651 103.304 170.736C102.109 170.822 100.872 170.95 99.592 171.12V215.664ZM106.76 234.352C105.309 234.352 103.645 234.31 101.768 234.224C99.8907 234.139 97.928 233.968 95.88 233.712C93.9173 233.456 91.912 233.115 89.864 232.688C87.9013 232.347 86.0667 231.835 84.36 231.152C79.6667 229.36 77.32 226.246 77.32 221.808V162.032C77.32 160.24 77.7893 158.875 78.728 157.936C79.752 156.912 81.1173 156.102 82.824 155.504C86.4933 154.31 90.376 153.542 94.472 153.2C98.568 152.774 102.237 152.56 105.48 152.56C112.136 152.56 118.152 153.371 123.528 154.992C128.989 156.614 133.64 159.131 137.48 162.544C141.405 165.872 144.435 170.096 146.568 175.216C148.701 180.336 149.768 186.395 149.768 193.392C149.768 200.219 148.744 206.192 146.696 211.312C144.648 216.347 141.704 220.614 137.864 224.112C134.109 227.526 129.587 230.086 124.296 231.792C119.005 233.499 113.16 234.352 106.76 234.352ZM187.53 218.48C188.981 218.48 190.559 218.352 192.266 218.096C194.058 217.755 195.381 217.328 196.234 216.816V206.576L187.018 207.344C184.629 207.515 182.666 208.027 181.13 208.88C179.594 209.734 178.826 211.014 178.826 212.72C178.826 214.427 179.466 215.835 180.746 216.944C182.111 217.968 184.373 218.48 187.53 218.48ZM186.506 168.176C191.114 168.176 195.295 168.646 199.05 169.584C202.89 170.523 206.133 171.974 208.778 173.936C211.509 175.814 213.599 178.246 215.05 181.232C216.501 184.134 217.226 187.59 217.226 191.6V220.272C217.226 222.491 216.586 224.326 215.306 225.776C214.111 227.142 212.661 228.336 210.954 229.36C205.407 232.688 197.599 234.352 187.53 234.352C183.007 234.352 178.911 233.926 175.242 233.072C171.658 232.219 168.543 230.939 165.898 229.232C163.338 227.526 161.333 225.35 159.882 222.704C158.517 220.059 157.834 216.987 157.834 213.488C157.834 207.6 159.583 203.078 163.082 199.92C166.581 196.763 171.999 194.8 179.338 194.032L196.106 192.24V191.344C196.106 188.87 194.997 187.12 192.778 186.096C190.645 184.987 187.53 184.432 183.434 184.432C180.191 184.432 177.034 184.774 173.962 185.456C170.89 186.139 168.117 186.992 165.642 188.016C164.533 187.248 163.594 186.096 162.826 184.56C162.058 182.939 161.674 181.275 161.674 179.568C161.674 177.35 162.186 175.6 163.21 174.32C164.319 172.955 165.983 171.803 168.202 170.864C170.677 169.926 173.578 169.243 176.906 168.816C180.319 168.39 183.519 168.176 186.506 168.176ZM260.355 168.176C263.854 168.176 267.267 168.688 270.595 169.712C274.008 170.651 276.952 172.102 279.427 174.064C281.987 172.358 284.846 170.95 288.003 169.84C291.246 168.731 295.128 168.176 299.651 168.176C302.894 168.176 306.051 168.603 309.123 169.456C312.28 170.31 315.054 171.675 317.443 173.552C319.918 175.344 321.88 177.776 323.331 180.848C324.782 183.835 325.507 187.504 325.507 191.856V232.176C324.654 232.432 323.288 232.688 321.411 232.944C319.619 233.2 317.742 233.328 315.779 233.328C313.902 233.328 312.195 233.2 310.659 232.944C309.208 232.688 307.971 232.176 306.947 231.408C305.923 230.64 305.112 229.616 304.515 228.336C304.003 226.971 303.747 225.222 303.747 223.088V192.496C303.747 189.936 303.022 188.102 301.571 186.992C300.12 185.798 298.158 185.2 295.683 185.2C294.488 185.2 293.208 185.499 291.843 186.096C290.478 186.608 289.454 187.163 288.771 187.76C288.856 188.102 288.899 188.443 288.899 188.784C288.899 189.04 288.899 189.296 288.899 189.552V232.176C287.96 232.432 286.552 232.688 284.675 232.944C282.883 233.2 281.048 233.328 279.171 233.328C277.294 233.328 275.587 233.2 274.051 232.944C272.6 232.688 271.363 232.176 270.339 231.408C269.315 230.64 268.504 229.616 267.907 228.336C267.395 226.971 267.139 225.222 267.139 223.088V192.496C267.139 189.936 266.328 188.102 264.707 186.992C263.171 185.798 261.294 185.2 259.075 185.2C257.539 185.2 256.216 185.456 255.107 185.968C253.998 186.395 253.059 186.822 252.291 187.248V232.176C251.438 232.432 250.072 232.688 248.195 232.944C246.403 233.2 244.526 233.328 242.563 233.328C240.686 233.328 238.979 233.2 237.443 232.944C235.992 232.688 234.755 232.176 233.731 231.408C232.707 230.64 231.896 229.616 231.299 228.336C230.787 226.971 230.531 225.222 230.531 223.088V184.432C230.531 182.128 231 180.294 231.939 178.928C232.963 177.563 234.328 176.283 236.035 175.088C238.936 173.04 242.52 171.376 246.787 170.096C251.139 168.816 255.662 168.176 260.355 168.176Z" fill="#FFDAE6"/>
<g filter="url(#filter3_f_5_725)">
<path d="M110.245 116.457C111.086 116.943 112.115 116.9 112.941 116.391C118.849 112.746 128.683 105.438 132.622 95.6924C138.377 83.073 124.83 73.2134 115.489 80.4621C114.475 81.2494 113.098 82.4089 112.214 83.3679C111.889 83.72 111.295 83.7515 110.961 83.4051C109.897 82.2943 108.19 80.7026 107.048 79.9411C99.0872 74.6191 84.6388 81.4126 90.8135 96.3766C93.0747 103.076 104.12 112.875 110.245 116.457Z" fill="#CCC1D3"/>
</g>
<path d="M108.607 117.659C109.448 118.146 110.477 118.1 111.303 117.593C117.391 113.843 127.56 106.299 131.628 96.2366C137.559 83.2279 123.598 73.0677 113.973 80.5368C112.918 81.3556 111.486 82.5608 110.575 83.5543C110.497 83.6398 110.402 83.7087 110.296 83.7571C110.19 83.8055 110.075 83.8322 109.959 83.8356C109.842 83.8391 109.726 83.8193 109.617 83.7773C109.508 83.7354 109.409 83.6722 109.326 83.5915C108.227 82.4463 106.456 80.7916 105.27 79.9986C97.0662 74.5163 82.1714 81.5159 88.5433 96.9409C90.8712 103.857 102.302 113.989 108.607 117.659Z" fill="url(#paint0_radial_5_725)"/>
<path d="M108.607 117.659C109.448 118.146 110.477 118.1 111.303 117.593C117.391 113.843 127.56 106.299 131.628 96.2366C137.559 83.2279 123.598 73.0677 113.973 80.5368C112.918 81.3556 111.486 82.5608 110.575 83.5543C110.497 83.6398 110.402 83.7087 110.296 83.7571C110.19 83.8055 110.075 83.8322 109.959 83.8356C109.842 83.8391 109.726 83.8193 109.617 83.7773C109.508 83.7354 109.409 83.6722 109.326 83.5915C108.227 82.4463 106.456 80.7916 105.27 79.9986C97.0662 74.5163 82.1714 81.5159 88.5433 96.9409C90.8712 103.857 102.302 113.989 108.607 117.659Z" fill="url(#paint1_radial_5_725)"/>
<path d="M108.607 117.659C109.448 118.146 110.477 118.1 111.303 117.593C117.391 113.843 127.56 106.299 131.628 96.2366C137.559 83.2279 123.598 73.0677 113.973 80.5368C112.918 81.3556 111.486 82.5608 110.575 83.5543C110.497 83.6398 110.402 83.7087 110.296 83.7571C110.19 83.8055 110.075 83.8322 109.959 83.8356C109.842 83.8391 109.726 83.8193 109.617 83.7773C109.508 83.7354 109.409 83.6722 109.326 83.5915C108.227 82.4463 106.456 80.7916 105.27 79.9986C97.0662 74.5163 82.1714 81.5159 88.5433 96.9409C90.8712 103.857 102.302 113.989 108.607 117.659Z" fill="url(#paint2_linear_5_725)"/>
<path d="M108.607 117.659C109.448 118.146 110.477 118.1 111.303 117.593C117.391 113.843 127.56 106.299 131.628 96.2366C137.559 83.2279 123.598 73.0677 113.973 80.5368C112.918 81.3556 111.486 82.5609 110.575 83.5543C110.497 83.6398 110.402 83.7087 110.296 83.7571C110.19 83.8055 110.075 83.8322 109.959 83.8356C109.842 83.8391 109.726 83.8193 109.617 83.7773C109.508 83.7354 109.409 83.6722 109.326 83.5915C108.227 82.4463 106.456 80.7916 105.27 79.9986C97.0662 74.5163 82.1714 81.5159 88.5433 96.9409C90.8712 103.857 102.302 113.989 108.607 117.659Z" fill="url(#paint3_radial_5_725)" fill-opacity="0.75"/>
<g filter="url(#filter4_f_5_725)">
<path d="M127.768 82.0795C132.203 85.0311 132.117 89.8635 131.661 91.8303" stroke="url(#paint4_linear_5_725)" stroke-opacity="0.6" stroke-width="1.5625" stroke-linecap="round"/>
</g>
<g filter="url(#filter5_f_5_725)">
<path d="M110.245 211.457C111.086 211.943 112.115 211.9 112.941 211.391C118.849 207.746 128.683 200.438 132.622 190.692C138.377 178.073 124.83 168.213 115.489 175.462C114.475 176.249 113.098 177.409 112.214 178.368C111.889 178.72 111.295 178.752 110.961 178.405C109.897 177.294 108.19 175.703 107.048 174.941C99.0872 169.619 84.6388 176.413 90.8135 191.377C93.0747 198.076 104.12 207.875 110.245 211.457Z" fill="#CCC1D3"/>
</g>
<path d="M108.607 212.659C109.448 213.146 110.477 213.1 111.303 212.593C117.391 208.843 127.56 201.299 131.628 191.237C137.559 178.228 123.598 168.068 113.973 175.537C112.918 176.356 111.486 177.561 110.575 178.554C110.497 178.64 110.402 178.709 110.296 178.757C110.19 178.805 110.075 178.832 109.959 178.836C109.842 178.839 109.726 178.819 109.617 178.777C109.508 178.735 109.409 178.672 109.326 178.591C108.227 177.446 106.456 175.792 105.27 174.999C97.0662 169.516 82.1714 176.516 88.5433 191.941C90.8712 198.857 102.302 208.989 108.607 212.659Z" fill="url(#paint5_radial_5_725)"/>
<path d="M108.607 212.659C109.448 213.146 110.477 213.1 111.303 212.593C117.391 208.843 127.56 201.299 131.628 191.237C137.559 178.228 123.598 168.068 113.973 175.537C112.918 176.356 111.486 177.561 110.575 178.554C110.497 178.64 110.402 178.709 110.296 178.757C110.19 178.805 110.075 178.832 109.959 178.836C109.842 178.839 109.726 178.819 109.617 178.777C109.508 178.735 109.409 178.672 109.326 178.591C108.227 177.446 106.456 175.792 105.27 174.999C97.0662 169.516 82.1714 176.516 88.5433 191.941C90.8712 198.857 102.302 208.989 108.607 212.659Z" fill="url(#paint6_radial_5_725)"/>
<path d="M108.607 212.659C109.448 213.146 110.477 213.1 111.303 212.593C117.391 208.843 127.56 201.299 131.628 191.237C137.559 178.228 123.598 168.068 113.973 175.537C112.918 176.356 111.486 177.561 110.575 178.554C110.497 178.64 110.402 178.709 110.296 178.757C110.19 178.805 110.075 178.832 109.959 178.836C109.842 178.839 109.726 178.819 109.617 178.777C109.508 178.735 109.409 178.672 109.326 178.591C108.227 177.446 106.456 175.792 105.27 174.999C97.0662 169.516 82.1714 176.516 88.5433 191.941C90.8712 198.857 102.302 208.989 108.607 212.659Z" fill="url(#paint7_linear_5_725)"/>
<path d="M108.607 212.659C109.448 213.146 110.477 213.1 111.303 212.593C117.391 208.843 127.56 201.299 131.628 191.237C137.559 178.228 123.598 168.068 113.973 175.537C112.918 176.356 111.486 177.561 110.575 178.554C110.497 178.64 110.402 178.709 110.296 178.757C110.19 178.805 110.075 178.832 109.959 178.836C109.842 178.839 109.726 178.819 109.617 178.777C109.508 178.735 109.409 178.672 109.326 178.591C108.227 177.446 106.456 175.792 105.27 174.999C97.0662 169.516 82.1714 176.516 88.5433 191.941C90.8712 198.857 102.302 208.989 108.607 212.659Z" fill="url(#paint8_radial_5_725)" fill-opacity="0.75"/>
<g filter="url(#filter6_f_5_725)">
<path d="M127.768 177.079C132.203 180.031 132.117 184.864 131.661 186.83" stroke="url(#paint9_linear_5_725)" stroke-opacity="0.6" stroke-width="1.5625" stroke-linecap="round"/>
</g>
<defs>
<filter id="filter0_i_5_725" x="59.9788" y="206.664" width="102.586" height="127.969" filterUnits="userSpaceOnUse" color-interpolation-filters="sRGB">
<feFlood flood-opacity="0" result="BackgroundImageFix"/>
<feBlend mode="normal" in="SourceGraphic" in2="BackgroundImageFix" result="shape"/>
<feColorMatrix in="SourceAlpha" type="matrix" values="0 0 0 0 0 0 0 0 0 0 0 0 0 0 0 0 0 0 127 0" result="hardAlpha"/>
<feOffset dy="4"/>
<feGaussianBlur stdDeviation="2"/>
<feComposite in2="hardAlpha" operator="arithmetic" k2="-1" k3="1"/>
<feColorMatrix type="matrix" values="0 0 0 0 0 0 0 0 0 0 0 0 0 0 0 0 0 0 0.25 0"/>
<feBlend mode="normal" in2="shape" result="effect1_innerShadow_5_725"/>
</filter>
<filter id="filter1_i_5_725" x="17" y="12" width="358" height="278" filterUnits="userSpaceOnUse" color-interpolation-filters="sRGB">
<feFlood flood-opacity="0" result="BackgroundImageFix"/>
<feBlend mode="normal" in="SourceGraphic" in2="BackgroundImageFix" result="shape"/>
<feColorMatrix in="SourceAlpha" type="matrix" values="0 0 0 0 0 0 0 0 0 0 0 0 0 0 0 0 0 0 127 0" result="hardAlpha"/>
<feOffset dy="4"/>
<feGaussianBlur stdDeviation="4"/>
<feComposite in2="hardAlpha" operator="arithmetic" k2="-1" k3="1"/>
<feColorMatrix type="matrix" values="0 0 0 0 0 0 0 0 0 0 0 0 0 0 0 0 0 0 0.25 0"/>
<feBlend mode="normal" in2="shape" result="effect1_innerShadow_5_725"/>
</filter>
<filter id="filter2_d_5_725" x="77.3199" y="54.392" width="256.187" height="192.96" filterUnits="userSpaceOnUse" color-interpolation-filters="sRGB">
<feFlood flood-opacity="0" result="BackgroundImageFix"/>
<feColorMatrix in="SourceAlpha" type="matrix" values="0 0 0 0 0 0 0 0 0 0 0 0 0 0 0 0 0 0 127 0" result="hardAlpha"/>
<feOffset dy="4"/>
<feGaussianBlur stdDeviation="2"/>
<feComposite in2="hardAlpha" operator="out"/>
<feColorMatrix type="matrix" values="0 0 0 0 1 0 0 0 0 0.854902 0 0 0 0 0.901961 0 0 0 0.28 0"/>
<feBlend mode="normal" in2="BackgroundImageFix" result="effect1_dropShadow_5_725"/>
<feBlend mode="normal" in="SourceGraphic" in2="effect1_dropShadow_5_725" result="shape"/>
</filter>
<filter id="filter3_f_5_725" x="86.1941" y="74.875" width="50.9308" height="45.0483" filterUnits="userSpaceOnUse" color-interpolation-filters="sRGB">
<feFlood flood-opacity="0" result="BackgroundImageFix"/>
<feBlend mode="normal" in="SourceGraphic" in2="BackgroundImageFix" result="shape"/>
<feGaussianBlur stdDeviation="1.5625" result="effect1_foregroundBlur_5_725"/>
</filter>
<filter id="filter4_f_5_725" x="123.862" y="78.1731" width="11.9116" height="17.5636" filterUnits="userSpaceOnUse" color-interpolation-filters="sRGB">
<feFlood flood-opacity="0" result="BackgroundImageFix"/>
<feBlend mode="normal" in="SourceGraphic" in2="BackgroundImageFix" result="shape"/>
<feGaussianBlur stdDeviation="1.5625" result="effect1_foregroundBlur_5_725"/>
</filter>
<filter id="filter5_f_5_725" x="86.1941" y="169.875" width="50.9308" height="45.0483" filterUnits="userSpaceOnUse" color-interpolation-filters="sRGB">
<feFlood flood-opacity="0" result="BackgroundImageFix"/>
<feBlend mode="normal" in="SourceGraphic" in2="BackgroundImageFix" result="shape"/>
<feGaussianBlur stdDeviation="1.5625" result="effect1_foregroundBlur_5_725"/>
</filter>
<filter id="filter6_f_5_725" x="123.862" y="173.173" width="11.9116" height="17.5636" filterUnits="userSpaceOnUse" color-interpolation-filters="sRGB">
<feFlood flood-opacity="0" result="BackgroundImageFix"/>
<feBlend mode="normal" in="SourceGraphic" in2="BackgroundImageFix" result="shape"/>
<feGaussianBlur stdDeviation="1.5625" result="effect1_foregroundBlur_5_725"/>
</filter>
<radialGradient id="paint0_radial_5_725" cx="0" cy="0" r="1" gradientUnits="userSpaceOnUse" gradientTransform="translate(117.71 85.8789) rotate(90) scale(40.9743 80.1524)">
<stop stop-color="#981B45"/>
<stop offset="0.596" stop-color="#EC105A"/>
<stop offset="1" stop-color="#FF6297"/>
</radialGradient>
<radialGradient id="paint1_radial_5_725" cx="0" cy="0" r="1" gradientUnits="userSpaceOnUse" gradientTransform="translate(121.455 88.1892) rotate(143.331) scale(43.1445 80.5299)">
<stop offset="0.483" stop-color="#C12372" stop-opacity="0"/>
<stop offset="0.834" stop-color="#981B45"/>
</radialGradient>
<linearGradient id="paint2_linear_5_725" x1="109.859" y1="91.7677" x2="109.859" y2="122.566" gradientUnits="userSpaceOnUse">
<stop offset="0.151" stop-color="#C12372" stop-opacity="0"/>
<stop offset="0.895" stop-color="#981B45"/>
</linearGradient>
<radialGradient id="paint3_radial_5_725" cx="0" cy="0" r="1" gradientUnits="userSpaceOnUse" gradientTransform="translate(109.135 114.67) rotate(-90) scale(40.0797 59.5628)">
<stop offset="0.719" stop-color="#FF2C73" stop-opacity="0.12"/>
<stop offset="1" stop-color="#FF2C73"/>
</radialGradient>
<linearGradient id="paint4_linear_5_725" x1="129.397" y1="80.7368" x2="137.961" y2="83.9443" gradientUnits="userSpaceOnUse">
<stop stop-color="#FF9E75"/>
<stop offset="1" stop-color="#FF9E75" stop-opacity="0"/>
</linearGradient>
<radialGradient id="paint5_radial_5_725" cx="0" cy="0" r="1" gradientUnits="userSpaceOnUse" gradientTransform="translate(117.71 180.879) rotate(90) scale(40.9743 80.1524)">
<stop stop-color="#981B45"/>
<stop offset="0.596" stop-color="#EC105A"/>
<stop offset="1" stop-color="#FF6297"/>
</radialGradient>
<radialGradient id="paint6_radial_5_725" cx="0" cy="0" r="1" gradientUnits="userSpaceOnUse" gradientTransform="translate(121.455 183.189) rotate(143.331) scale(43.1445 80.5299)">
<stop offset="0.483" stop-color="#C12372" stop-opacity="0"/>
<stop offset="0.834" stop-color="#981B45"/>
</radialGradient>
<linearGradient id="paint7_linear_5_725" x1="109.859" y1="186.768" x2="109.859" y2="217.566" gradientUnits="userSpaceOnUse">
<stop offset="0.151" stop-color="#C12372" stop-opacity="0"/>
<stop offset="0.895" stop-color="#981B45"/>
</linearGradient>
<radialGradient id="paint8_radial_5_725" cx="0" cy="0" r="1" gradientUnits="userSpaceOnUse" gradientTransform="translate(109.135 209.67) rotate(-90) scale(40.0797 59.5628)">
<stop offset="0.719" stop-color="#FF2C73" stop-opacity="0.12"/>
<stop offset="1" stop-color="#FF2C73"/>
</radialGradient>
<linearGradient id="paint9_linear_5_725" x1="129.397" y1="175.737" x2="137.961" y2="178.944" gradientUnits="userSpaceOnUse">
<stop stop-color="#FF9E75"/>
<stop offset="1" stop-color="#FF9E75" stop-opacity="0"/>
</linearGradient>
</defs>
</svg>
