<svg width="319" height="167" viewBox="0 0 319 167" fill="none" xmlns="http://www.w3.org/2000/svg">
<g filter="url(#filter0_i_20_7)">
<path d="M59.1802 150.141C55.2198 151.878 50.9232 150.763 51.066 148.036L53.6879 97.9746C53.8446 94.9826 59.1328 92.3424 62.9736 93.3387L133.053 111.517C136.894 112.513 136.227 116.352 131.882 118.257L59.1802 150.141Z" fill="#C72A5F"/>
</g>
<g filter="url(#filter1_i_20_7)">
<rect x="14.4612" width="304.539" height="130.015" rx="50" fill="#C72A5F"/>
</g>
<path d="M133.258 57.77C132.618 57.77 132.048 57.58 131.548 57.2C131.068 56.84 130.828 56.16 130.828 55.16V51.68H115.798C115.238 51.68 114.778 51.62 114.418 51.5C114.058 51.38 113.778 51.23 113.578 51.05C113.378 50.85 113.238 50.63 113.158 50.39C113.098 50.13 113.068 49.88 113.068 49.64C113.068 49.34 113.098 49.07 113.158 48.83C113.238 48.57 113.378 48.35 113.578 48.17C113.778 47.97 114.058 47.82 114.418 47.72C114.778 47.6 115.238 47.54 115.798 47.54H133.258C133.818 47.54 134.258 47.6 134.578 47.72C134.898 47.82 135.138 47.97 135.298 48.17C135.478 48.35 135.588 48.57 135.628 48.83C135.668 49.07 135.688 49.34 135.688 49.64V55.16C135.688 55.66 135.618 56.08 135.478 56.42C135.338 56.76 135.158 57.03 134.938 57.23C134.718 57.43 134.458 57.57 134.158 57.65C133.878 57.73 133.578 57.77 133.258 57.77ZM114.598 45.77C114.038 45.77 113.598 45.72 113.278 45.62C112.958 45.5 112.708 45.35 112.528 45.17C112.368 44.97 112.268 44.75 112.228 44.51C112.188 44.25 112.168 43.97 112.168 43.67V34.46C112.168 34.08 112.188 33.74 112.228 33.44C112.268 33.12 112.368 32.86 112.528 32.66C112.708 32.44 112.958 32.28 113.278 32.18C113.598 32.06 114.038 32 114.598 32H122.308C122.868 32 123.328 32.06 123.688 32.18C124.048 32.28 124.328 32.43 124.528 32.63C124.728 32.81 124.858 33.03 124.918 33.29C124.998 33.53 125.038 33.8 125.038 34.1C125.038 34.34 124.998 34.58 124.918 34.82C124.858 35.06 124.728 35.28 124.528 35.48C124.328 35.66 124.048 35.81 123.688 35.93C123.328 36.03 122.868 36.08 122.308 36.08H117.028V41.69H122.908C123.468 41.69 123.928 41.75 124.288 41.87C124.648 41.97 124.928 42.12 125.128 42.32C125.328 42.5 125.458 42.71 125.518 42.95C125.598 43.19 125.638 43.43 125.638 43.67C125.638 43.97 125.598 44.25 125.518 44.51C125.458 44.75 125.328 44.97 125.128 45.17C124.928 45.35 124.648 45.5 124.288 45.62C123.928 45.72 123.468 45.77 122.908 45.77H114.598ZM133.348 46.31C133.028 46.31 132.718 46.27 132.418 46.19C132.138 46.11 131.878 45.97 131.638 45.77C131.418 45.57 131.238 45.3 131.098 44.96C130.978 44.62 130.918 44.19 130.918 43.67V40.82H127.498C126.938 40.82 126.488 40.77 126.148 40.67C125.808 40.55 125.538 40.39 125.338 40.19C125.158 39.99 125.038 39.77 124.978 39.53C124.918 39.27 124.888 38.99 124.888 38.69C124.888 38.45 124.918 38.21 124.978 37.97C125.038 37.71 125.158 37.48 125.338 37.28C125.538 37.08 125.808 36.92 126.148 36.8C126.488 36.68 126.938 36.62 127.498 36.62H130.918V34.31C130.918 33.31 131.158 32.63 131.638 32.27C132.138 31.89 132.708 31.7 133.348 31.7C133.668 31.7 133.968 31.74 134.248 31.82C134.548 31.9 134.808 32.04 135.028 32.24C135.248 32.44 135.428 32.71 135.568 33.05C135.708 33.39 135.778 33.81 135.778 34.31V43.67C135.778 44.19 135.708 44.62 135.568 44.96C135.428 45.3 135.248 45.57 135.028 45.77C134.808 45.97 134.548 46.11 134.248 46.19C133.968 46.27 133.668 46.31 133.348 46.31ZM153.244 57.44C152.924 57.44 152.614 57.4 152.314 57.32C152.034 57.24 151.774 57.1 151.534 56.9C151.314 56.7 151.134 56.43 150.994 56.09C150.874 55.75 150.814 55.32 150.814 54.8V50.96H142.804C142.244 50.96 141.784 50.9 141.424 50.78C141.064 50.66 140.784 50.51 140.584 50.33C140.384 50.13 140.244 49.91 140.164 49.67C140.104 49.41 140.074 49.16 140.074 48.92C140.074 48.62 140.104 48.35 140.164 48.11C140.244 47.85 140.384 47.63 140.584 47.45C140.784 47.25 141.064 47.1 141.424 47C141.784 46.88 142.244 46.82 142.804 46.82H163.654C164.214 46.82 164.674 46.88 165.034 47C165.394 47.1 165.674 47.25 165.874 47.45C166.074 47.63 166.204 47.85 166.264 48.11C166.344 48.35 166.384 48.62 166.384 48.92C166.384 49.16 166.344 49.41 166.264 49.67C166.204 49.91 166.074 50.13 165.874 50.33C165.674 50.51 165.394 50.66 165.034 50.78C164.674 50.9 164.214 50.96 163.654 50.96H155.674V54.8C155.674 55.32 155.604 55.75 155.464 56.09C155.324 56.43 155.144 56.7 154.924 56.9C154.704 57.1 154.444 57.24 154.144 57.32C153.864 57.4 153.564 57.44 153.244 57.44ZM148.114 44.24C145.994 44.22 144.414 43.76 143.374 42.86C142.354 41.94 141.844 40.67 141.844 39.05V37.55C141.844 36.75 141.984 36.01 142.264 35.33C142.564 34.65 142.994 34.07 143.554 33.59C144.114 33.09 144.784 32.7 145.564 32.42C146.344 32.14 147.234 32 148.234 32H158.194C159.174 32 160.054 32.14 160.834 32.42C161.634 32.7 162.314 33.09 162.874 33.59C163.434 34.07 163.854 34.65 164.134 35.33C164.434 36.01 164.584 36.75 164.584 37.55V39.05C164.584 40.67 164.074 41.94 163.054 42.86C162.034 43.76 160.464 44.22 158.344 44.24H148.114ZM157.294 40.13C158.154 40.09 158.774 39.96 159.154 39.74C159.534 39.52 159.724 39.04 159.724 38.3V37.94C159.724 37.18 159.534 36.69 159.154 36.47C158.774 36.23 158.124 36.11 157.204 36.11H149.224C148.304 36.11 147.654 36.23 147.274 36.47C146.894 36.69 146.704 37.18 146.704 37.94V38.3C146.704 39.04 146.894 39.52 147.274 39.74C147.654 39.96 148.274 40.09 149.134 40.13H157.294ZM173.11 58.04C172.55 58.04 172.11 57.99 171.79 57.89C171.47 57.81 171.22 57.68 171.04 57.5C170.88 57.34 170.78 57.14 170.74 56.9C170.7 56.66 170.68 56.4 170.68 56.12V52.16C170.68 51.96 170.7 51.77 170.74 51.59C170.8 51.39 170.91 51.22 171.07 51.08C171.23 50.92 171.46 50.8 171.76 50.72C172.06 50.62 172.46 50.57 172.96 50.57H187.93V49.46H172.87C172.37 49.46 171.97 49.42 171.67 49.34C171.37 49.26 171.14 49.15 170.98 49.01C170.82 48.85 170.71 48.67 170.65 48.47C170.61 48.25 170.59 48.02 170.59 47.78C170.59 47.58 170.61 47.38 170.65 47.18C170.71 46.98 170.82 46.8 170.98 46.64C171.14 46.46 171.37 46.32 171.67 46.22C171.97 46.12 172.37 46.07 172.87 46.07H190.48C190.96 46.07 191.35 46.12 191.65 46.22C191.97 46.32 192.21 46.45 192.37 46.61C192.53 46.77 192.64 46.95 192.7 47.15C192.76 47.35 192.79 47.55 192.79 47.75V52.22C192.79 52.7 192.64 53.06 192.34 53.3C192.06 53.56 191.44 53.69 190.48 53.69H175.54V54.8H190.72C191.28 54.8 191.74 54.84 192.1 54.92C192.46 55 192.74 55.11 192.94 55.25C193.14 55.39 193.27 55.56 193.33 55.76C193.41 55.96 193.45 56.18 193.45 56.42C193.45 56.7 193.41 56.94 193.33 57.14C193.27 57.34 193.14 57.51 192.94 57.65C192.74 57.79 192.46 57.89 192.1 57.95C191.74 58.01 191.28 58.04 190.72 58.04H173.11ZM170.83 44.87C170.33 44.87 169.93 44.83 169.63 44.75C169.33 44.67 169.1 44.56 168.94 44.42C168.78 44.28 168.67 44.11 168.61 43.91C168.57 43.69 168.55 43.44 168.55 43.16C168.55 42.94 168.57 42.73 168.61 42.53C168.67 42.33 168.78 42.15 168.94 41.99C169.1 41.83 169.33 41.71 169.63 41.63C169.93 41.53 170.33 41.48 170.83 41.48H192.64C193.14 41.48 193.54 41.53 193.84 41.63C194.14 41.71 194.37 41.83 194.53 41.99C194.69 42.15 194.79 42.33 194.83 42.53C194.89 42.73 194.92 42.94 194.92 43.16C194.92 43.44 194.89 43.69 194.83 43.91C194.79 44.11 194.69 44.28 194.53 44.42C194.37 44.56 194.14 44.67 193.84 44.75C193.54 44.83 193.14 44.87 192.64 44.87H170.83ZM173.17 40.19C172.61 40.19 172.17 40.13 171.85 40.01C171.53 39.89 171.29 39.74 171.13 39.56C170.99 39.36 170.9 39.13 170.86 38.87C170.82 38.61 170.8 38.33 170.8 38.03V34.13C170.8 33.83 170.82 33.56 170.86 33.32C170.9 33.06 170.99 32.83 171.13 32.63C171.29 32.43 171.53 32.28 171.85 32.18C172.17 32.06 172.61 32 173.17 32H189.88C190.38 32 190.78 32.05 191.08 32.15C191.38 32.23 191.61 32.35 191.77 32.51C191.93 32.67 192.03 32.86 192.07 33.08C192.13 33.28 192.16 33.51 192.16 33.77C192.16 33.99 192.13 34.2 192.07 34.4C192.03 34.6 191.93 34.78 191.77 34.94C191.61 35.1 191.38 35.23 191.08 35.33C190.78 35.43 190.38 35.48 189.88 35.48H175.66V36.71H189.88C190.38 36.71 190.78 36.76 191.08 36.86C191.38 36.96 191.61 37.1 191.77 37.28C191.93 37.44 192.03 37.63 192.07 37.85C192.13 38.05 192.16 38.25 192.16 38.45C192.16 38.71 192.13 38.95 192.07 39.17C192.03 39.37 191.93 39.55 191.77 39.71C191.61 39.85 191.38 39.97 191.08 40.07C190.78 40.15 190.38 40.19 189.88 40.19H173.17ZM205.456 49.1C203.136 49.1 201.376 48.59 200.176 47.57C198.976 46.55 198.316 45.05 198.196 43.07C198.176 42.81 198.156 42.45 198.136 41.99C198.136 41.51 198.136 41.02 198.136 40.52C198.136 40 198.136 39.51 198.136 39.05C198.156 38.57 198.176 38.2 198.196 37.94C198.296 35.94 198.936 34.42 200.116 33.38C201.316 32.32 203.096 31.79 205.456 31.79C207.696 31.79 209.426 32.32 210.646 33.38C211.886 34.42 212.576 35.94 212.716 37.94C212.736 38.18 212.746 38.54 212.746 39.02V41.96C212.746 42.42 212.736 42.79 212.716 43.07C212.676 45.09 212.026 46.6 210.766 47.6C209.506 48.6 207.736 49.1 205.456 49.1ZM199.816 57.08C199.256 57.08 198.796 57.02 198.436 56.9C198.076 56.78 197.796 56.62 197.596 56.42C197.396 56.24 197.256 56.02 197.176 55.76C197.116 55.52 197.086 55.28 197.086 55.04C197.086 54.74 197.116 54.46 197.176 54.2C197.256 53.96 197.396 53.74 197.596 53.54C197.796 53.36 198.076 53.21 198.436 53.09C198.796 52.99 199.256 52.94 199.816 52.94H211.816C212.376 52.94 212.836 52.99 213.196 53.09C213.556 53.21 213.836 53.36 214.036 53.54C214.236 53.74 214.366 53.96 214.426 54.2C214.506 54.46 214.546 54.74 214.546 55.04C214.546 55.28 214.506 55.52 214.426 55.76C214.366 56.02 214.236 56.24 214.036 56.42C213.836 56.62 213.556 56.78 213.196 56.9C212.836 57.02 212.376 57.08 211.816 57.08H199.816ZM205.456 45.02C205.616 45.02 205.826 45.01 206.086 44.99C206.346 44.95 206.606 44.86 206.866 44.72C207.126 44.58 207.346 44.39 207.526 44.15C207.726 43.89 207.836 43.53 207.856 43.07C207.876 42.79 207.886 42.41 207.886 41.93V38.93C207.886 38.45 207.876 38.08 207.856 37.82C207.856 37.4 207.756 37.06 207.556 36.8C207.376 36.54 207.156 36.35 206.896 36.23C206.636 36.09 206.366 36 206.086 35.96C205.826 35.92 205.616 35.9 205.456 35.9C205.296 35.9 205.086 35.93 204.826 35.99C204.566 36.03 204.306 36.12 204.046 36.26C203.786 36.4 203.556 36.61 203.356 36.89C203.176 37.15 203.076 37.49 203.056 37.91C203.036 38.19 203.016 38.57 202.996 39.05C202.996 39.53 202.996 40.03 202.996 40.55C202.996 41.05 202.996 41.53 202.996 41.99C203.016 42.45 203.036 42.81 203.056 43.07C203.056 43.53 203.146 43.89 203.326 44.15C203.506 44.39 203.726 44.58 203.986 44.72C204.246 44.86 204.506 44.95 204.766 44.99C205.046 45.01 205.276 45.02 205.456 45.02ZM219.166 57.44C218.846 57.44 218.536 57.4 218.236 57.32C217.956 57.24 217.696 57.1 217.456 56.9C217.236 56.7 217.056 56.43 216.916 56.09C216.796 55.75 216.736 55.32 216.736 54.8V34.31C216.736 33.31 216.976 32.63 217.456 32.27C217.956 31.89 218.526 31.7 219.166 31.7C219.486 31.7 219.786 31.74 220.066 31.82C220.366 31.9 220.626 32.04 220.846 32.24C221.066 32.44 221.246 32.71 221.386 33.05C221.526 33.39 221.596 33.81 221.596 34.31V54.8C221.596 55.32 221.526 55.75 221.386 56.09C221.246 56.43 221.066 56.7 220.846 56.9C220.626 57.1 220.366 57.24 220.066 57.32C219.786 57.4 219.486 57.44 219.166 57.44ZM48.2975 90.71C49.0175 90.71 49.5475 90.89 49.8875 91.25C50.2275 91.61 50.3975 92.07 50.3975 92.63C50.3975 93.11 50.2275 93.53 49.8875 93.89C49.5675 94.27 49.0375 94.46 48.2975 94.46H36.3275C35.5675 94.46 34.9675 94.22 34.5275 93.74C34.0875 93.26 33.8675 92.69 33.8675 92.03C33.8675 91.55 34.0475 91.03 34.4075 90.47C35.2875 89.27 37.0075 87.53 39.5675 85.25C41.3875 83.63 42.7375 82.29 43.6175 81.23C44.5175 80.17 44.9675 79.16 44.9675 78.2C44.9675 77.36 44.7975 76.68 44.4575 76.16C44.1175 75.62 43.4275 75.35 42.3875 75.35C41.5075 75.35 40.7675 75.57 40.1675 76.01C39.5875 76.43 39.2975 77.04 39.2975 77.84C39.2975 78.32 39.0875 78.72 38.6675 79.04C38.2675 79.36 37.6975 79.52 36.9575 79.52C36.2575 79.52 35.6675 79.35 35.1875 79.01C34.7275 78.65 34.4975 78.09 34.4975 77.33C34.4975 76.19 34.8575 75.18 35.5775 74.3C36.2975 73.42 37.2475 72.74 38.4275 72.26C39.6275 71.78 40.8975 71.54 42.2375 71.54C44.6775 71.54 46.5875 72.12 47.9675 73.28C49.3475 74.44 50.0375 76 50.0375 77.96C50.0375 79.06 49.7875 80.1 49.2875 81.08C48.7875 82.06 48.1375 82.99 47.3375 83.87C46.5375 84.73 45.4775 85.76 44.1575 86.96L43.4375 87.62C42.0375 88.86 40.9775 89.89 40.2575 90.71H48.2975ZM62.322 94.61C59.622 94.61 57.562 94.05 56.142 92.93C54.742 91.81 54.042 90 54.042 87.5V78.65C54.042 76.15 54.742 74.34 56.142 73.22C57.562 72.1 59.622 71.54 62.322 71.54C67.902 71.54 70.692 73.94 70.692 78.74V87.5C70.572 92.24 67.782 94.61 62.322 94.61ZM59.232 87.53C59.232 88.75 59.442 89.62 59.862 90.14C60.282 90.64 61.102 90.89 62.322 90.89C63.522 90.89 64.342 90.63 64.782 90.11C65.242 89.57 65.472 88.71 65.472 87.53V78.68C65.432 77.82 65.322 77.15 65.142 76.67C64.982 76.19 64.682 75.84 64.242 75.62C63.802 75.38 63.162 75.26 62.322 75.26C61.102 75.26 60.282 75.52 59.862 76.04C59.442 76.56 59.232 77.44 59.232 78.68V87.53ZM88.7271 90.71C89.4471 90.71 89.9771 90.89 90.3171 91.25C90.6571 91.61 90.8271 92.07 90.8271 92.63C90.8271 93.11 90.6571 93.53 90.3171 93.89C89.9971 94.27 89.4671 94.46 88.7271 94.46H76.7571C75.9971 94.46 75.3971 94.22 74.9571 93.74C74.5171 93.26 74.2971 92.69 74.2971 92.03C74.2971 91.55 74.4771 91.03 74.8371 90.47C75.7171 89.27 77.4371 87.53 79.9971 85.25C81.8171 83.63 83.1671 82.29 84.0471 81.23C84.9471 80.17 85.3971 79.16 85.3971 78.2C85.3971 77.36 85.2271 76.68 84.8871 76.16C84.5471 75.62 83.8571 75.35 82.8171 75.35C81.9371 75.35 81.1971 75.57 80.5971 76.01C80.0171 76.43 79.7271 77.04 79.7271 77.84C79.7271 78.32 79.5171 78.72 79.0971 79.04C78.6971 79.36 78.1271 79.52 77.3871 79.52C76.6871 79.52 76.0971 79.35 75.6171 79.01C75.1571 78.65 74.9271 78.09 74.9271 77.33C74.9271 76.19 75.2871 75.18 76.0071 74.3C76.7271 73.42 77.6771 72.74 78.8571 72.26C80.0571 71.78 81.3271 71.54 82.6671 71.54C85.1071 71.54 87.0171 72.12 88.3972 73.28C89.7771 74.44 90.4671 76 90.4671 77.96C90.4671 79.06 90.2171 80.1 89.7171 81.08C89.2171 82.06 88.5671 82.99 87.7671 83.87C86.9671 84.73 85.9071 85.76 84.5871 86.96L83.8671 87.62C82.4671 88.86 81.4071 89.89 80.6871 90.71H88.7271ZM102.482 90.89C103.902 90.89 104.932 90.64 105.572 90.14C106.232 89.62 106.562 88.78 106.562 87.62V87.11C106.562 86.11 106.202 85.4 105.482 84.98C104.782 84.54 103.782 84.32 102.482 84.32C101.842 84.32 101.372 84.15 101.072 83.81C100.772 83.45 100.622 83.04 100.622 82.58C100.622 82.08 100.772 81.67 101.072 81.35C101.372 81.01 101.842 80.84 102.482 80.84C104.742 80.84 105.872 79.9 105.872 78.02C105.872 76.16 104.792 75.23 102.632 75.23C101.412 75.23 100.532 75.46 99.9917 75.92C99.4517 76.36 99.1817 76.88 99.1817 77.48C99.1817 78.06 98.9617 78.53 98.5217 78.89C98.1017 79.25 97.4817 79.43 96.6617 79.43C95.8217 79.43 95.2117 79.26 94.8317 78.92C94.4717 78.56 94.2917 77.99 94.2917 77.21C94.2917 76.37 94.5417 75.52 95.0417 74.66C95.5417 73.8 96.4117 73.07 97.6517 72.47C98.9117 71.85 100.592 71.54 102.692 71.54C105.232 71.54 107.242 72.02 108.722 72.98C110.202 73.94 110.942 75.43 110.942 77.45C110.942 78.77 110.732 79.82 110.312 80.6C109.912 81.38 109.292 82 108.452 82.46C110.652 83.28 111.752 84.83 111.752 87.11V87.62C111.752 90.04 110.892 91.81 109.172 92.93C107.472 94.05 105.242 94.61 102.482 94.61C100.462 94.61 98.7717 94.34 97.4117 93.8C96.0517 93.26 95.0417 92.57 94.3817 91.73C93.7417 90.87 93.4217 89.98 93.4217 89.06C93.4217 88.34 93.6117 87.81 93.9917 87.47C94.3717 87.11 94.9917 86.93 95.8517 86.93C96.8717 86.93 97.5717 87.1 97.9517 87.44C98.3317 87.78 98.5217 88.28 98.5217 88.94C98.5217 89.5 98.8617 89.97 99.5417 90.35C100.222 90.71 101.202 90.89 102.482 90.89ZM122.095 96.14C120.935 96.14 119.955 96.01 119.155 95.75C118.375 95.49 117.735 95.1 117.235 94.58C116.735 94.08 116.355 93.45 116.095 92.69C115.855 91.95 115.705 91.09 115.645 90.11C115.625 89.93 115.615 89.51 115.615 88.85C115.615 88.17 115.605 87.37 115.585 86.45C115.585 85.53 115.585 84.55 115.585 83.51C115.585 82.47 115.585 81.49 115.585 80.57C115.605 79.65 115.615 78.86 115.615 78.2C115.615 77.54 115.625 77.12 115.645 76.94C115.705 75.94 115.855 75.06 116.095 74.3C116.335 73.54 116.705 72.9 117.205 72.38C117.705 71.86 118.345 71.47 119.125 71.21C119.925 70.93 120.915 70.79 122.095 70.79C123.195 70.79 124.135 70.93 124.915 71.21C125.715 71.47 126.365 71.86 126.865 72.38C127.385 72.9 127.775 73.55 128.035 74.33C128.315 75.09 128.485 75.96 128.545 76.94C128.545 77.12 128.545 77.55 128.545 78.23C128.565 78.89 128.575 79.68 128.575 80.6C128.575 81.52 128.575 82.5 128.575 83.54C128.595 84.58 128.595 85.56 128.575 86.48C128.575 87.4 128.565 88.2 128.545 88.88C128.545 89.54 128.545 89.95 128.545 90.11C128.505 92.13 127.985 93.64 126.985 94.64C125.985 95.64 124.355 96.14 122.095 96.14ZM122.095 92.06C122.255 92.06 122.425 92.04 122.605 92C122.785 91.98 122.945 91.9 123.085 91.76C123.245 91.62 123.375 91.43 123.475 91.19C123.595 90.93 123.665 90.57 123.685 90.11C123.685 89.93 123.685 89.5 123.685 88.82C123.705 88.12 123.715 87.31 123.715 86.39V80.48C123.715 79.54 123.705 78.74 123.685 78.08C123.685 77.42 123.685 77 123.685 76.82C123.685 76.4 123.635 76.06 123.535 75.8C123.435 75.54 123.305 75.35 123.145 75.23C122.985 75.09 122.805 75 122.605 74.96C122.425 74.92 122.255 74.9 122.095 74.9C121.935 74.9 121.765 74.93 121.585 74.99C121.405 75.03 121.235 75.12 121.075 75.26C120.935 75.4 120.805 75.61 120.685 75.89C120.585 76.15 120.525 76.49 120.505 76.91C120.505 77.09 120.495 77.52 120.475 78.2C120.475 78.88 120.465 79.68 120.445 80.6C120.445 81.52 120.445 82.5 120.445 83.54C120.445 84.58 120.445 85.56 120.445 86.48C120.465 87.4 120.475 88.2 120.475 88.88C120.475 89.54 120.485 89.95 120.505 90.11C120.505 90.57 120.555 90.93 120.655 91.19C120.755 91.43 120.875 91.62 121.015 91.76C121.175 91.9 121.345 91.98 121.525 92C121.725 92.04 121.915 92.06 122.095 92.06ZM136.795 96.44C136.475 96.44 136.165 96.4 135.865 96.32C135.585 96.24 135.325 96.1 135.085 95.9C134.865 95.7 134.685 95.43 134.545 95.09C134.425 94.75 134.365 94.32 134.365 93.8V73.31C134.365 72.31 134.605 71.63 135.085 71.27C135.585 70.89 136.155 70.7 136.795 70.7C137.115 70.7 137.415 70.74 137.695 70.82C137.995 70.9 138.255 71.04 138.475 71.24C138.695 71.44 138.875 71.71 139.015 72.05C139.155 72.39 139.225 72.81 139.225 73.31V93.8C139.225 94.32 139.155 94.75 139.015 95.09C138.875 95.43 138.695 95.7 138.475 95.9C138.255 96.1 137.995 96.24 137.695 96.32C137.415 96.4 137.115 96.44 136.795 96.44ZM155.065 96.08C154.505 96.08 154.045 96.02 153.685 95.9C153.325 95.78 153.045 95.62 152.845 95.42C152.645 95.24 152.505 95.02 152.425 94.76C152.365 94.52 152.335 94.28 152.335 94.04C152.335 93.74 152.365 93.46 152.425 93.2C152.505 92.96 152.645 92.74 152.845 92.54C153.045 92.36 153.325 92.21 153.685 92.09C154.045 91.99 154.505 91.94 155.065 91.94H163.075V85.58H156.925C156.365 85.58 155.925 85.52 155.605 85.4C155.285 85.28 155.035 85.12 154.855 84.92C154.695 84.7 154.595 84.46 154.555 84.2C154.515 83.92 154.495 83.63 154.495 83.33V73.61C154.495 72.61 154.735 71.93 155.215 71.57C155.715 71.19 156.285 71 156.925 71H173.935C174.435 71 174.835 71.06 175.135 71.18C175.435 71.3 175.665 71.46 175.825 71.66C175.985 71.86 176.085 72.09 176.125 72.35C176.185 72.59 176.215 72.84 176.215 73.1C176.215 73.32 176.185 73.55 176.125 73.79C176.085 74.03 175.985 74.25 175.825 74.45C175.665 74.65 175.435 74.82 175.135 74.96C174.835 75.1 174.435 75.17 173.935 75.17H159.355V81.41H174.235C174.735 81.41 175.135 81.48 175.435 81.62C175.735 81.76 175.965 81.93 176.125 82.13C176.285 82.33 176.385 82.56 176.425 82.82C176.485 83.06 176.515 83.28 176.515 83.48C176.515 83.74 176.485 84 176.425 84.26C176.385 84.5 176.285 84.72 176.125 84.92C175.965 85.12 175.735 85.28 175.435 85.4C175.135 85.52 174.735 85.58 174.235 85.58H167.935V91.94H175.915C176.475 91.94 176.935 91.99 177.295 92.09C177.655 92.21 177.935 92.36 178.135 92.54C178.335 92.74 178.465 92.96 178.525 93.2C178.605 93.46 178.645 93.74 178.645 94.04C178.645 94.28 178.605 94.52 178.525 94.76C178.465 95.02 178.335 95.24 178.135 95.42C177.935 95.62 177.655 95.78 177.295 95.9C176.935 96.02 176.475 96.08 175.915 96.08H155.065ZM201.271 96.77C200.631 96.77 200.061 96.58 199.561 96.2C199.081 95.84 198.841 95.16 198.841 94.16V91.31H183.811C183.251 91.31 182.791 91.25 182.431 91.13C182.071 91.01 181.791 90.86 181.591 90.68C181.391 90.48 181.251 90.26 181.171 90.02C181.111 89.76 181.081 89.51 181.081 89.27C181.081 88.97 181.111 88.7 181.171 88.46C181.251 88.2 181.391 87.98 181.591 87.8C181.791 87.6 182.071 87.45 182.431 87.35C182.791 87.23 183.251 87.17 183.811 87.17H201.271C201.831 87.17 202.271 87.23 202.591 87.35C202.911 87.45 203.151 87.6 203.311 87.8C203.491 87.98 203.601 88.2 203.641 88.46C203.681 88.7 203.701 88.97 203.701 89.27V94.16C203.701 94.66 203.631 95.08 203.491 95.42C203.351 95.76 203.171 96.03 202.951 96.23C202.731 96.43 202.471 96.57 202.171 96.65C201.891 96.73 201.591 96.77 201.271 96.77ZM182.881 86C182.541 85.98 182.191 85.9 181.831 85.76C181.491 85.62 181.211 85.35 180.991 84.95C180.631 84.29 180.561 83.69 180.781 83.15C181.001 82.61 181.461 82.17 182.161 81.83C182.701 81.57 183.171 81.33 183.571 81.11C183.991 80.89 184.361 80.65 184.681 80.39C185.001 80.11 185.271 79.78 185.491 79.4C185.671 79.12 185.801 78.75 185.881 78.29H183.541C182.561 78.29 181.911 78.14 181.591 77.84C181.271 77.52 181.111 77.11 181.111 76.61C181.111 76.03 181.271 75.6 181.591 75.32C181.911 75.02 182.561 74.87 183.541 74.87H193.051C194.031 74.87 194.681 75.02 195.001 75.32C195.321 75.6 195.481 76.03 195.481 76.61C195.481 77.11 195.321 77.52 195.001 77.84C194.681 78.14 194.031 78.29 193.051 78.29H191.161C191.281 78.75 191.441 79.12 191.641 79.4C191.921 79.78 192.201 80.1 192.481 80.36C192.781 80.6 193.111 80.82 193.471 81.02C193.831 81.2 194.201 81.39 194.581 81.59C195.281 81.95 195.751 82.38 195.991 82.88C196.251 83.38 196.241 83.97 195.961 84.65C195.801 85.01 195.571 85.29 195.271 85.49C194.991 85.67 194.671 85.79 194.311 85.85C194.091 85.87 193.851 85.86 193.591 85.82C193.351 85.78 193.121 85.7 192.901 85.58C192.321 85.28 191.661 84.85 190.921 84.29C190.181 83.71 189.471 83.04 188.791 82.28C188.231 82.94 187.601 83.55 186.901 84.11C186.221 84.65 185.491 85.12 184.711 85.52C184.431 85.66 184.131 85.78 183.811 85.88C183.511 85.96 183.201 86 182.881 86ZM185.221 73.58C184.741 73.58 184.351 73.54 184.051 73.46C183.771 73.36 183.541 73.24 183.361 73.1C183.201 72.94 183.091 72.77 183.031 72.59C182.971 72.39 182.941 72.2 182.941 72.02C182.941 71.6 183.081 71.23 183.361 70.91C183.661 70.59 184.281 70.43 185.221 70.43H191.641C192.581 70.43 193.191 70.59 193.471 70.91C193.771 71.23 193.921 71.6 193.921 72.02C193.921 72.2 193.891 72.39 193.831 72.59C193.771 72.77 193.651 72.94 193.471 73.1C193.311 73.24 193.081 73.36 192.781 73.46C192.501 73.54 192.121 73.58 191.641 73.58H185.221ZM201.331 85.94C201.011 85.94 200.701 85.9 200.401 85.82C200.121 85.74 199.861 85.6 199.621 85.4C199.401 85.2 199.221 84.93 199.081 84.59C198.961 84.25 198.901 83.82 198.901 83.3V73.31C198.901 72.31 199.141 71.63 199.621 71.27C200.121 70.89 200.691 70.7 201.331 70.7C201.651 70.7 201.951 70.74 202.231 70.82C202.531 70.9 202.791 71.04 203.011 71.24C203.231 71.44 203.411 71.71 203.551 72.05C203.691 72.39 203.761 72.81 203.761 73.31V76.34H205.891C206.451 76.34 206.911 76.41 207.271 76.55C207.631 76.67 207.911 76.83 208.111 77.03C208.311 77.23 208.441 77.46 208.501 77.72C208.581 77.96 208.621 78.2 208.621 78.44C208.621 78.74 208.581 79.02 208.501 79.28C208.441 79.54 208.311 79.77 208.111 79.97C207.911 80.15 207.631 80.3 207.271 80.42C206.911 80.54 206.451 80.6 205.891 80.6H203.761V83.3C203.761 83.82 203.691 84.25 203.551 84.59C203.411 84.93 203.231 85.2 203.011 85.4C202.791 85.6 202.531 85.74 202.231 85.82C201.951 85.9 201.651 85.94 201.331 85.94ZM232.327 86.09C231.687 86.09 231.167 85.91 230.767 85.55C230.387 85.19 230.197 84.49 230.197 83.45V80.63H228.187V83.42C228.187 84.46 227.997 85.16 227.617 85.52C227.257 85.88 226.757 86.06 226.117 86.06C225.477 86.06 224.957 85.88 224.557 85.52C224.177 85.16 223.987 84.46 223.987 83.42V73.31C223.987 72.31 224.177 71.63 224.557 71.27C224.937 70.89 225.447 70.7 226.087 70.7C226.707 70.7 227.207 70.89 227.587 71.27C227.987 71.63 228.187 72.31 228.187 73.31V76.55H230.197V73.31C230.197 72.31 230.387 71.63 230.767 71.27C231.147 70.89 231.657 70.7 232.297 70.7C232.917 70.7 233.417 70.89 233.797 71.27C234.197 71.63 234.397 72.31 234.397 73.31V83.45C234.397 84.49 234.207 85.19 233.827 85.55C233.467 85.91 232.967 86.09 232.327 86.09ZM214.327 96.32C213.767 96.72 213.267 96.86 212.827 96.74C212.407 96.64 212.017 96.45 211.657 96.17C211.437 96.01 211.247 95.8 211.087 95.54C210.947 95.3 210.857 95.04 210.817 94.76C210.797 94.48 210.827 94.19 210.907 93.89C211.007 93.61 211.177 93.36 211.417 93.14C211.757 92.82 212.087 92.52 212.407 92.24C212.747 91.96 213.047 91.68 213.307 91.4C213.587 91.1 213.807 90.78 213.967 90.44C214.127 90.1 214.207 89.7 214.207 89.24V88.97C214.207 88.73 214.237 88.5 214.297 88.28C214.357 88.04 214.467 87.84 214.627 87.68C214.787 87.5 215.017 87.36 215.317 87.26C215.617 87.14 215.997 87.08 216.457 87.08C217.437 87.08 218.117 87.27 218.497 87.65C218.897 88.01 219.097 88.45 219.097 88.97V89.24C219.097 89.7 219.167 90.1 219.307 90.44C219.467 90.78 219.677 91.1 219.937 91.4C220.197 91.68 220.487 91.96 220.807 92.24C221.127 92.52 221.457 92.82 221.797 93.14C222.037 93.36 222.197 93.61 222.277 93.89C222.377 94.19 222.407 94.48 222.367 94.76C222.347 95.04 222.257 95.3 222.097 95.54C221.957 95.8 221.777 96.01 221.557 96.17C221.197 96.45 220.797 96.64 220.357 96.74C219.917 96.86 219.417 96.72 218.857 96.32C218.517 96.06 218.127 95.7 217.687 95.24C217.247 94.78 216.887 94.36 216.607 93.98C216.307 94.36 215.937 94.78 215.497 95.24C215.057 95.7 214.667 96.06 214.327 96.32ZM216.037 82.43C216.437 82.43 216.757 82.37 216.997 82.25C217.237 82.13 217.417 81.98 217.537 81.8C217.677 81.6 217.767 81.39 217.807 81.17C217.847 80.93 217.867 80.71 217.867 80.51C217.867 80.29 217.847 80.07 217.807 79.85C217.767 79.61 217.677 79.39 217.537 79.19C217.417 78.99 217.237 78.83 216.997 78.71C216.757 78.59 216.437 78.53 216.037 78.53C215.637 78.53 215.317 78.59 215.077 78.71C214.857 78.83 214.677 78.99 214.537 79.19C214.397 79.39 214.307 79.61 214.267 79.85C214.227 80.07 214.207 80.29 214.207 80.51C214.207 80.71 214.227 80.93 214.267 81.17C214.307 81.39 214.397 81.6 214.537 81.8C214.677 81.98 214.857 82.13 215.077 82.25C215.317 82.37 215.637 82.43 216.037 82.43ZM216.037 85.73C215.157 85.73 214.367 85.64 213.667 85.46C212.967 85.26 212.357 84.96 211.837 84.56C211.337 84.14 210.947 83.61 210.667 82.97C210.407 82.33 210.277 81.57 210.277 80.69C210.277 80.17 210.327 79.7 210.427 79.28C210.547 78.86 210.707 78.47 210.907 78.11C210.127 78.05 209.607 77.89 209.347 77.63C209.107 77.35 208.987 76.99 208.987 76.55C208.987 76.25 209.017 76 209.077 75.8C209.157 75.58 209.297 75.4 209.497 75.26C209.697 75.1 209.977 74.99 210.337 74.93C210.697 74.85 211.157 74.81 211.717 74.81H220.237C220.797 74.81 221.257 74.85 221.617 74.93C221.977 74.99 222.257 75.1 222.457 75.26C222.657 75.4 222.787 75.58 222.847 75.8C222.927 76 222.967 76.25 222.967 76.55C222.967 76.97 222.847 77.32 222.607 77.6C222.367 77.86 221.887 78.03 221.167 78.11C221.367 78.45 221.517 78.84 221.617 79.28C221.737 79.7 221.797 80.17 221.797 80.69C221.797 81.63 221.657 82.43 221.377 83.09C221.117 83.73 220.727 84.25 220.207 84.65C219.707 85.03 219.097 85.31 218.377 85.49C217.677 85.65 216.897 85.73 216.037 85.73ZM226.327 96.32C225.767 96.72 225.267 96.86 224.827 96.74C224.407 96.64 224.017 96.45 223.657 96.17C223.437 96.01 223.247 95.8 223.087 95.54C222.947 95.3 222.857 95.04 222.817 94.76C222.797 94.48 222.827 94.19 222.907 93.89C223.007 93.61 223.177 93.36 223.417 93.14C223.757 92.82 224.087 92.52 224.407 92.24C224.747 91.96 225.047 91.68 225.307 91.4C225.587 91.1 225.807 90.78 225.967 90.44C226.127 90.1 226.207 89.7 226.207 89.24V88.97C226.207 88.73 226.237 88.5 226.297 88.28C226.357 88.04 226.467 87.84 226.627 87.68C226.787 87.5 227.017 87.36 227.317 87.26C227.617 87.14 227.997 87.08 228.457 87.08C229.437 87.08 230.117 87.27 230.497 87.65C230.897 88.01 231.097 88.45 231.097 88.97V89.24C231.097 89.7 231.167 90.1 231.307 90.44C231.467 90.78 231.677 91.1 231.937 91.4C232.197 91.68 232.487 91.96 232.807 92.24C233.127 92.52 233.457 92.82 233.797 93.14C234.037 93.36 234.197 93.61 234.277 93.89C234.377 94.19 234.407 94.48 234.367 94.76C234.347 95.04 234.257 95.3 234.097 95.54C233.957 95.8 233.777 96.01 233.557 96.17C233.197 96.45 232.797 96.64 232.357 96.74C231.917 96.86 231.417 96.72 230.857 96.32C230.517 96.06 230.127 95.7 229.687 95.24C229.247 94.78 228.887 94.36 228.607 93.98C228.307 94.36 227.937 94.78 227.497 95.24C227.057 95.7 226.667 96.06 226.327 96.32ZM213.607 73.52C212.487 73.52 211.747 73.39 211.387 73.13C211.047 72.85 210.877 72.46 210.877 71.96C210.877 71.38 211.047 70.97 211.387 70.73C211.747 70.47 212.487 70.34 213.607 70.34H218.347C219.467 70.34 220.197 70.47 220.537 70.73C220.897 70.97 221.077 71.38 221.077 71.96C221.077 72.46 220.897 72.85 220.537 73.13C220.197 73.39 219.467 73.52 218.347 73.52H213.607ZM245.442 96.14C244.282 96.14 243.312 96.01 242.532 95.75C241.752 95.49 241.112 95.1 240.612 94.58C240.132 94.08 239.772 93.45 239.532 92.69C239.292 91.95 239.142 91.09 239.082 90.11C239.062 89.93 239.052 89.51 239.052 88.85C239.052 88.17 239.042 87.37 239.022 86.45C239.022 85.53 239.022 84.55 239.022 83.51C239.022 82.47 239.022 81.49 239.022 80.57C239.042 79.65 239.052 78.86 239.052 78.2C239.052 77.54 239.062 77.12 239.082 76.94C239.142 75.94 239.282 75.06 239.502 74.3C239.742 73.54 240.102 72.9 240.582 72.38C241.082 71.86 241.722 71.47 242.502 71.21C243.282 70.93 244.262 70.79 245.442 70.79C246.542 70.79 247.482 70.93 248.262 71.21C249.042 71.47 249.682 71.86 250.182 72.38C250.682 72.9 251.062 73.55 251.322 74.33C251.582 75.09 251.742 75.96 251.802 76.94C251.802 77.12 251.802 77.55 251.802 78.23C251.822 78.89 251.832 79.68 251.832 80.6C251.832 81.52 251.832 82.5 251.832 83.54C251.852 84.58 251.852 85.56 251.832 86.48C251.832 87.4 251.822 88.2 251.802 88.88C251.802 89.54 251.802 89.95 251.802 90.11C251.762 92.13 251.252 93.64 250.272 94.64C249.312 95.64 247.702 96.14 245.442 96.14ZM245.442 92.06C245.602 92.06 245.762 92.04 245.922 92C246.102 91.98 246.262 91.9 246.402 91.76C246.542 91.62 246.662 91.43 246.762 91.19C246.862 90.93 246.922 90.57 246.942 90.11C246.942 89.93 246.942 89.5 246.942 88.82C246.962 88.12 246.972 87.31 246.972 86.39V80.48C246.972 79.54 246.962 78.74 246.942 78.08C246.942 77.42 246.942 77 246.942 76.82C246.942 76.4 246.892 76.06 246.792 75.8C246.712 75.54 246.592 75.35 246.432 75.23C246.292 75.09 246.132 75 245.952 74.96C245.772 74.92 245.602 74.9 245.442 74.9C245.282 74.9 245.112 74.93 244.932 74.99C244.772 75.03 244.622 75.12 244.482 75.26C244.342 75.4 244.222 75.61 244.122 75.89C244.022 76.15 243.962 76.49 243.942 76.91C243.922 77.09 243.912 77.52 243.912 78.2C243.912 78.88 243.902 79.68 243.882 80.6C243.882 81.52 243.882 82.5 243.882 83.54C243.882 84.58 243.882 85.56 243.882 86.48C243.902 87.4 243.912 88.2 243.912 88.88C243.912 89.54 243.922 89.95 243.942 90.11C243.942 90.57 243.982 90.93 244.062 91.19C244.162 91.43 244.282 91.62 244.422 91.76C244.562 91.9 244.722 91.98 244.902 92C245.082 92.04 245.262 92.06 245.442 92.06ZM260.232 96.44C259.912 96.44 259.602 96.4 259.302 96.32C259.022 96.24 258.762 96.1 258.522 95.9C258.302 95.7 258.122 95.43 257.982 95.09C257.862 94.75 257.802 94.32 257.802 93.8V84.53H255.372C254.812 84.53 254.362 84.48 254.022 84.38C253.682 84.26 253.412 84.11 253.212 83.93C253.032 83.73 252.912 83.51 252.852 83.27C252.792 83.01 252.762 82.73 252.762 82.43C252.762 82.19 252.792 81.95 252.852 81.71C252.912 81.45 253.032 81.23 253.212 81.05C253.412 80.85 253.682 80.69 254.022 80.57C254.362 80.45 254.812 80.39 255.372 80.39H257.802V73.31C257.802 72.31 258.042 71.63 258.522 71.27C259.022 70.89 259.592 70.7 260.232 70.7C260.552 70.7 260.852 70.74 261.132 70.82C261.432 70.9 261.692 71.04 261.912 71.24C262.132 71.44 262.312 71.71 262.452 72.05C262.592 72.39 262.662 72.81 262.662 73.31V93.8C262.662 94.32 262.592 94.75 262.452 95.09C262.312 95.43 262.132 95.7 261.912 95.9C261.692 96.1 261.432 96.24 261.132 96.32C260.852 96.4 260.552 96.44 260.232 96.44ZM269.088 96.08C268.528 96.08 268.068 96.02 267.708 95.9C267.348 95.78 267.068 95.62 266.868 95.42C266.668 95.24 266.528 95.02 266.448 94.76C266.388 94.52 266.358 94.28 266.358 94.04C266.358 93.74 266.388 93.46 266.448 93.2C266.528 92.96 266.668 92.74 266.868 92.54C267.068 92.36 267.348 92.21 267.708 92.09C268.068 91.99 268.528 91.94 269.088 91.94H271.638V84.92C270.458 84.42 269.578 83.66 268.998 82.64C268.418 81.62 268.128 80.51 268.128 79.31V77.51C268.128 76.71 268.278 75.92 268.578 75.14C268.878 74.36 269.308 73.67 269.868 73.07C270.448 72.45 271.128 71.95 271.908 71.57C272.708 71.19 273.608 71 274.608 71H284.388C285.368 71 286.258 71.19 287.058 71.57C287.858 71.95 288.538 72.45 289.098 73.07C289.678 73.67 290.118 74.36 290.418 75.14C290.718 75.92 290.868 76.71 290.868 77.51V79.31C290.868 80.51 290.578 81.62 289.998 82.64C289.418 83.64 288.558 84.39 287.418 84.89V91.94H289.938C290.498 91.94 290.958 91.99 291.318 92.09C291.678 92.21 291.958 92.36 292.158 92.54C292.358 92.74 292.488 92.96 292.548 93.2C292.628 93.46 292.668 93.74 292.668 94.04C292.668 94.28 292.628 94.52 292.548 94.76C292.488 95.02 292.358 95.24 292.158 95.42C291.958 95.62 291.678 95.78 291.318 95.9C290.958 96.02 290.498 96.08 289.938 96.08H269.088ZM282.558 91.94V85.46H276.498V91.94H282.558ZM283.488 81.29C284.348 81.25 284.978 80.97 285.378 80.45C285.798 79.93 286.008 79.3 286.008 78.56V77.9C286.008 77.14 285.798 76.5 285.378 75.98C284.978 75.44 284.318 75.17 283.398 75.17H275.598C274.678 75.17 274.008 75.44 273.588 75.98C273.188 76.5 272.988 77.14 272.988 77.9V78.56C272.988 79.3 273.188 79.93 273.588 80.45C274.008 80.97 274.648 81.25 275.508 81.29H283.488ZM300.084 72.02C300.564 72.46 300.804 73.02 300.804 73.7L300.294 86.81C300.274 87.37 300.024 87.81 299.544 88.13C299.084 88.45 298.604 88.61 298.104 88.61C297.444 88.61 296.904 88.46 296.484 88.16C296.084 87.84 295.874 87.39 295.854 86.81L295.404 73.7C295.384 73.02 295.604 72.46 296.064 72.02C296.524 71.56 297.204 71.33 298.104 71.33C298.964 71.33 299.624 71.56 300.084 72.02ZM296.004 94.4C295.444 93.96 295.164 93.34 295.164 92.54C295.164 91.74 295.444 91.11 296.004 90.65C296.564 90.19 297.274 89.96 298.134 89.96C298.994 89.96 299.704 90.19 300.264 90.65C300.844 91.11 301.134 91.74 301.134 92.54C301.134 93.34 300.844 93.96 300.264 94.4C299.704 94.86 298.994 95.09 298.134 95.09C297.274 95.09 296.564 94.86 296.004 94.4Z" fill="white"/>
<path d="M132.258 56.77C131.618 56.77 131.048 56.58 130.548 56.2C130.068 55.84 129.828 55.16 129.828 54.16V50.68H114.798C114.238 50.68 113.778 50.62 113.418 50.5C113.058 50.38 112.778 50.23 112.578 50.05C112.378 49.85 112.238 49.63 112.158 49.39C112.098 49.13 112.068 48.88 112.068 48.64C112.068 48.34 112.098 48.07 112.158 47.83C112.238 47.57 112.378 47.35 112.578 47.17C112.778 46.97 113.058 46.82 113.418 46.72C113.778 46.6 114.238 46.54 114.798 46.54H132.258C132.818 46.54 133.258 46.6 133.578 46.72C133.898 46.82 134.138 46.97 134.298 47.17C134.478 47.35 134.588 47.57 134.628 47.83C134.668 48.07 134.688 48.34 134.688 48.64V54.16C134.688 54.66 134.618 55.08 134.478 55.42C134.338 55.76 134.158 56.03 133.938 56.23C133.718 56.43 133.458 56.57 133.158 56.65C132.878 56.73 132.578 56.77 132.258 56.77ZM113.598 44.77C113.038 44.77 112.598 44.72 112.278 44.62C111.958 44.5 111.708 44.35 111.528 44.17C111.368 43.97 111.268 43.75 111.228 43.51C111.188 43.25 111.168 42.97 111.168 42.67V33.46C111.168 33.08 111.188 32.74 111.228 32.44C111.268 32.12 111.368 31.86 111.528 31.66C111.708 31.44 111.958 31.28 112.278 31.18C112.598 31.06 113.038 31 113.598 31H121.308C121.868 31 122.328 31.06 122.688 31.18C123.048 31.28 123.328 31.43 123.528 31.63C123.728 31.81 123.858 32.03 123.918 32.29C123.998 32.53 124.038 32.8 124.038 33.1C124.038 33.34 123.998 33.58 123.918 33.82C123.858 34.06 123.728 34.28 123.528 34.48C123.328 34.66 123.048 34.81 122.688 34.93C122.328 35.03 121.868 35.08 121.308 35.08H116.028V40.69H121.908C122.468 40.69 122.928 40.75 123.288 40.87C123.648 40.97 123.928 41.12 124.128 41.32C124.328 41.5 124.458 41.71 124.518 41.95C124.598 42.19 124.638 42.43 124.638 42.67C124.638 42.97 124.598 43.25 124.518 43.51C124.458 43.75 124.328 43.97 124.128 44.17C123.928 44.35 123.648 44.5 123.288 44.62C122.928 44.72 122.468 44.77 121.908 44.77H113.598ZM132.348 45.31C132.028 45.31 131.718 45.27 131.418 45.19C131.138 45.11 130.878 44.97 130.638 44.77C130.418 44.57 130.238 44.3 130.098 43.96C129.978 43.62 129.918 43.19 129.918 42.67V39.82H126.498C125.938 39.82 125.488 39.77 125.148 39.67C124.808 39.55 124.538 39.39 124.338 39.19C124.158 38.99 124.038 38.77 123.978 38.53C123.918 38.27 123.888 37.99 123.888 37.69C123.888 37.45 123.918 37.21 123.978 36.97C124.038 36.71 124.158 36.48 124.338 36.28C124.538 36.08 124.808 35.92 125.148 35.8C125.488 35.68 125.938 35.62 126.498 35.62H129.918V33.31C129.918 32.31 130.158 31.63 130.638 31.27C131.138 30.89 131.708 30.7 132.348 30.7C132.668 30.7 132.968 30.74 133.248 30.82C133.548 30.9 133.808 31.04 134.028 31.24C134.248 31.44 134.428 31.71 134.568 32.05C134.708 32.39 134.778 32.81 134.778 33.31V42.67C134.778 43.19 134.708 43.62 134.568 43.96C134.428 44.3 134.248 44.57 134.028 44.77C133.808 44.97 133.548 45.11 133.248 45.19C132.968 45.27 132.668 45.31 132.348 45.31ZM152.244 56.44C151.924 56.44 151.614 56.4 151.314 56.32C151.034 56.24 150.774 56.1 150.534 55.9C150.314 55.7 150.134 55.43 149.994 55.09C149.874 54.75 149.814 54.32 149.814 53.8V49.96H141.804C141.244 49.96 140.784 49.9 140.424 49.78C140.064 49.66 139.784 49.51 139.584 49.33C139.384 49.13 139.244 48.91 139.164 48.67C139.104 48.41 139.074 48.16 139.074 47.92C139.074 47.62 139.104 47.35 139.164 47.11C139.244 46.85 139.384 46.63 139.584 46.45C139.784 46.25 140.064 46.1 140.424 46C140.784 45.88 141.244 45.82 141.804 45.82H162.654C163.214 45.82 163.674 45.88 164.034 46C164.394 46.1 164.674 46.25 164.874 46.45C165.074 46.63 165.204 46.85 165.264 47.11C165.344 47.35 165.384 47.62 165.384 47.92C165.384 48.16 165.344 48.41 165.264 48.67C165.204 48.91 165.074 49.13 164.874 49.33C164.674 49.51 164.394 49.66 164.034 49.78C163.674 49.9 163.214 49.96 162.654 49.96H154.674V53.8C154.674 54.32 154.604 54.75 154.464 55.09C154.324 55.43 154.144 55.7 153.924 55.9C153.704 56.1 153.444 56.24 153.144 56.32C152.864 56.4 152.564 56.44 152.244 56.44ZM147.114 43.24C144.994 43.22 143.414 42.76 142.374 41.86C141.354 40.94 140.844 39.67 140.844 38.05V36.55C140.844 35.75 140.984 35.01 141.264 34.33C141.564 33.65 141.994 33.07 142.554 32.59C143.114 32.09 143.784 31.7 144.564 31.42C145.344 31.14 146.234 31 147.234 31H157.194C158.174 31 159.054 31.14 159.834 31.42C160.634 31.7 161.314 32.09 161.874 32.59C162.434 33.07 162.854 33.65 163.134 34.33C163.434 35.01 163.584 35.75 163.584 36.55V38.05C163.584 39.67 163.074 40.94 162.054 41.86C161.034 42.76 159.464 43.22 157.344 43.24H147.114ZM156.294 39.13C157.154 39.09 157.774 38.96 158.154 38.74C158.534 38.52 158.724 38.04 158.724 37.3V36.94C158.724 36.18 158.534 35.69 158.154 35.47C157.774 35.23 157.124 35.11 156.204 35.11H148.224C147.304 35.11 146.654 35.23 146.274 35.47C145.894 35.69 145.704 36.18 145.704 36.94V37.3C145.704 38.04 145.894 38.52 146.274 38.74C146.654 38.96 147.274 39.09 148.134 39.13H156.294ZM172.11 57.04C171.55 57.04 171.11 56.99 170.79 56.89C170.47 56.81 170.22 56.68 170.04 56.5C169.88 56.34 169.78 56.14 169.74 55.9C169.7 55.66 169.68 55.4 169.68 55.12V51.16C169.68 50.96 169.7 50.77 169.74 50.59C169.8 50.39 169.91 50.22 170.07 50.08C170.23 49.92 170.46 49.8 170.76 49.72C171.06 49.62 171.46 49.57 171.96 49.57H186.93V48.46H171.87C171.37 48.46 170.97 48.42 170.67 48.34C170.37 48.26 170.14 48.15 169.98 48.01C169.82 47.85 169.71 47.67 169.65 47.47C169.61 47.25 169.59 47.02 169.59 46.78C169.59 46.58 169.61 46.38 169.65 46.18C169.71 45.98 169.82 45.8 169.98 45.64C170.14 45.46 170.37 45.32 170.67 45.22C170.97 45.12 171.37 45.07 171.87 45.07H189.48C189.96 45.07 190.35 45.12 190.65 45.22C190.97 45.32 191.21 45.45 191.37 45.61C191.53 45.77 191.64 45.95 191.7 46.15C191.76 46.35 191.79 46.55 191.79 46.75V51.22C191.79 51.7 191.64 52.06 191.34 52.3C191.06 52.56 190.44 52.69 189.48 52.69H174.54V53.8H189.72C190.28 53.8 190.74 53.84 191.1 53.92C191.46 54 191.74 54.11 191.94 54.25C192.14 54.39 192.27 54.56 192.33 54.76C192.41 54.96 192.45 55.18 192.45 55.42C192.45 55.7 192.41 55.94 192.33 56.14C192.27 56.34 192.14 56.51 191.94 56.65C191.74 56.79 191.46 56.89 191.1 56.95C190.74 57.01 190.28 57.04 189.72 57.04H172.11ZM169.83 43.87C169.33 43.87 168.93 43.83 168.63 43.75C168.33 43.67 168.1 43.56 167.94 43.42C167.78 43.28 167.67 43.11 167.61 42.91C167.57 42.69 167.55 42.44 167.55 42.16C167.55 41.94 167.57 41.73 167.61 41.53C167.67 41.33 167.78 41.15 167.94 40.99C168.1 40.83 168.33 40.71 168.63 40.63C168.93 40.53 169.33 40.48 169.83 40.48H191.64C192.14 40.48 192.54 40.53 192.84 40.63C193.14 40.71 193.37 40.83 193.53 40.99C193.69 41.15 193.79 41.33 193.83 41.53C193.89 41.73 193.92 41.94 193.92 42.16C193.92 42.44 193.89 42.69 193.83 42.91C193.79 43.11 193.69 43.28 193.53 43.42C193.37 43.56 193.14 43.67 192.84 43.75C192.54 43.83 192.14 43.87 191.64 43.87H169.83ZM172.17 39.19C171.61 39.19 171.17 39.13 170.85 39.01C170.53 38.89 170.29 38.74 170.13 38.56C169.99 38.36 169.9 38.13 169.86 37.87C169.82 37.61 169.8 37.33 169.8 37.03V33.13C169.8 32.83 169.82 32.56 169.86 32.32C169.9 32.06 169.99 31.83 170.13 31.63C170.29 31.43 170.53 31.28 170.85 31.18C171.17 31.06 171.61 31 172.17 31H188.88C189.38 31 189.78 31.05 190.08 31.15C190.38 31.23 190.61 31.35 190.77 31.51C190.93 31.67 191.03 31.86 191.07 32.08C191.13 32.28 191.16 32.51 191.16 32.77C191.16 32.99 191.13 33.2 191.07 33.4C191.03 33.6 190.93 33.78 190.77 33.94C190.61 34.1 190.38 34.23 190.08 34.33C189.78 34.43 189.38 34.48 188.88 34.48H174.66V35.71H188.88C189.38 35.71 189.78 35.76 190.08 35.86C190.38 35.96 190.61 36.1 190.77 36.28C190.93 36.44 191.03 36.63 191.07 36.85C191.13 37.05 191.16 37.25 191.16 37.45C191.16 37.71 191.13 37.95 191.07 38.17C191.03 38.37 190.93 38.55 190.77 38.71C190.61 38.85 190.38 38.97 190.08 39.07C189.78 39.15 189.38 39.19 188.88 39.19H172.17ZM204.456 48.1C202.136 48.1 200.376 47.59 199.176 46.57C197.976 45.55 197.316 44.05 197.196 42.07C197.176 41.81 197.156 41.45 197.136 40.99C197.136 40.51 197.136 40.02 197.136 39.52C197.136 39 197.136 38.51 197.136 38.05C197.156 37.57 197.176 37.2 197.196 36.94C197.296 34.94 197.936 33.42 199.116 32.38C200.316 31.32 202.096 30.79 204.456 30.79C206.696 30.79 208.426 31.32 209.646 32.38C210.886 33.42 211.576 34.94 211.716 36.94C211.736 37.18 211.746 37.54 211.746 38.02V40.96C211.746 41.42 211.736 41.79 211.716 42.07C211.676 44.09 211.026 45.6 209.766 46.6C208.506 47.6 206.736 48.1 204.456 48.1ZM198.816 56.08C198.256 56.08 197.796 56.02 197.436 55.9C197.076 55.78 196.796 55.62 196.596 55.42C196.396 55.24 196.256 55.02 196.176 54.76C196.116 54.52 196.086 54.28 196.086 54.04C196.086 53.74 196.116 53.46 196.176 53.2C196.256 52.96 196.396 52.74 196.596 52.54C196.796 52.36 197.076 52.21 197.436 52.09C197.796 51.99 198.256 51.94 198.816 51.94H210.816C211.376 51.94 211.836 51.99 212.196 52.09C212.556 52.21 212.836 52.36 213.036 52.54C213.236 52.74 213.366 52.96 213.426 53.2C213.506 53.46 213.546 53.74 213.546 54.04C213.546 54.28 213.506 54.52 213.426 54.76C213.366 55.02 213.236 55.24 213.036 55.42C212.836 55.62 212.556 55.78 212.196 55.9C211.836 56.02 211.376 56.08 210.816 56.08H198.816ZM204.456 44.02C204.616 44.02 204.826 44.01 205.086 43.99C205.346 43.95 205.606 43.86 205.866 43.72C206.126 43.58 206.346 43.39 206.526 43.15C206.726 42.89 206.836 42.53 206.856 42.07C206.876 41.79 206.886 41.41 206.886 40.93V37.93C206.886 37.45 206.876 37.08 206.856 36.82C206.856 36.4 206.756 36.06 206.556 35.8C206.376 35.54 206.156 35.35 205.896 35.23C205.636 35.09 205.366 35 205.086 34.96C204.826 34.92 204.616 34.9 204.456 34.9C204.296 34.9 204.086 34.93 203.826 34.99C203.566 35.03 203.306 35.12 203.046 35.26C202.786 35.4 202.556 35.61 202.356 35.89C202.176 36.15 202.076 36.49 202.056 36.91C202.036 37.19 202.016 37.57 201.996 38.05C201.996 38.53 201.996 39.03 201.996 39.55C201.996 40.05 201.996 40.53 201.996 40.99C202.016 41.45 202.036 41.81 202.056 42.07C202.056 42.53 202.146 42.89 202.326 43.15C202.506 43.39 202.726 43.58 202.986 43.72C203.246 43.86 203.506 43.95 203.766 43.99C204.046 44.01 204.276 44.02 204.456 44.02ZM218.166 56.44C217.846 56.44 217.536 56.4 217.236 56.32C216.956 56.24 216.696 56.1 216.456 55.9C216.236 55.7 216.056 55.43 215.916 55.09C215.796 54.75 215.736 54.32 215.736 53.8V33.31C215.736 32.31 215.976 31.63 216.456 31.27C216.956 30.89 217.526 30.7 218.166 30.7C218.486 30.7 218.786 30.74 219.066 30.82C219.366 30.9 219.626 31.04 219.846 31.24C220.066 31.44 220.246 31.71 220.386 32.05C220.526 32.39 220.596 32.81 220.596 33.31V53.8C220.596 54.32 220.526 54.75 220.386 55.09C220.246 55.43 220.066 55.7 219.846 55.9C219.626 56.1 219.366 56.24 219.066 56.32C218.786 56.4 218.486 56.44 218.166 56.44ZM47.2975 89.71C48.0175 89.71 48.5475 89.89 48.8875 90.25C49.2275 90.61 49.3975 91.07 49.3975 91.63C49.3975 92.11 49.2275 92.53 48.8875 92.89C48.5675 93.27 48.0375 93.46 47.2975 93.46H35.3275C34.5675 93.46 33.9675 93.22 33.5275 92.74C33.0875 92.26 32.8675 91.69 32.8675 91.03C32.8675 90.55 33.0475 90.03 33.4075 89.47C34.2875 88.27 36.0075 86.53 38.5675 84.25C40.3875 82.63 41.7375 81.29 42.6175 80.23C43.5175 79.17 43.9675 78.16 43.9675 77.2C43.9675 76.36 43.7975 75.68 43.4575 75.16C43.1175 74.62 42.4275 74.35 41.3875 74.35C40.5075 74.35 39.7675 74.57 39.1675 75.01C38.5875 75.43 38.2975 76.04 38.2975 76.84C38.2975 77.32 38.0875 77.72 37.6675 78.04C37.2675 78.36 36.6975 78.52 35.9575 78.52C35.2575 78.52 34.6675 78.35 34.1875 78.01C33.7275 77.65 33.4975 77.09 33.4975 76.33C33.4975 75.19 33.8575 74.18 34.5775 73.3C35.2975 72.42 36.2475 71.74 37.4275 71.26C38.6275 70.78 39.8975 70.54 41.2375 70.54C43.6775 70.54 45.5875 71.12 46.9675 72.28C48.3475 73.44 49.0375 75 49.0375 76.96C49.0375 78.06 48.7875 79.1 48.2875 80.08C47.7875 81.06 47.1375 81.99 46.3375 82.87C45.5375 83.73 44.4775 84.76 43.1575 85.96L42.4375 86.62C41.0375 87.86 39.9775 88.89 39.2575 89.71H47.2975ZM61.322 93.61C58.622 93.61 56.562 93.05 55.142 91.93C53.742 90.81 53.042 89 53.042 86.5V77.65C53.042 75.15 53.742 73.34 55.142 72.22C56.562 71.1 58.622 70.54 61.322 70.54C66.902 70.54 69.692 72.94 69.692 77.74V86.5C69.572 91.24 66.782 93.61 61.322 93.61ZM58.232 86.53C58.232 87.75 58.442 88.62 58.862 89.14C59.282 89.64 60.102 89.89 61.322 89.89C62.522 89.89 63.342 89.63 63.782 89.11C64.242 88.57 64.472 87.71 64.472 86.53V77.68C64.432 76.82 64.322 76.15 64.142 75.67C63.982 75.19 63.682 74.84 63.242 74.62C62.802 74.38 62.162 74.26 61.322 74.26C60.102 74.26 59.282 74.52 58.862 75.04C58.442 75.56 58.232 76.44 58.232 77.68V86.53ZM87.7271 89.71C88.4471 89.71 88.9771 89.89 89.3171 90.25C89.6571 90.61 89.8271 91.07 89.8271 91.63C89.8271 92.11 89.6571 92.53 89.3171 92.89C88.9971 93.27 88.4671 93.46 87.7271 93.46H75.7571C74.9971 93.46 74.3971 93.22 73.9571 92.74C73.5171 92.26 73.2971 91.69 73.2971 91.03C73.2971 90.55 73.4771 90.03 73.8371 89.47C74.7171 88.27 76.4371 86.53 78.9971 84.25C80.8171 82.63 82.1671 81.29 83.0471 80.23C83.9471 79.17 84.3971 78.16 84.3971 77.2C84.3971 76.36 84.2271 75.68 83.8871 75.16C83.5471 74.62 82.8571 74.35 81.8171 74.35C80.9371 74.35 80.1971 74.57 79.5971 75.01C79.0171 75.43 78.7271 76.04 78.7271 76.84C78.7271 77.32 78.5171 77.72 78.0971 78.04C77.6971 78.36 77.1271 78.52 76.3871 78.52C75.6871 78.52 75.0971 78.35 74.6171 78.01C74.1571 77.65 73.9271 77.09 73.9271 76.33C73.9271 75.19 74.2871 74.18 75.0071 73.3C75.7271 72.42 76.6771 71.74 77.8571 71.26C79.0571 70.78 80.3271 70.54 81.6671 70.54C84.1071 70.54 86.0171 71.12 87.3972 72.28C88.7771 73.44 89.4671 75 89.4671 76.96C89.4671 78.06 89.2171 79.1 88.7171 80.08C88.2171 81.06 87.5671 81.99 86.7671 82.87C85.9671 83.73 84.9071 84.76 83.5871 85.96L82.8671 86.62C81.4671 87.86 80.4071 88.89 79.6871 89.71H87.7271ZM101.482 89.89C102.902 89.89 103.932 89.64 104.572 89.14C105.232 88.62 105.562 87.78 105.562 86.62V86.11C105.562 85.11 105.202 84.4 104.482 83.98C103.782 83.54 102.782 83.32 101.482 83.32C100.842 83.32 100.372 83.15 100.072 82.81C99.7717 82.45 99.6217 82.04 99.6217 81.58C99.6217 81.08 99.7717 80.67 100.072 80.35C100.372 80.01 100.842 79.84 101.482 79.84C103.742 79.84 104.872 78.9 104.872 77.02C104.872 75.16 103.792 74.23 101.632 74.23C100.412 74.23 99.5317 74.46 98.9917 74.92C98.4517 75.36 98.1817 75.88 98.1817 76.48C98.1817 77.06 97.9617 77.53 97.5217 77.89C97.1017 78.25 96.4817 78.43 95.6617 78.43C94.8217 78.43 94.2117 78.26 93.8317 77.92C93.4717 77.56 93.2917 76.99 93.2917 76.21C93.2917 75.37 93.5417 74.52 94.0417 73.66C94.5417 72.8 95.4117 72.07 96.6517 71.47C97.9117 70.85 99.5917 70.54 101.692 70.54C104.232 70.54 106.242 71.02 107.722 71.98C109.202 72.94 109.942 74.43 109.942 76.45C109.942 77.77 109.732 78.82 109.312 79.6C108.912 80.38 108.292 81 107.452 81.46C109.652 82.28 110.752 83.83 110.752 86.11V86.62C110.752 89.04 109.892 90.81 108.172 91.93C106.472 93.05 104.242 93.61 101.482 93.61C99.4617 93.61 97.7717 93.34 96.4117 92.8C95.0517 92.26 94.0417 91.57 93.3817 90.73C92.7417 89.87 92.4217 88.98 92.4217 88.06C92.4217 87.34 92.6117 86.81 92.9917 86.47C93.3717 86.11 93.9917 85.93 94.8517 85.93C95.8717 85.93 96.5717 86.1 96.9517 86.44C97.3317 86.78 97.5217 87.28 97.5217 87.94C97.5217 88.5 97.8617 88.97 98.5417 89.35C99.2217 89.71 100.202 89.89 101.482 89.89ZM121.095 95.14C119.935 95.14 118.955 95.01 118.155 94.75C117.375 94.49 116.735 94.1 116.235 93.58C115.735 93.08 115.355 92.45 115.095 91.69C114.855 90.95 114.705 90.09 114.645 89.11C114.625 88.93 114.615 88.51 114.615 87.85C114.615 87.17 114.605 86.37 114.585 85.45C114.585 84.53 114.585 83.55 114.585 82.51C114.585 81.47 114.585 80.49 114.585 79.57C114.605 78.65 114.615 77.86 114.615 77.2C114.615 76.54 114.625 76.12 114.645 75.94C114.705 74.94 114.855 74.06 115.095 73.3C115.335 72.54 115.705 71.9 116.205 71.38C116.705 70.86 117.345 70.47 118.125 70.21C118.925 69.93 119.915 69.79 121.095 69.79C122.195 69.79 123.135 69.93 123.915 70.21C124.715 70.47 125.365 70.86 125.865 71.38C126.385 71.9 126.775 72.55 127.035 73.33C127.315 74.09 127.485 74.96 127.545 75.94C127.545 76.12 127.545 76.55 127.545 77.23C127.565 77.89 127.575 78.68 127.575 79.6C127.575 80.52 127.575 81.5 127.575 82.54C127.595 83.58 127.595 84.56 127.575 85.48C127.575 86.4 127.565 87.2 127.545 87.88C127.545 88.54 127.545 88.95 127.545 89.11C127.505 91.13 126.985 92.64 125.985 93.64C124.985 94.64 123.355 95.14 121.095 95.14ZM121.095 91.06C121.255 91.06 121.425 91.04 121.605 91C121.785 90.98 121.945 90.9 122.085 90.76C122.245 90.62 122.375 90.43 122.475 90.19C122.595 89.93 122.665 89.57 122.685 89.11C122.685 88.93 122.685 88.5 122.685 87.82C122.705 87.12 122.715 86.31 122.715 85.39V79.48C122.715 78.54 122.705 77.74 122.685 77.08C122.685 76.42 122.685 76 122.685 75.82C122.685 75.4 122.635 75.06 122.535 74.8C122.435 74.54 122.305 74.35 122.145 74.23C121.985 74.09 121.805 74 121.605 73.96C121.425 73.92 121.255 73.9 121.095 73.9C120.935 73.9 120.765 73.93 120.585 73.99C120.405 74.03 120.235 74.12 120.075 74.26C119.935 74.4 119.805 74.61 119.685 74.89C119.585 75.15 119.525 75.49 119.505 75.91C119.505 76.09 119.495 76.52 119.475 77.2C119.475 77.88 119.465 78.68 119.445 79.6C119.445 80.52 119.445 81.5 119.445 82.54C119.445 83.58 119.445 84.56 119.445 85.48C119.465 86.4 119.475 87.2 119.475 87.88C119.475 88.54 119.485 88.95 119.505 89.11C119.505 89.57 119.555 89.93 119.655 90.19C119.755 90.43 119.875 90.62 120.015 90.76C120.175 90.9 120.345 90.98 120.525 91C120.725 91.04 120.915 91.06 121.095 91.06ZM135.795 95.44C135.475 95.44 135.165 95.4 134.865 95.32C134.585 95.24 134.325 95.1 134.085 94.9C133.865 94.7 133.685 94.43 133.545 94.09C133.425 93.75 133.365 93.32 133.365 92.8V72.31C133.365 71.31 133.605 70.63 134.085 70.27C134.585 69.89 135.155 69.7 135.795 69.7C136.115 69.7 136.415 69.74 136.695 69.82C136.995 69.9 137.255 70.04 137.475 70.24C137.695 70.44 137.875 70.71 138.015 71.05C138.155 71.39 138.225 71.81 138.225 72.31V92.8C138.225 93.32 138.155 93.75 138.015 94.09C137.875 94.43 137.695 94.7 137.475 94.9C137.255 95.1 136.995 95.24 136.695 95.32C136.415 95.4 136.115 95.44 135.795 95.44ZM154.065 95.08C153.505 95.08 153.045 95.02 152.685 94.9C152.325 94.78 152.045 94.62 151.845 94.42C151.645 94.24 151.505 94.02 151.425 93.76C151.365 93.52 151.335 93.28 151.335 93.04C151.335 92.74 151.365 92.46 151.425 92.2C151.505 91.96 151.645 91.74 151.845 91.54C152.045 91.36 152.325 91.21 152.685 91.09C153.045 90.99 153.505 90.94 154.065 90.94H162.075V84.58H155.925C155.365 84.58 154.925 84.52 154.605 84.4C154.285 84.28 154.035 84.12 153.855 83.92C153.695 83.7 153.595 83.46 153.555 83.2C153.515 82.92 153.495 82.63 153.495 82.33V72.61C153.495 71.61 153.735 70.93 154.215 70.57C154.715 70.19 155.285 70 155.925 70H172.935C173.435 70 173.835 70.06 174.135 70.18C174.435 70.3 174.665 70.46 174.825 70.66C174.985 70.86 175.085 71.09 175.125 71.35C175.185 71.59 175.215 71.84 175.215 72.1C175.215 72.32 175.185 72.55 175.125 72.79C175.085 73.03 174.985 73.25 174.825 73.45C174.665 73.65 174.435 73.82 174.135 73.96C173.835 74.1 173.435 74.17 172.935 74.17H158.355V80.41H173.235C173.735 80.41 174.135 80.48 174.435 80.62C174.735 80.76 174.965 80.93 175.125 81.13C175.285 81.33 175.385 81.56 175.425 81.82C175.485 82.06 175.515 82.28 175.515 82.48C175.515 82.74 175.485 83 175.425 83.26C175.385 83.5 175.285 83.72 175.125 83.92C174.965 84.12 174.735 84.28 174.435 84.4C174.135 84.52 173.735 84.58 173.235 84.58H166.935V90.94H174.915C175.475 90.94 175.935 90.99 176.295 91.09C176.655 91.21 176.935 91.36 177.135 91.54C177.335 91.74 177.465 91.96 177.525 92.2C177.605 92.46 177.645 92.74 177.645 93.04C177.645 93.28 177.605 93.52 177.525 93.76C177.465 94.02 177.335 94.24 177.135 94.42C176.935 94.62 176.655 94.78 176.295 94.9C175.935 95.02 175.475 95.08 174.915 95.08H154.065ZM200.271 95.77C199.631 95.77 199.061 95.58 198.561 95.2C198.081 94.84 197.841 94.16 197.841 93.16V90.31H182.811C182.251 90.31 181.791 90.25 181.431 90.13C181.071 90.01 180.791 89.86 180.591 89.68C180.391 89.48 180.251 89.26 180.171 89.02C180.111 88.76 180.081 88.51 180.081 88.27C180.081 87.97 180.111 87.7 180.171 87.46C180.251 87.2 180.391 86.98 180.591 86.8C180.791 86.6 181.071 86.45 181.431 86.35C181.791 86.23 182.251 86.17 182.811 86.17H200.271C200.831 86.17 201.271 86.23 201.591 86.35C201.911 86.45 202.151 86.6 202.311 86.8C202.491 86.98 202.601 87.2 202.641 87.46C202.681 87.7 202.701 87.97 202.701 88.27V93.16C202.701 93.66 202.631 94.08 202.491 94.42C202.351 94.76 202.171 95.03 201.951 95.23C201.731 95.43 201.471 95.57 201.171 95.65C200.891 95.73 200.591 95.77 200.271 95.77ZM181.881 85C181.541 84.98 181.191 84.9 180.831 84.76C180.491 84.62 180.211 84.35 179.991 83.95C179.631 83.29 179.561 82.69 179.781 82.15C180.001 81.61 180.461 81.17 181.161 80.83C181.701 80.57 182.171 80.33 182.571 80.11C182.991 79.89 183.361 79.65 183.681 79.39C184.001 79.11 184.271 78.78 184.491 78.4C184.671 78.12 184.801 77.75 184.881 77.29H182.541C181.561 77.29 180.911 77.14 180.591 76.84C180.271 76.52 180.111 76.11 180.111 75.61C180.111 75.03 180.271 74.6 180.591 74.32C180.911 74.02 181.561 73.87 182.541 73.87H192.051C193.031 73.87 193.681 74.02 194.001 74.32C194.321 74.6 194.481 75.03 194.481 75.61C194.481 76.11 194.321 76.52 194.001 76.84C193.681 77.14 193.031 77.29 192.051 77.29H190.161C190.281 77.75 190.441 78.12 190.641 78.4C190.921 78.78 191.201 79.1 191.481 79.36C191.781 79.6 192.111 79.82 192.471 80.02C192.831 80.2 193.201 80.39 193.581 80.59C194.281 80.95 194.751 81.38 194.991 81.88C195.251 82.38 195.241 82.97 194.961 83.65C194.801 84.01 194.571 84.29 194.271 84.49C193.991 84.67 193.671 84.79 193.311 84.85C193.091 84.87 192.851 84.86 192.591 84.82C192.351 84.78 192.121 84.7 191.901 84.58C191.321 84.28 190.661 83.85 189.921 83.29C189.181 82.71 188.471 82.04 187.791 81.28C187.231 81.94 186.601 82.55 185.901 83.11C185.221 83.65 184.491 84.12 183.711 84.52C183.431 84.66 183.131 84.78 182.811 84.88C182.511 84.96 182.201 85 181.881 85ZM184.221 72.58C183.741 72.58 183.351 72.54 183.051 72.46C182.771 72.36 182.541 72.24 182.361 72.1C182.201 71.94 182.091 71.77 182.031 71.59C181.971 71.39 181.941 71.2 181.941 71.02C181.941 70.6 182.081 70.23 182.361 69.91C182.661 69.59 183.281 69.43 184.221 69.43H190.641C191.581 69.43 192.191 69.59 192.471 69.91C192.771 70.23 192.921 70.6 192.921 71.02C192.921 71.2 192.891 71.39 192.831 71.59C192.771 71.77 192.651 71.94 192.471 72.1C192.311 72.24 192.081 72.36 191.781 72.46C191.501 72.54 191.121 72.58 190.641 72.58H184.221ZM200.331 84.94C200.011 84.94 199.701 84.9 199.401 84.82C199.121 84.74 198.861 84.6 198.621 84.4C198.401 84.2 198.221 83.93 198.081 83.59C197.961 83.25 197.901 82.82 197.901 82.3V72.31C197.901 71.31 198.141 70.63 198.621 70.27C199.121 69.89 199.691 69.7 200.331 69.7C200.651 69.7 200.951 69.74 201.231 69.82C201.531 69.9 201.791 70.04 202.011 70.24C202.231 70.44 202.411 70.71 202.551 71.05C202.691 71.39 202.761 71.81 202.761 72.31V75.34H204.891C205.451 75.34 205.911 75.41 206.271 75.55C206.631 75.67 206.911 75.83 207.111 76.03C207.311 76.23 207.441 76.46 207.501 76.72C207.581 76.96 207.621 77.2 207.621 77.44C207.621 77.74 207.581 78.02 207.501 78.28C207.441 78.54 207.311 78.77 207.111 78.97C206.911 79.15 206.631 79.3 206.271 79.42C205.911 79.54 205.451 79.6 204.891 79.6H202.761V82.3C202.761 82.82 202.691 83.25 202.551 83.59C202.411 83.93 202.231 84.2 202.011 84.4C201.791 84.6 201.531 84.74 201.231 84.82C200.951 84.9 200.651 84.94 200.331 84.94ZM231.327 85.09C230.687 85.09 230.167 84.91 229.767 84.55C229.387 84.19 229.197 83.49 229.197 82.45V79.63H227.187V82.42C227.187 83.46 226.997 84.16 226.617 84.52C226.257 84.88 225.757 85.06 225.117 85.06C224.477 85.06 223.957 84.88 223.557 84.52C223.177 84.16 222.987 83.46 222.987 82.42V72.31C222.987 71.31 223.177 70.63 223.557 70.27C223.937 69.89 224.447 69.7 225.087 69.7C225.707 69.7 226.207 69.89 226.587 70.27C226.987 70.63 227.187 71.31 227.187 72.31V75.55H229.197V72.31C229.197 71.31 229.387 70.63 229.767 70.27C230.147 69.89 230.657 69.7 231.297 69.7C231.917 69.7 232.417 69.89 232.797 70.27C233.197 70.63 233.397 71.31 233.397 72.31V82.45C233.397 83.49 233.207 84.19 232.827 84.55C232.467 84.91 231.967 85.09 231.327 85.09ZM213.327 95.32C212.767 95.72 212.267 95.86 211.827 95.74C211.407 95.64 211.017 95.45 210.657 95.17C210.437 95.01 210.247 94.8 210.087 94.54C209.947 94.3 209.857 94.04 209.817 93.76C209.797 93.48 209.827 93.19 209.907 92.89C210.007 92.61 210.177 92.36 210.417 92.14C210.757 91.82 211.087 91.52 211.407 91.24C211.747 90.96 212.047 90.68 212.307 90.4C212.587 90.1 212.807 89.78 212.967 89.44C213.127 89.1 213.207 88.7 213.207 88.24V87.97C213.207 87.73 213.237 87.5 213.297 87.28C213.357 87.04 213.467 86.84 213.627 86.68C213.787 86.5 214.017 86.36 214.317 86.26C214.617 86.14 214.997 86.08 215.457 86.08C216.437 86.08 217.117 86.27 217.497 86.65C217.897 87.01 218.097 87.45 218.097 87.97V88.24C218.097 88.7 218.167 89.1 218.307 89.44C218.467 89.78 218.677 90.1 218.937 90.4C219.197 90.68 219.487 90.96 219.807 91.24C220.127 91.52 220.457 91.82 220.797 92.14C221.037 92.36 221.197 92.61 221.277 92.89C221.377 93.19 221.407 93.48 221.367 93.76C221.347 94.04 221.257 94.3 221.097 94.54C220.957 94.8 220.777 95.01 220.557 95.17C220.197 95.45 219.797 95.64 219.357 95.74C218.917 95.86 218.417 95.72 217.857 95.32C217.517 95.06 217.127 94.7 216.687 94.24C216.247 93.78 215.887 93.36 215.607 92.98C215.307 93.36 214.937 93.78 214.497 94.24C214.057 94.7 213.667 95.06 213.327 95.32ZM215.037 81.43C215.437 81.43 215.757 81.37 215.997 81.25C216.237 81.13 216.417 80.98 216.537 80.8C216.677 80.6 216.767 80.39 216.807 80.17C216.847 79.93 216.867 79.71 216.867 79.51C216.867 79.29 216.847 79.07 216.807 78.85C216.767 78.61 216.677 78.39 216.537 78.19C216.417 77.99 216.237 77.83 215.997 77.71C215.757 77.59 215.437 77.53 215.037 77.53C214.637 77.53 214.317 77.59 214.077 77.71C213.857 77.83 213.677 77.99 213.537 78.19C213.397 78.39 213.307 78.61 213.267 78.85C213.227 79.07 213.207 79.29 213.207 79.51C213.207 79.71 213.227 79.93 213.267 80.17C213.307 80.39 213.397 80.6 213.537 80.8C213.677 80.98 213.857 81.13 214.077 81.25C214.317 81.37 214.637 81.43 215.037 81.43ZM215.037 84.73C214.157 84.73 213.367 84.64 212.667 84.46C211.967 84.26 211.357 83.96 210.837 83.56C210.337 83.14 209.947 82.61 209.667 81.97C209.407 81.33 209.277 80.57 209.277 79.69C209.277 79.17 209.327 78.7 209.427 78.28C209.547 77.86 209.707 77.47 209.907 77.11C209.127 77.05 208.607 76.89 208.347 76.63C208.107 76.35 207.987 75.99 207.987 75.55C207.987 75.25 208.017 75 208.077 74.8C208.157 74.58 208.297 74.4 208.497 74.26C208.697 74.1 208.977 73.99 209.337 73.93C209.697 73.85 210.157 73.81 210.717 73.81H219.237C219.797 73.81 220.257 73.85 220.617 73.93C220.977 73.99 221.257 74.1 221.457 74.26C221.657 74.4 221.787 74.58 221.847 74.8C221.927 75 221.967 75.25 221.967 75.55C221.967 75.97 221.847 76.32 221.607 76.6C221.367 76.86 220.887 77.03 220.167 77.11C220.367 77.45 220.517 77.84 220.617 78.28C220.737 78.7 220.797 79.17 220.797 79.69C220.797 80.63 220.657 81.43 220.377 82.09C220.117 82.73 219.727 83.25 219.207 83.65C218.707 84.03 218.097 84.31 217.377 84.49C216.677 84.65 215.897 84.73 215.037 84.73ZM225.327 95.32C224.767 95.72 224.267 95.86 223.827 95.74C223.407 95.64 223.017 95.45 222.657 95.17C222.437 95.01 222.247 94.8 222.087 94.54C221.947 94.3 221.857 94.04 221.817 93.76C221.797 93.48 221.827 93.19 221.907 92.89C222.007 92.61 222.177 92.36 222.417 92.14C222.757 91.82 223.087 91.52 223.407 91.24C223.747 90.96 224.047 90.68 224.307 90.4C224.587 90.1 224.807 89.78 224.967 89.44C225.127 89.1 225.207 88.7 225.207 88.24V87.97C225.207 87.73 225.237 87.5 225.297 87.28C225.357 87.04 225.467 86.84 225.627 86.68C225.787 86.5 226.017 86.36 226.317 86.26C226.617 86.14 226.997 86.08 227.457 86.08C228.437 86.08 229.117 86.27 229.497 86.65C229.897 87.01 230.097 87.45 230.097 87.97V88.24C230.097 88.7 230.167 89.1 230.307 89.44C230.467 89.78 230.677 90.1 230.937 90.4C231.197 90.68 231.487 90.96 231.807 91.24C232.127 91.52 232.457 91.82 232.797 92.14C233.037 92.36 233.197 92.61 233.277 92.89C233.377 93.19 233.407 93.48 233.367 93.76C233.347 94.04 233.257 94.3 233.097 94.54C232.957 94.8 232.777 95.01 232.557 95.17C232.197 95.45 231.797 95.64 231.357 95.74C230.917 95.86 230.417 95.72 229.857 95.32C229.517 95.06 229.127 94.7 228.687 94.24C228.247 93.78 227.887 93.36 227.607 92.98C227.307 93.36 226.937 93.78 226.497 94.24C226.057 94.7 225.667 95.06 225.327 95.32ZM212.607 72.52C211.487 72.52 210.747 72.39 210.387 72.13C210.047 71.85 209.877 71.46 209.877 70.96C209.877 70.38 210.047 69.97 210.387 69.73C210.747 69.47 211.487 69.34 212.607 69.34H217.347C218.467 69.34 219.197 69.47 219.537 69.73C219.897 69.97 220.077 70.38 220.077 70.96C220.077 71.46 219.897 71.85 219.537 72.13C219.197 72.39 218.467 72.52 217.347 72.52H212.607ZM244.442 95.14C243.282 95.14 242.312 95.01 241.532 94.75C240.752 94.49 240.112 94.1 239.612 93.58C239.132 93.08 238.772 92.45 238.532 91.69C238.292 90.95 238.142 90.09 238.082 89.11C238.062 88.93 238.052 88.51 238.052 87.85C238.052 87.17 238.042 86.37 238.022 85.45C238.022 84.53 238.022 83.55 238.022 82.51C238.022 81.47 238.022 80.49 238.022 79.57C238.042 78.65 238.052 77.86 238.052 77.2C238.052 76.54 238.062 76.12 238.082 75.94C238.142 74.94 238.282 74.06 238.502 73.3C238.742 72.54 239.102 71.9 239.582 71.38C240.082 70.86 240.722 70.47 241.502 70.21C242.282 69.93 243.262 69.79 244.442 69.79C245.542 69.79 246.482 69.93 247.262 70.21C248.042 70.47 248.682 70.86 249.182 71.38C249.682 71.9 250.062 72.55 250.322 73.33C250.582 74.09 250.742 74.96 250.802 75.94C250.802 76.12 250.802 76.55 250.802 77.23C250.822 77.89 250.832 78.68 250.832 79.6C250.832 80.52 250.832 81.5 250.832 82.54C250.852 83.58 250.852 84.56 250.832 85.48C250.832 86.4 250.822 87.2 250.802 87.88C250.802 88.54 250.802 88.95 250.802 89.11C250.762 91.13 250.252 92.64 249.272 93.64C248.312 94.64 246.702 95.14 244.442 95.14ZM244.442 91.06C244.602 91.06 244.762 91.04 244.922 91C245.102 90.98 245.262 90.9 245.402 90.76C245.542 90.62 245.662 90.43 245.762 90.19C245.862 89.93 245.922 89.57 245.942 89.11C245.942 88.93 245.942 88.5 245.942 87.82C245.962 87.12 245.972 86.31 245.972 85.39V79.48C245.972 78.54 245.962 77.74 245.942 77.08C245.942 76.42 245.942 76 245.942 75.82C245.942 75.4 245.892 75.06 245.792 74.8C245.712 74.54 245.592 74.35 245.432 74.23C245.292 74.09 245.132 74 244.952 73.96C244.772 73.92 244.602 73.9 244.442 73.9C244.282 73.9 244.112 73.93 243.932 73.99C243.772 74.03 243.622 74.12 243.482 74.26C243.342 74.4 243.222 74.61 243.122 74.89C243.022 75.15 242.962 75.49 242.942 75.91C242.922 76.09 242.912 76.52 242.912 77.2C242.912 77.88 242.902 78.68 242.882 79.6C242.882 80.52 242.882 81.5 242.882 82.54C242.882 83.58 242.882 84.56 242.882 85.48C242.902 86.4 242.912 87.2 242.912 87.88C242.912 88.54 242.922 88.95 242.942 89.11C242.942 89.57 242.982 89.93 243.062 90.19C243.162 90.43 243.282 90.62 243.422 90.76C243.562 90.9 243.722 90.98 243.902 91C244.082 91.04 244.262 91.06 244.442 91.06ZM259.232 95.44C258.912 95.44 258.602 95.4 258.302 95.32C258.022 95.24 257.762 95.1 257.522 94.9C257.302 94.7 257.122 94.43 256.982 94.09C256.862 93.75 256.802 93.32 256.802 92.8V83.53H254.372C253.812 83.53 253.362 83.48 253.022 83.38C252.682 83.26 252.412 83.11 252.212 82.93C252.032 82.73 251.912 82.51 251.852 82.27C251.792 82.01 251.762 81.73 251.762 81.43C251.762 81.19 251.792 80.95 251.852 80.71C251.912 80.45 252.032 80.23 252.212 80.05C252.412 79.85 252.682 79.69 253.022 79.57C253.362 79.45 253.812 79.39 254.372 79.39H256.802V72.31C256.802 71.31 257.042 70.63 257.522 70.27C258.022 69.89 258.592 69.7 259.232 69.7C259.552 69.7 259.852 69.74 260.132 69.82C260.432 69.9 260.692 70.04 260.912 70.24C261.132 70.44 261.312 70.71 261.452 71.05C261.592 71.39 261.662 71.81 261.662 72.31V92.8C261.662 93.32 261.592 93.75 261.452 94.09C261.312 94.43 261.132 94.7 260.912 94.9C260.692 95.1 260.432 95.24 260.132 95.32C259.852 95.4 259.552 95.44 259.232 95.44ZM268.088 95.08C267.528 95.08 267.068 95.02 266.708 94.9C266.348 94.78 266.068 94.62 265.868 94.42C265.668 94.24 265.528 94.02 265.448 93.76C265.388 93.52 265.358 93.28 265.358 93.04C265.358 92.74 265.388 92.46 265.448 92.2C265.528 91.96 265.668 91.74 265.868 91.54C266.068 91.36 266.348 91.21 266.708 91.09C267.068 90.99 267.528 90.94 268.088 90.94H270.638V83.92C269.458 83.42 268.578 82.66 267.998 81.64C267.418 80.62 267.128 79.51 267.128 78.31V76.51C267.128 75.71 267.278 74.92 267.578 74.14C267.878 73.36 268.308 72.67 268.868 72.07C269.448 71.45 270.128 70.95 270.908 70.57C271.708 70.19 272.608 70 273.608 70H283.388C284.368 70 285.258 70.19 286.058 70.57C286.858 70.95 287.538 71.45 288.098 72.07C288.678 72.67 289.118 73.36 289.418 74.14C289.718 74.92 289.868 75.71 289.868 76.51V78.31C289.868 79.51 289.578 80.62 288.998 81.64C288.418 82.64 287.558 83.39 286.418 83.89V90.94H288.938C289.498 90.94 289.958 90.99 290.318 91.09C290.678 91.21 290.958 91.36 291.158 91.54C291.358 91.74 291.488 91.96 291.548 92.2C291.628 92.46 291.668 92.74 291.668 93.04C291.668 93.28 291.628 93.52 291.548 93.76C291.488 94.02 291.358 94.24 291.158 94.42C290.958 94.62 290.678 94.78 290.318 94.9C289.958 95.02 289.498 95.08 288.938 95.08H268.088ZM281.558 90.94V84.46H275.498V90.94H281.558ZM282.488 80.29C283.348 80.25 283.978 79.97 284.378 79.45C284.798 78.93 285.008 78.3 285.008 77.56V76.9C285.008 76.14 284.798 75.5 284.378 74.98C283.978 74.44 283.318 74.17 282.398 74.17H274.598C273.678 74.17 273.008 74.44 272.588 74.98C272.188 75.5 271.988 76.14 271.988 76.9V77.56C271.988 78.3 272.188 78.93 272.588 79.45C273.008 79.97 273.648 80.25 274.508 80.29H282.488ZM299.084 71.02C299.564 71.46 299.804 72.02 299.804 72.7L299.294 85.81C299.274 86.37 299.024 86.81 298.544 87.13C298.084 87.45 297.604 87.61 297.104 87.61C296.444 87.61 295.904 87.46 295.484 87.16C295.084 86.84 294.874 86.39 294.854 85.81L294.404 72.7C294.384 72.02 294.604 71.46 295.064 71.02C295.524 70.56 296.204 70.33 297.104 70.33C297.964 70.33 298.624 70.56 299.084 71.02ZM295.004 93.4C294.444 92.96 294.164 92.34 294.164 91.54C294.164 90.74 294.444 90.11 295.004 89.65C295.564 89.19 296.274 88.96 297.134 88.96C297.994 88.96 298.704 89.19 299.264 89.65C299.844 90.11 300.134 90.74 300.134 91.54C300.134 92.34 299.844 92.96 299.264 93.4C298.704 93.86 297.994 94.09 297.134 94.09C296.274 94.09 295.564 93.86 295.004 93.4Z" fill="#FFDAE6"/>
<defs>
<filter id="filter0_i_20_7" x="51.0625" y="93.1246" width="84.5132" height="61.8489" filterUnits="userSpaceOnUse" color-interpolation-filters="sRGB">
<feFlood flood-opacity="0" result="BackgroundImageFix"/>
<feBlend mode="normal" in="SourceGraphic" in2="BackgroundImageFix" result="shape"/>
<feColorMatrix in="SourceAlpha" type="matrix" values="0 0 0 0 0 0 0 0 0 0 0 0 0 0 0 0 0 0 127 0" result="hardAlpha"/>
<feOffset dy="4"/>
<feGaussianBlur stdDeviation="2"/>
<feComposite in2="hardAlpha" operator="arithmetic" k2="-1" k3="1"/>
<feColorMatrix type="matrix" values="0 0 0 0 0 0 0 0 0 0 0 0 0 0 0 0 0 0 0.25 0"/>
<feBlend mode="normal" in2="shape" result="effect1_innerShadow_20_7"/>
</filter>
<filter id="filter1_i_20_7" x="14.4612" y="0" width="304.539" height="134.015" filterUnits="userSpaceOnUse" color-interpolation-filters="sRGB">
<feFlood flood-opacity="0" result="BackgroundImageFix"/>
<feBlend mode="normal" in="SourceGraphic" in2="BackgroundImageFix" result="shape"/>
<feColorMatrix in="SourceAlpha" type="matrix" values="0 0 0 0 0 0 0 0 0 0 0 0 0 0 0 0 0 0 127 0" result="hardAlpha"/>
<feOffset dy="4"/>
<feGaussianBlur stdDeviation="4"/>
<feComposite in2="hardAlpha" operator="arithmetic" k2="-1" k3="1"/>
<feColorMatrix type="matrix" values="0 0 0 0 0 0 0 0 0 0 0 0 0 0 0 0 0 0 0.25 0"/>
<feBlend mode="normal" in2="shape" result="effect1_innerShadow_20_7"/>
</filter>
</defs>
</svg>
