<svg width="319" height="167" viewBox="0 0 319 167" fill="none" xmlns="http://www.w3.org/2000/svg">
<g filter="url(#filter0_i_20_6)">
<path d="M59.1802 150.141C55.2198 151.878 50.9232 150.763 51.066 148.036L53.6879 97.9746C53.8446 94.9826 59.1328 92.3424 62.9736 93.3387L133.053 111.517C136.894 112.513 136.227 116.352 131.882 118.257L59.1802 150.141Z" fill="#C72A5F"/>
</g>
<g filter="url(#filter1_i_20_6)">
<rect x="14.4612" width="304.539" height="130.015" rx="50" fill="#C72A5F"/>
</g>
<path d="M133.258 57.77C132.618 57.77 132.048 57.58 131.548 57.2C131.068 56.84 130.828 56.16 130.828 55.16V51.68H115.798C115.238 51.68 114.778 51.62 114.418 51.5C114.058 51.38 113.778 51.23 113.578 51.05C113.378 50.85 113.238 50.63 113.158 50.39C113.098 50.13 113.068 49.88 113.068 49.64C113.068 49.34 113.098 49.07 113.158 48.83C113.238 48.57 113.378 48.35 113.578 48.17C113.778 47.97 114.058 47.82 114.418 47.72C114.778 47.6 115.238 47.54 115.798 47.54H133.258C133.818 47.54 134.258 47.6 134.578 47.72C134.898 47.82 135.138 47.97 135.298 48.17C135.478 48.35 135.588 48.57 135.628 48.83C135.668 49.07 135.688 49.34 135.688 49.64V55.16C135.688 55.66 135.618 56.08 135.478 56.42C135.338 56.76 135.158 57.03 134.938 57.23C134.718 57.43 134.458 57.57 134.158 57.65C133.878 57.73 133.578 57.77 133.258 57.77ZM114.598 45.77C114.038 45.77 113.598 45.72 113.278 45.62C112.958 45.5 112.708 45.35 112.528 45.17C112.368 44.97 112.268 44.75 112.228 44.51C112.188 44.25 112.168 43.97 112.168 43.67V34.46C112.168 34.08 112.188 33.74 112.228 33.44C112.268 33.12 112.368 32.86 112.528 32.66C112.708 32.44 112.958 32.28 113.278 32.18C113.598 32.06 114.038 32 114.598 32H122.308C122.868 32 123.328 32.06 123.688 32.18C124.048 32.28 124.328 32.43 124.528 32.63C124.728 32.81 124.858 33.03 124.918 33.29C124.998 33.53 125.038 33.8 125.038 34.1C125.038 34.34 124.998 34.58 124.918 34.82C124.858 35.06 124.728 35.28 124.528 35.48C124.328 35.66 124.048 35.81 123.688 35.93C123.328 36.03 122.868 36.08 122.308 36.08H117.028V41.69H122.908C123.468 41.69 123.928 41.75 124.288 41.87C124.648 41.97 124.928 42.12 125.128 42.32C125.328 42.5 125.458 42.71 125.518 42.95C125.598 43.19 125.638 43.43 125.638 43.67C125.638 43.97 125.598 44.25 125.518 44.51C125.458 44.75 125.328 44.97 125.128 45.17C124.928 45.35 124.648 45.5 124.288 45.62C123.928 45.72 123.468 45.77 122.908 45.77H114.598ZM133.348 46.31C133.028 46.31 132.718 46.27 132.418 46.19C132.138 46.11 131.878 45.97 131.638 45.77C131.418 45.57 131.238 45.3 131.098 44.96C130.978 44.62 130.918 44.19 130.918 43.67V40.82H127.498C126.938 40.82 126.488 40.77 126.148 40.67C125.808 40.55 125.538 40.39 125.338 40.19C125.158 39.99 125.038 39.77 124.978 39.53C124.918 39.27 124.888 38.99 124.888 38.69C124.888 38.45 124.918 38.21 124.978 37.97C125.038 37.71 125.158 37.48 125.338 37.28C125.538 37.08 125.808 36.92 126.148 36.8C126.488 36.68 126.938 36.62 127.498 36.62H130.918V34.31C130.918 33.31 131.158 32.63 131.638 32.27C132.138 31.89 132.708 31.7 133.348 31.7C133.668 31.7 133.968 31.74 134.248 31.82C134.548 31.9 134.808 32.04 135.028 32.24C135.248 32.44 135.428 32.71 135.568 33.05C135.708 33.39 135.778 33.81 135.778 34.31V43.67C135.778 44.19 135.708 44.62 135.568 44.96C135.428 45.3 135.248 45.57 135.028 45.77C134.808 45.97 134.548 46.11 134.248 46.19C133.968 46.27 133.668 46.31 133.348 46.31ZM153.244 57.44C152.924 57.44 152.614 57.4 152.314 57.32C152.034 57.24 151.774 57.1 151.534 56.9C151.314 56.7 151.134 56.43 150.994 56.09C150.874 55.75 150.814 55.32 150.814 54.8V50.96H142.804C142.244 50.96 141.784 50.9 141.424 50.78C141.064 50.66 140.784 50.51 140.584 50.33C140.384 50.13 140.244 49.91 140.164 49.67C140.104 49.41 140.074 49.16 140.074 48.92C140.074 48.62 140.104 48.35 140.164 48.11C140.244 47.85 140.384 47.63 140.584 47.45C140.784 47.25 141.064 47.1 141.424 47C141.784 46.88 142.244 46.82 142.804 46.82H163.654C164.214 46.82 164.674 46.88 165.034 47C165.394 47.1 165.674 47.25 165.874 47.45C166.074 47.63 166.204 47.85 166.264 48.11C166.344 48.35 166.384 48.62 166.384 48.92C166.384 49.16 166.344 49.41 166.264 49.67C166.204 49.91 166.074 50.13 165.874 50.33C165.674 50.51 165.394 50.66 165.034 50.78C164.674 50.9 164.214 50.96 163.654 50.96H155.674V54.8C155.674 55.32 155.604 55.75 155.464 56.09C155.324 56.43 155.144 56.7 154.924 56.9C154.704 57.1 154.444 57.24 154.144 57.32C153.864 57.4 153.564 57.44 153.244 57.44ZM148.114 44.24C145.994 44.22 144.414 43.76 143.374 42.86C142.354 41.94 141.844 40.67 141.844 39.05V37.55C141.844 36.75 141.984 36.01 142.264 35.33C142.564 34.65 142.994 34.07 143.554 33.59C144.114 33.09 144.784 32.7 145.564 32.42C146.344 32.14 147.234 32 148.234 32H158.194C159.174 32 160.054 32.14 160.834 32.42C161.634 32.7 162.314 33.09 162.874 33.59C163.434 34.07 163.854 34.65 164.134 35.33C164.434 36.01 164.584 36.75 164.584 37.55V39.05C164.584 40.67 164.074 41.94 163.054 42.86C162.034 43.76 160.464 44.22 158.344 44.24H148.114ZM157.294 40.13C158.154 40.09 158.774 39.96 159.154 39.74C159.534 39.52 159.724 39.04 159.724 38.3V37.94C159.724 37.18 159.534 36.69 159.154 36.47C158.774 36.23 158.124 36.11 157.204 36.11H149.224C148.304 36.11 147.654 36.23 147.274 36.47C146.894 36.69 146.704 37.18 146.704 37.94V38.3C146.704 39.04 146.894 39.52 147.274 39.74C147.654 39.96 148.274 40.09 149.134 40.13H157.294ZM173.11 58.04C172.55 58.04 172.11 57.99 171.79 57.89C171.47 57.81 171.22 57.68 171.04 57.5C170.88 57.34 170.78 57.14 170.74 56.9C170.7 56.66 170.68 56.4 170.68 56.12V52.16C170.68 51.96 170.7 51.77 170.74 51.59C170.8 51.39 170.91 51.22 171.07 51.08C171.23 50.92 171.46 50.8 171.76 50.72C172.06 50.62 172.46 50.57 172.96 50.57H187.93V49.46H172.87C172.37 49.46 171.97 49.42 171.67 49.34C171.37 49.26 171.14 49.15 170.98 49.01C170.82 48.85 170.71 48.67 170.65 48.47C170.61 48.25 170.59 48.02 170.59 47.78C170.59 47.58 170.61 47.38 170.65 47.18C170.71 46.98 170.82 46.8 170.98 46.64C171.14 46.46 171.37 46.32 171.67 46.22C171.97 46.12 172.37 46.07 172.87 46.07H190.48C190.96 46.07 191.35 46.12 191.65 46.22C191.97 46.32 192.21 46.45 192.37 46.61C192.53 46.77 192.64 46.95 192.7 47.15C192.76 47.35 192.79 47.55 192.79 47.75V52.22C192.79 52.7 192.64 53.06 192.34 53.3C192.06 53.56 191.44 53.69 190.48 53.69H175.54V54.8H190.72C191.28 54.8 191.74 54.84 192.1 54.92C192.46 55 192.74 55.11 192.94 55.25C193.14 55.39 193.27 55.56 193.33 55.76C193.41 55.96 193.45 56.18 193.45 56.42C193.45 56.7 193.41 56.94 193.33 57.14C193.27 57.34 193.14 57.51 192.94 57.65C192.74 57.79 192.46 57.89 192.1 57.95C191.74 58.01 191.28 58.04 190.72 58.04H173.11ZM170.83 44.87C170.33 44.87 169.93 44.83 169.63 44.75C169.33 44.67 169.1 44.56 168.94 44.42C168.78 44.28 168.67 44.11 168.61 43.91C168.57 43.69 168.55 43.44 168.55 43.16C168.55 42.94 168.57 42.73 168.61 42.53C168.67 42.33 168.78 42.15 168.94 41.99C169.1 41.83 169.33 41.71 169.63 41.63C169.93 41.53 170.33 41.48 170.83 41.48H192.64C193.14 41.48 193.54 41.53 193.84 41.63C194.14 41.71 194.37 41.83 194.53 41.99C194.69 42.15 194.79 42.33 194.83 42.53C194.89 42.73 194.92 42.94 194.92 43.16C194.92 43.44 194.89 43.69 194.83 43.91C194.79 44.11 194.69 44.28 194.53 44.42C194.37 44.56 194.14 44.67 193.84 44.75C193.54 44.83 193.14 44.87 192.64 44.87H170.83ZM173.17 40.19C172.61 40.19 172.17 40.13 171.85 40.01C171.53 39.89 171.29 39.74 171.13 39.56C170.99 39.36 170.9 39.13 170.86 38.87C170.82 38.61 170.8 38.33 170.8 38.03V34.13C170.8 33.83 170.82 33.56 170.86 33.32C170.9 33.06 170.99 32.83 171.13 32.63C171.29 32.43 171.53 32.28 171.85 32.18C172.17 32.06 172.61 32 173.17 32H189.88C190.38 32 190.78 32.05 191.08 32.15C191.38 32.23 191.61 32.35 191.77 32.51C191.93 32.67 192.03 32.86 192.07 33.08C192.13 33.28 192.16 33.51 192.16 33.77C192.16 33.99 192.13 34.2 192.07 34.4C192.03 34.6 191.93 34.78 191.77 34.94C191.61 35.1 191.38 35.23 191.08 35.33C190.78 35.43 190.38 35.48 189.88 35.48H175.66V36.71H189.88C190.38 36.71 190.78 36.76 191.08 36.86C191.38 36.96 191.61 37.1 191.77 37.28C191.93 37.44 192.03 37.63 192.07 37.85C192.13 38.05 192.16 38.25 192.16 38.45C192.16 38.71 192.13 38.95 192.07 39.17C192.03 39.37 191.93 39.55 191.77 39.71C191.61 39.85 191.38 39.97 191.08 40.07C190.78 40.15 190.38 40.19 189.88 40.19H173.17ZM205.456 49.1C203.136 49.1 201.376 48.59 200.176 47.57C198.976 46.55 198.316 45.05 198.196 43.07C198.176 42.81 198.156 42.45 198.136 41.99C198.136 41.51 198.136 41.02 198.136 40.52C198.136 40 198.136 39.51 198.136 39.05C198.156 38.57 198.176 38.2 198.196 37.94C198.296 35.94 198.936 34.42 200.116 33.38C201.316 32.32 203.096 31.79 205.456 31.79C207.696 31.79 209.426 32.32 210.646 33.38C211.886 34.42 212.576 35.94 212.716 37.94C212.736 38.18 212.746 38.54 212.746 39.02V41.96C212.746 42.42 212.736 42.79 212.716 43.07C212.676 45.09 212.026 46.6 210.766 47.6C209.506 48.6 207.736 49.1 205.456 49.1ZM199.816 57.08C199.256 57.08 198.796 57.02 198.436 56.9C198.076 56.78 197.796 56.62 197.596 56.42C197.396 56.24 197.256 56.02 197.176 55.76C197.116 55.52 197.086 55.28 197.086 55.04C197.086 54.74 197.116 54.46 197.176 54.2C197.256 53.96 197.396 53.74 197.596 53.54C197.796 53.36 198.076 53.21 198.436 53.09C198.796 52.99 199.256 52.94 199.816 52.94H211.816C212.376 52.94 212.836 52.99 213.196 53.09C213.556 53.21 213.836 53.36 214.036 53.54C214.236 53.74 214.366 53.96 214.426 54.2C214.506 54.46 214.546 54.74 214.546 55.04C214.546 55.28 214.506 55.52 214.426 55.76C214.366 56.02 214.236 56.24 214.036 56.42C213.836 56.62 213.556 56.78 213.196 56.9C212.836 57.02 212.376 57.08 211.816 57.08H199.816ZM205.456 45.02C205.616 45.02 205.826 45.01 206.086 44.99C206.346 44.95 206.606 44.86 206.866 44.72C207.126 44.58 207.346 44.39 207.526 44.15C207.726 43.89 207.836 43.53 207.856 43.07C207.876 42.79 207.886 42.41 207.886 41.93V38.93C207.886 38.45 207.876 38.08 207.856 37.82C207.856 37.4 207.756 37.06 207.556 36.8C207.376 36.54 207.156 36.35 206.896 36.23C206.636 36.09 206.366 36 206.086 35.96C205.826 35.92 205.616 35.9 205.456 35.9C205.296 35.9 205.086 35.93 204.826 35.99C204.566 36.03 204.306 36.12 204.046 36.26C203.786 36.4 203.556 36.61 203.356 36.89C203.176 37.15 203.076 37.49 203.056 37.91C203.036 38.19 203.016 38.57 202.996 39.05C202.996 39.53 202.996 40.03 202.996 40.55C202.996 41.05 202.996 41.53 202.996 41.99C203.016 42.45 203.036 42.81 203.056 43.07C203.056 43.53 203.146 43.89 203.326 44.15C203.506 44.39 203.726 44.58 203.986 44.72C204.246 44.86 204.506 44.95 204.766 44.99C205.046 45.01 205.276 45.02 205.456 45.02ZM219.166 57.44C218.846 57.44 218.536 57.4 218.236 57.32C217.956 57.24 217.696 57.1 217.456 56.9C217.236 56.7 217.056 56.43 216.916 56.09C216.796 55.75 216.736 55.32 216.736 54.8V34.31C216.736 33.31 216.976 32.63 217.456 32.27C217.956 31.89 218.526 31.7 219.166 31.7C219.486 31.7 219.786 31.74 220.066 31.82C220.366 31.9 220.626 32.04 220.846 32.24C221.066 32.44 221.246 32.71 221.386 33.05C221.526 33.39 221.596 33.81 221.596 34.31V54.8C221.596 55.32 221.526 55.75 221.386 56.09C221.246 56.43 221.066 56.7 220.846 56.9C220.626 57.1 220.366 57.24 220.066 57.32C219.786 57.4 219.486 57.44 219.166 57.44ZM49.5279 90.71C50.2479 90.71 50.7779 90.89 51.1179 91.25C51.4579 91.61 51.6279 92.07 51.6279 92.63C51.6279 93.11 51.4579 93.53 51.1179 93.89C50.7979 94.27 50.2679 94.46 49.5279 94.46H37.5579C36.7979 94.46 36.1979 94.22 35.7579 93.74C35.3179 93.26 35.0979 92.69 35.0979 92.03C35.0979 91.55 35.2779 91.03 35.6379 90.47C36.5179 89.27 38.2379 87.53 40.7979 85.25C42.6179 83.63 43.9679 82.29 44.8479 81.23C45.7479 80.17 46.1979 79.16 46.1979 78.2C46.1979 77.36 46.0279 76.68 45.6879 76.16C45.3479 75.62 44.6579 75.35 43.6179 75.35C42.7379 75.35 41.9979 75.57 41.3979 76.01C40.8179 76.43 40.5279 77.04 40.5279 77.84C40.5279 78.32 40.3179 78.72 39.8979 79.04C39.4979 79.36 38.9279 79.52 38.1879 79.52C37.4879 79.52 36.8979 79.35 36.4179 79.01C35.9579 78.65 35.7279 78.09 35.7279 77.33C35.7279 76.19 36.0879 75.18 36.8079 74.3C37.5279 73.42 38.4779 72.74 39.6579 72.26C40.8579 71.78 42.1279 71.54 43.4679 71.54C45.9079 71.54 47.8179 72.12 49.1979 73.28C50.5779 74.44 51.2679 76 51.2679 77.96C51.2679 79.06 51.0179 80.1 50.5179 81.08C50.0179 82.06 49.3679 82.99 48.5679 83.87C47.7679 84.73 46.7079 85.76 45.3879 86.96L44.6679 87.62C43.2679 88.86 42.2079 89.89 41.4879 90.71H49.5279ZM63.5525 94.61C60.8525 94.61 58.7925 94.05 57.3725 92.93C55.9725 91.81 55.2725 90 55.2725 87.5V78.65C55.2725 76.15 55.9725 74.34 57.3725 73.22C58.7925 72.1 60.8525 71.54 63.5525 71.54C69.1325 71.54 71.9225 73.94 71.9225 78.74V87.5C71.8025 92.24 69.0125 94.61 63.5525 94.61ZM60.4625 87.53C60.4625 88.75 60.6725 89.62 61.0925 90.14C61.5125 90.64 62.3325 90.89 63.5525 90.89C64.7525 90.89 65.5725 90.63 66.0125 90.11C66.4725 89.57 66.7025 88.71 66.7025 87.53V78.68C66.6625 77.82 66.5525 77.15 66.3725 76.67C66.2125 76.19 65.9125 75.84 65.4725 75.62C65.0325 75.38 64.3925 75.26 63.5525 75.26C62.3325 75.26 61.5125 75.52 61.0925 76.04C60.6725 76.56 60.4625 77.44 60.4625 78.68V87.53ZM89.9576 90.71C90.6776 90.71 91.2076 90.89 91.5476 91.25C91.8876 91.61 92.0576 92.07 92.0576 92.63C92.0576 93.11 91.8876 93.53 91.5476 93.89C91.2276 94.27 90.6976 94.46 89.9576 94.46H77.9876C77.2276 94.46 76.6276 94.22 76.1876 93.74C75.7476 93.26 75.5276 92.69 75.5276 92.03C75.5276 91.55 75.7076 91.03 76.0676 90.47C76.9476 89.27 78.6676 87.53 81.2276 85.25C83.0476 83.63 84.3976 82.29 85.2776 81.23C86.1776 80.17 86.6276 79.16 86.6276 78.2C86.6276 77.36 86.4576 76.68 86.1176 76.16C85.7776 75.62 85.0876 75.35 84.0476 75.35C83.1676 75.35 82.4276 75.57 81.8276 76.01C81.2476 76.43 80.9576 77.04 80.9576 77.84C80.9576 78.32 80.7476 78.72 80.3276 79.04C79.9276 79.36 79.3576 79.52 78.6176 79.52C77.9176 79.52 77.3276 79.35 76.8476 79.01C76.3876 78.65 76.1576 78.09 76.1576 77.33C76.1576 76.19 76.5176 75.18 77.2376 74.3C77.9576 73.42 78.9076 72.74 80.0876 72.26C81.2876 71.78 82.5576 71.54 83.8976 71.54C86.3376 71.54 88.2476 72.12 89.6276 73.28C91.0076 74.44 91.6976 76 91.6976 77.96C91.6976 79.06 91.4476 80.1 90.9476 81.08C90.4476 82.06 89.7976 82.99 88.9976 83.87C88.1976 84.73 87.1376 85.76 85.8176 86.96L85.0976 87.62C83.6976 88.86 82.6376 89.89 81.9176 90.71H89.9576ZM110.784 86.42C111.604 86.42 112.164 86.59 112.464 86.93C112.764 87.25 112.914 87.69 112.914 88.25C112.914 88.83 112.754 89.29 112.434 89.63C112.134 89.97 111.584 90.14 110.784 90.14H109.344V92.18C109.344 92.78 109.144 93.31 108.744 93.77C108.364 94.23 107.694 94.46 106.734 94.46C105.774 94.46 105.094 94.23 104.694 93.77C104.314 93.31 104.124 92.78 104.124 92.18V90.14H95.0939C94.5539 90.14 94.1439 89.97 93.8639 89.63C93.5839 89.29 93.4439 88.88 93.4439 88.4C93.4439 87.96 93.5639 87.52 93.8039 87.08L102.024 72.74C102.484 71.94 103.144 71.54 104.004 71.54C104.384 71.54 104.794 71.64 105.234 71.84C106.114 72.26 106.554 72.89 106.554 73.73C106.554 74.17 106.414 74.64 106.134 75.14L99.5039 86.42H104.124V81.83C104.124 81.11 104.334 80.52 104.754 80.06C105.174 79.6 105.834 79.37 106.734 79.37C107.614 79.37 108.264 79.6 108.684 80.06C109.124 80.52 109.344 81.11 109.344 81.83V86.42H110.784ZM118.584 95.33C118.204 94.93 118.004 94.43 117.984 93.83C117.964 93.23 118.154 92.68 118.554 92.18C119.114 91.5 119.554 90.85 119.874 90.23C120.194 89.61 120.434 88.98 120.594 88.34C120.754 87.7 120.854 87.04 120.894 86.36C120.954 85.66 120.984 84.89 120.984 84.05V75.2H115.944C115.384 75.2 114.924 75.15 114.564 75.05C114.204 74.93 113.924 74.78 113.724 74.6C113.524 74.4 113.384 74.18 113.304 73.94C113.244 73.68 113.214 73.4 113.214 73.1C113.214 72.86 113.244 72.62 113.304 72.38C113.364 72.12 113.484 71.9 113.664 71.72C113.864 71.52 114.134 71.36 114.474 71.24C114.814 71.12 115.264 71.06 115.824 71.06H123.654C124.194 71.06 124.614 71.12 124.914 71.24C125.214 71.34 125.444 71.49 125.604 71.69C125.764 71.87 125.864 72.1 125.904 72.38C125.944 72.66 125.964 72.98 125.964 73.34V85.04C125.964 85.56 125.904 86.27 125.784 87.17C125.684 88.07 125.494 89.01 125.214 89.99C124.954 90.97 124.594 91.93 124.134 92.87C123.694 93.81 123.144 94.58 122.484 95.18C122.204 95.44 121.894 95.65 121.554 95.81C121.234 95.99 120.894 96.09 120.534 96.11C120.194 96.15 119.854 96.11 119.514 95.99C119.194 95.87 118.884 95.65 118.584 95.33ZM133.614 96.44C133.294 96.44 132.984 96.4 132.684 96.32C132.404 96.24 132.144 96.1 131.904 95.9C131.684 95.7 131.504 95.43 131.364 95.09C131.244 94.75 131.184 94.32 131.184 93.8V73.31C131.184 72.31 131.424 71.63 131.904 71.27C132.404 70.89 132.974 70.7 133.614 70.7C133.934 70.7 134.234 70.74 134.514 70.82C134.814 70.9 135.074 71.04 135.294 71.24C135.514 71.44 135.694 71.71 135.834 72.05C135.974 72.39 136.044 72.81 136.044 73.31V80.51H138.414C138.974 80.51 139.434 80.58 139.794 80.72C140.154 80.84 140.434 81 140.634 81.2C140.834 81.4 140.964 81.63 141.024 81.89C141.104 82.13 141.144 82.37 141.144 82.61C141.144 82.91 141.104 83.19 141.024 83.45C140.964 83.71 140.834 83.94 140.634 84.14C140.434 84.32 140.154 84.47 139.794 84.59C139.434 84.71 138.974 84.77 138.414 84.77H136.044V93.8C136.044 94.32 135.974 94.75 135.834 95.09C135.694 95.43 135.514 95.7 135.294 95.9C135.074 96.1 134.814 96.24 134.514 96.32C134.234 96.4 133.934 96.44 133.614 96.44ZM155.634 97.04C155.074 97.04 154.634 97 154.314 96.92C153.994 96.84 153.744 96.72 153.564 96.56C153.404 96.4 153.304 96.2 153.264 95.96C153.224 95.74 153.204 95.49 153.204 95.21V92.03C153.204 91.83 153.224 91.64 153.264 91.46C153.324 91.26 153.434 91.09 153.594 90.95C153.754 90.79 153.984 90.67 154.284 90.59C154.584 90.49 154.984 90.44 155.484 90.44H170.454V89.57H155.214C154.374 89.57 153.814 89.45 153.534 89.21C153.254 88.95 153.114 88.57 153.114 88.07C153.114 87.67 153.254 87.33 153.534 87.05C153.814 86.75 154.374 86.6 155.214 86.6H161.844V85.22H153.054C152.354 85.22 151.844 85.11 151.524 84.89C151.224 84.65 151.074 84.26 151.074 83.72C151.074 83.28 151.224 82.93 151.524 82.67C151.844 82.39 152.354 82.25 153.054 82.25H175.464C176.164 82.25 176.664 82.39 176.964 82.67C177.284 82.93 177.444 83.28 177.444 83.72C177.444 84.26 177.284 84.65 176.964 84.89C176.664 85.11 176.164 85.22 175.464 85.22H166.704V86.6H173.064C173.544 86.6 173.934 86.66 174.234 86.78C174.534 86.88 174.764 87.01 174.924 87.17C175.084 87.33 175.184 87.51 175.224 87.71C175.284 87.91 175.314 88.11 175.314 88.31V91.49C175.314 91.97 175.174 92.35 174.894 92.63C174.614 92.91 173.994 93.05 173.034 93.05H158.064V93.98H173.244C173.804 93.98 174.264 94.01 174.624 94.07C174.984 94.15 175.264 94.25 175.464 94.37C175.664 94.51 175.794 94.67 175.854 94.85C175.934 95.05 175.974 95.27 175.974 95.51C175.974 95.79 175.934 96.02 175.854 96.2C175.794 96.4 175.664 96.56 175.464 96.68C175.264 96.8 174.984 96.89 174.624 96.95C174.264 97.01 173.804 97.04 173.244 97.04H155.634ZM155.484 81.62C155.184 81.64 154.894 81.65 154.614 81.65C154.334 81.65 154.074 81.61 153.834 81.53C153.614 81.45 153.424 81.32 153.264 81.14C153.124 80.96 153.024 80.7 152.964 80.36C152.864 79.72 153.004 79.26 153.384 78.98C153.764 78.68 154.344 78.49 155.124 78.41C156.264 78.31 157.344 78.16 158.364 77.96C159.384 77.76 160.214 77.44 160.854 77H156.384C155.904 77 155.514 76.97 155.214 76.91C154.914 76.83 154.674 76.73 154.494 76.61C154.334 76.49 154.224 76.34 154.164 76.16C154.124 75.98 154.104 75.77 154.104 75.53C154.104 75.27 154.124 75.05 154.164 74.87C154.224 74.67 154.334 74.51 154.494 74.39C154.674 74.25 154.914 74.15 155.214 74.09C155.514 74.03 155.904 74 156.384 74H172.464C172.944 74 173.334 74.03 173.634 74.09C173.934 74.15 174.164 74.25 174.324 74.39C174.504 74.51 174.614 74.67 174.654 74.87C174.714 75.05 174.744 75.27 174.744 75.53C174.744 75.77 174.714 75.98 174.654 76.16C174.614 76.34 174.504 76.49 174.324 76.61C174.164 76.73 173.934 76.83 173.634 76.91C173.334 76.97 172.944 77 172.464 77H167.844C168.484 77.44 169.334 77.76 170.394 77.96C171.474 78.16 172.584 78.31 173.724 78.41C174.504 78.49 175.074 78.68 175.434 78.98C175.814 79.26 175.954 79.72 175.854 80.36C175.794 80.7 175.684 80.96 175.524 81.14C175.384 81.32 175.204 81.45 174.984 81.53C174.764 81.61 174.514 81.65 174.234 81.65C173.954 81.65 173.664 81.64 173.364 81.62C171.704 81.5 170.074 81.22 168.474 80.78C166.874 80.32 165.514 79.73 164.394 79.01C163.274 79.73 161.924 80.32 160.344 80.78C158.764 81.22 157.144 81.5 155.484 81.62ZM159.174 73.01C158.474 73.01 158.014 72.87 157.794 72.59C157.594 72.31 157.494 71.97 157.494 71.57C157.494 71.09 157.594 70.72 157.794 70.46C158.014 70.2 158.474 70.07 159.174 70.07H168.654C169.354 70.07 169.804 70.2 170.004 70.46C170.224 70.72 170.334 71.09 170.334 71.57C170.334 71.97 170.224 72.31 170.004 72.59C169.804 72.87 169.354 73.01 168.654 73.01H159.174ZM183.48 96.74C182.92 96.74 182.48 96.69 182.16 96.59C181.84 96.49 181.59 96.35 181.41 96.17C181.25 96.01 181.15 95.81 181.11 95.57C181.07 95.33 181.05 95.06 181.05 94.76V90.68C181.05 90.48 181.07 90.28 181.11 90.08C181.17 89.88 181.28 89.7 181.44 89.54C181.6 89.38 181.83 89.26 182.13 89.18C182.43 89.08 182.83 89.03 183.33 89.03H197.76V87.95H183.33C182.83 87.95 182.43 87.91 182.13 87.83C181.83 87.75 181.6 87.64 181.44 87.5C181.28 87.36 181.17 87.19 181.11 86.99C181.07 86.79 181.05 86.56 181.05 86.3C181.05 86.1 181.07 85.9 181.11 85.7C181.17 85.48 181.28 85.29 181.44 85.13C181.6 84.97 181.83 84.84 182.13 84.74C182.43 84.64 182.83 84.59 183.33 84.59H200.34C200.84 84.59 201.24 84.64 201.54 84.74C201.84 84.84 202.07 84.97 202.23 85.13C202.39 85.29 202.49 85.48 202.53 85.7C202.59 85.9 202.62 86.1 202.62 86.3V90.53C202.62 90.79 202.59 91.02 202.53 91.22C202.49 91.42 202.39 91.6 202.23 91.76C202.07 91.9 201.84 92.01 201.54 92.09C201.24 92.17 200.84 92.21 200.34 92.21H185.91V93.29H200.49C201.05 93.29 201.51 93.33 201.87 93.41C202.23 93.51 202.51 93.63 202.71 93.77C202.91 93.93 203.04 94.11 203.1 94.31C203.18 94.53 203.22 94.76 203.22 95C203.22 95.3 203.18 95.55 203.1 95.75C203.04 95.97 202.91 96.15 202.71 96.29C202.51 96.45 202.23 96.56 201.87 96.62C201.51 96.7 201.05 96.74 200.49 96.74H183.48ZM188.34 79.4V77.6H184.86V79.4H188.34ZM182.58 82.91C182.02 82.91 181.58 82.86 181.26 82.76C180.94 82.64 180.69 82.49 180.51 82.31C180.35 82.11 180.25 81.89 180.21 81.65C180.17 81.39 180.15 81.11 180.15 80.81V73.31C180.15 72.81 180.21 72.41 180.33 72.11C180.45 71.81 180.61 71.58 180.81 71.42C181.03 71.24 181.27 71.13 181.53 71.09C181.81 71.03 182.11 71 182.43 71C182.75 71 183.05 71.03 183.33 71.09C183.63 71.13 183.89 71.24 184.11 71.42C184.33 71.58 184.51 71.81 184.65 72.11C184.79 72.41 184.86 72.81 184.86 73.31V74.06H188.34V73.31C188.34 72.81 188.4 72.41 188.52 72.11C188.66 71.81 188.84 71.58 189.06 71.42C189.3 71.24 189.56 71.13 189.84 71.09C190.14 71.03 190.45 71 190.77 71C191.09 71 191.38 71.03 191.64 71.09C191.92 71.13 192.16 71.24 192.36 71.42C192.58 71.58 192.75 71.81 192.87 72.11C192.99 72.41 193.05 72.81 193.05 73.31V80.81C193.05 81.11 193.03 81.39 192.99 81.65C192.95 81.89 192.84 82.11 192.66 82.31C192.5 82.49 192.26 82.64 191.94 82.76C191.62 82.86 191.18 82.91 190.62 82.91H182.58ZM199.8 83.36C199.48 83.36 199.17 83.33 198.87 83.27C198.59 83.21 198.33 83.1 198.09 82.94C197.87 82.76 197.69 82.52 197.55 82.22C197.43 81.9 197.37 81.48 197.37 80.96V73.31C197.37 72.31 197.61 71.63 198.09 71.27C198.59 70.89 199.16 70.7 199.8 70.7C200.12 70.7 200.42 70.74 200.7 70.82C201 70.9 201.26 71.04 201.48 71.24C201.7 71.44 201.88 71.71 202.02 72.05C202.16 72.39 202.23 72.81 202.23 73.31V74.87H204.42C204.98 74.87 205.44 74.94 205.8 75.08C206.16 75.2 206.44 75.36 206.64 75.56C206.84 75.76 206.97 75.99 207.03 76.25C207.11 76.49 207.15 76.73 207.15 76.97C207.15 77.27 207.11 77.55 207.03 77.81C206.97 78.07 206.84 78.3 206.64 78.5C206.44 78.68 206.16 78.83 205.8 78.95C205.44 79.07 204.98 79.13 204.42 79.13H202.23V80.96C202.23 81.48 202.16 81.9 202.02 82.22C201.88 82.52 201.7 82.76 201.48 82.94C201.26 83.1 201 83.21 200.7 83.27C200.42 83.33 200.12 83.36 199.8 83.36ZM231.096 86.09C230.456 86.09 229.936 85.91 229.536 85.55C229.156 85.19 228.966 84.49 228.966 83.45V80.63H226.956V83.42C226.956 84.46 226.766 85.16 226.386 85.52C226.026 85.88 225.526 86.06 224.886 86.06C224.246 86.06 223.726 85.88 223.326 85.52C222.946 85.16 222.756 84.46 222.756 83.42V73.31C222.756 72.31 222.946 71.63 223.326 71.27C223.706 70.89 224.216 70.7 224.856 70.7C225.476 70.7 225.976 70.89 226.356 71.27C226.756 71.63 226.956 72.31 226.956 73.31V76.55H228.966V73.31C228.966 72.31 229.156 71.63 229.536 71.27C229.916 70.89 230.426 70.7 231.066 70.7C231.686 70.7 232.186 70.89 232.566 71.27C232.966 71.63 233.166 72.31 233.166 73.31V83.45C233.166 84.49 232.976 85.19 232.596 85.55C232.236 85.91 231.736 86.09 231.096 86.09ZM213.096 96.32C212.536 96.72 212.036 96.86 211.596 96.74C211.176 96.64 210.786 96.45 210.426 96.17C210.206 96.01 210.016 95.8 209.856 95.54C209.716 95.3 209.626 95.04 209.586 94.76C209.566 94.48 209.596 94.19 209.676 93.89C209.776 93.61 209.946 93.36 210.186 93.14C210.526 92.82 210.856 92.52 211.176 92.24C211.516 91.96 211.816 91.68 212.076 91.4C212.356 91.1 212.576 90.78 212.736 90.44C212.896 90.1 212.976 89.7 212.976 89.24V88.97C212.976 88.73 213.006 88.5 213.066 88.28C213.126 88.04 213.236 87.84 213.396 87.68C213.556 87.5 213.786 87.36 214.086 87.26C214.386 87.14 214.766 87.08 215.226 87.08C216.206 87.08 216.886 87.27 217.266 87.65C217.666 88.01 217.866 88.45 217.866 88.97V89.24C217.866 89.7 217.936 90.1 218.076 90.44C218.236 90.78 218.446 91.1 218.706 91.4C218.966 91.68 219.256 91.96 219.576 92.24C219.896 92.52 220.226 92.82 220.566 93.14C220.806 93.36 220.966 93.61 221.046 93.89C221.146 94.19 221.176 94.48 221.136 94.76C221.116 95.04 221.026 95.3 220.866 95.54C220.726 95.8 220.546 96.01 220.326 96.17C219.966 96.45 219.566 96.64 219.126 96.74C218.686 96.86 218.186 96.72 217.626 96.32C217.286 96.06 216.896 95.7 216.456 95.24C216.016 94.78 215.656 94.36 215.376 93.98C215.076 94.36 214.706 94.78 214.266 95.24C213.826 95.7 213.436 96.06 213.096 96.32ZM214.806 82.43C215.206 82.43 215.526 82.37 215.766 82.25C216.006 82.13 216.186 81.98 216.306 81.8C216.446 81.6 216.536 81.39 216.576 81.17C216.616 80.93 216.636 80.71 216.636 80.51C216.636 80.29 216.616 80.07 216.576 79.85C216.536 79.61 216.446 79.39 216.306 79.19C216.186 78.99 216.006 78.83 215.766 78.71C215.526 78.59 215.206 78.53 214.806 78.53C214.406 78.53 214.086 78.59 213.846 78.71C213.626 78.83 213.446 78.99 213.306 79.19C213.166 79.39 213.076 79.61 213.036 79.85C212.996 80.07 212.976 80.29 212.976 80.51C212.976 80.71 212.996 80.93 213.036 81.17C213.076 81.39 213.166 81.6 213.306 81.8C213.446 81.98 213.626 82.13 213.846 82.25C214.086 82.37 214.406 82.43 214.806 82.43ZM214.806 85.73C213.926 85.73 213.136 85.64 212.436 85.46C211.736 85.26 211.126 84.96 210.606 84.56C210.106 84.14 209.716 83.61 209.436 82.97C209.176 82.33 209.046 81.57 209.046 80.69C209.046 80.17 209.096 79.7 209.196 79.28C209.316 78.86 209.476 78.47 209.676 78.11C208.896 78.05 208.376 77.89 208.116 77.63C207.876 77.35 207.756 76.99 207.756 76.55C207.756 76.25 207.786 76 207.846 75.8C207.926 75.58 208.066 75.4 208.266 75.26C208.466 75.1 208.746 74.99 209.106 74.93C209.466 74.85 209.926 74.81 210.486 74.81H219.006C219.566 74.81 220.026 74.85 220.386 74.93C220.746 74.99 221.026 75.1 221.226 75.26C221.426 75.4 221.556 75.58 221.616 75.8C221.696 76 221.736 76.25 221.736 76.55C221.736 76.97 221.616 77.32 221.376 77.6C221.136 77.86 220.656 78.03 219.936 78.11C220.136 78.45 220.286 78.84 220.386 79.28C220.506 79.7 220.566 80.17 220.566 80.69C220.566 81.63 220.426 82.43 220.146 83.09C219.886 83.73 219.496 84.25 218.976 84.65C218.476 85.03 217.866 85.31 217.146 85.49C216.446 85.65 215.666 85.73 214.806 85.73ZM225.096 96.32C224.536 96.72 224.036 96.86 223.596 96.74C223.176 96.64 222.786 96.45 222.426 96.17C222.206 96.01 222.016 95.8 221.856 95.54C221.716 95.3 221.626 95.04 221.586 94.76C221.566 94.48 221.596 94.19 221.676 93.89C221.776 93.61 221.946 93.36 222.186 93.14C222.526 92.82 222.856 92.52 223.176 92.24C223.516 91.96 223.816 91.68 224.076 91.4C224.356 91.1 224.576 90.78 224.736 90.44C224.896 90.1 224.976 89.7 224.976 89.24V88.97C224.976 88.73 225.006 88.5 225.066 88.28C225.126 88.04 225.236 87.84 225.396 87.68C225.556 87.5 225.786 87.36 226.086 87.26C226.386 87.14 226.766 87.08 227.226 87.08C228.206 87.08 228.886 87.27 229.266 87.65C229.666 88.01 229.866 88.45 229.866 88.97V89.24C229.866 89.7 229.936 90.1 230.076 90.44C230.236 90.78 230.446 91.1 230.706 91.4C230.966 91.68 231.256 91.96 231.576 92.24C231.896 92.52 232.226 92.82 232.566 93.14C232.806 93.36 232.966 93.61 233.046 93.89C233.146 94.19 233.176 94.48 233.136 94.76C233.116 95.04 233.026 95.3 232.866 95.54C232.726 95.8 232.546 96.01 232.326 96.17C231.966 96.45 231.566 96.64 231.126 96.74C230.686 96.86 230.186 96.72 229.626 96.32C229.286 96.06 228.896 95.7 228.456 95.24C228.016 94.78 227.656 94.36 227.376 93.98C227.076 94.36 226.706 94.78 226.266 95.24C225.826 95.7 225.436 96.06 225.096 96.32ZM212.376 73.52C211.256 73.52 210.516 73.39 210.156 73.13C209.816 72.85 209.646 72.46 209.646 71.96C209.646 71.38 209.816 70.97 210.156 70.73C210.516 70.47 211.256 70.34 212.376 70.34H217.116C218.236 70.34 218.966 70.47 219.306 70.73C219.666 70.97 219.846 71.38 219.846 71.96C219.846 72.46 219.666 72.85 219.306 73.13C218.966 73.39 218.236 73.52 217.116 73.52H212.376ZM244.212 96.14C243.052 96.14 242.082 96.01 241.302 95.75C240.522 95.49 239.882 95.1 239.382 94.58C238.902 94.08 238.542 93.45 238.302 92.69C238.062 91.95 237.912 91.09 237.852 90.11C237.832 89.93 237.822 89.51 237.822 88.85C237.822 88.17 237.812 87.37 237.792 86.45C237.792 85.53 237.792 84.55 237.792 83.51C237.792 82.47 237.792 81.49 237.792 80.57C237.812 79.65 237.822 78.86 237.822 78.2C237.822 77.54 237.832 77.12 237.852 76.94C237.912 75.94 238.052 75.06 238.272 74.3C238.512 73.54 238.872 72.9 239.352 72.38C239.852 71.86 240.492 71.47 241.272 71.21C242.052 70.93 243.032 70.79 244.212 70.79C245.312 70.79 246.252 70.93 247.032 71.21C247.812 71.47 248.452 71.86 248.952 72.38C249.452 72.9 249.832 73.55 250.092 74.33C250.352 75.09 250.512 75.96 250.572 76.94C250.572 77.12 250.572 77.55 250.572 78.23C250.592 78.89 250.602 79.68 250.602 80.6C250.602 81.52 250.602 82.5 250.602 83.54C250.622 84.58 250.622 85.56 250.602 86.48C250.602 87.4 250.592 88.2 250.572 88.88C250.572 89.54 250.572 89.95 250.572 90.11C250.532 92.13 250.022 93.64 249.042 94.64C248.082 95.64 246.472 96.14 244.212 96.14ZM244.212 92.06C244.372 92.06 244.532 92.04 244.692 92C244.872 91.98 245.032 91.9 245.172 91.76C245.312 91.62 245.432 91.43 245.532 91.19C245.632 90.93 245.692 90.57 245.712 90.11C245.712 89.93 245.712 89.5 245.712 88.82C245.732 88.12 245.742 87.31 245.742 86.39V80.48C245.742 79.54 245.732 78.74 245.712 78.08C245.712 77.42 245.712 77 245.712 76.82C245.712 76.4 245.662 76.06 245.562 75.8C245.482 75.54 245.362 75.35 245.202 75.23C245.062 75.09 244.902 75 244.722 74.96C244.542 74.92 244.372 74.9 244.212 74.9C244.052 74.9 243.882 74.93 243.702 74.99C243.542 75.03 243.392 75.12 243.252 75.26C243.112 75.4 242.992 75.61 242.892 75.89C242.792 76.15 242.732 76.49 242.712 76.91C242.692 77.09 242.682 77.52 242.682 78.2C242.682 78.88 242.672 79.68 242.652 80.6C242.652 81.52 242.652 82.5 242.652 83.54C242.652 84.58 242.652 85.56 242.652 86.48C242.672 87.4 242.682 88.2 242.682 88.88C242.682 89.54 242.692 89.95 242.712 90.11C242.712 90.57 242.752 90.93 242.832 91.19C242.932 91.43 243.052 91.62 243.192 91.76C243.332 91.9 243.492 91.98 243.672 92C243.852 92.04 244.032 92.06 244.212 92.06ZM259.002 96.44C258.682 96.44 258.372 96.4 258.072 96.32C257.792 96.24 257.532 96.1 257.292 95.9C257.072 95.7 256.892 95.43 256.752 95.09C256.632 94.75 256.572 94.32 256.572 93.8V84.53H254.142C253.582 84.53 253.132 84.48 252.792 84.38C252.452 84.26 252.182 84.11 251.982 83.93C251.802 83.73 251.682 83.51 251.622 83.27C251.562 83.01 251.532 82.73 251.532 82.43C251.532 82.19 251.562 81.95 251.622 81.71C251.682 81.45 251.802 81.23 251.982 81.05C252.182 80.85 252.452 80.69 252.792 80.57C253.132 80.45 253.582 80.39 254.142 80.39H256.572V73.31C256.572 72.31 256.812 71.63 257.292 71.27C257.792 70.89 258.362 70.7 259.002 70.7C259.322 70.7 259.622 70.74 259.902 70.82C260.202 70.9 260.462 71.04 260.682 71.24C260.902 71.44 261.082 71.71 261.222 72.05C261.362 72.39 261.432 72.81 261.432 73.31V93.8C261.432 94.32 261.362 94.75 261.222 95.09C261.082 95.43 260.902 95.7 260.682 95.9C260.462 96.1 260.202 96.24 259.902 96.32C259.622 96.4 259.322 96.44 259.002 96.44ZM267.858 96.08C267.298 96.08 266.838 96.02 266.478 95.9C266.118 95.78 265.838 95.62 265.638 95.42C265.438 95.24 265.298 95.02 265.218 94.76C265.158 94.52 265.128 94.28 265.128 94.04C265.128 93.74 265.158 93.46 265.218 93.2C265.298 92.96 265.438 92.74 265.638 92.54C265.838 92.36 266.118 92.21 266.478 92.09C266.838 91.99 267.298 91.94 267.858 91.94H270.408V84.92C269.228 84.42 268.348 83.66 267.768 82.64C267.188 81.62 266.898 80.51 266.898 79.31V77.51C266.898 76.71 267.048 75.92 267.348 75.14C267.648 74.36 268.078 73.67 268.638 73.07C269.218 72.45 269.898 71.95 270.678 71.57C271.478 71.19 272.378 71 273.378 71H283.158C284.138 71 285.028 71.19 285.828 71.57C286.628 71.95 287.308 72.45 287.868 73.07C288.448 73.67 288.888 74.36 289.188 75.14C289.488 75.92 289.638 76.71 289.638 77.51V79.31C289.638 80.51 289.348 81.62 288.768 82.64C288.188 83.64 287.328 84.39 286.188 84.89V91.94H288.708C289.268 91.94 289.728 91.99 290.088 92.09C290.448 92.21 290.728 92.36 290.928 92.54C291.128 92.74 291.258 92.96 291.318 93.2C291.398 93.46 291.438 93.74 291.438 94.04C291.438 94.28 291.398 94.52 291.318 94.76C291.258 95.02 291.128 95.24 290.928 95.42C290.728 95.62 290.448 95.78 290.088 95.9C289.728 96.02 289.268 96.08 288.708 96.08H267.858ZM281.328 91.94V85.46H275.268V91.94H281.328ZM282.258 81.29C283.118 81.25 283.748 80.97 284.148 80.45C284.568 79.93 284.778 79.3 284.778 78.56V77.9C284.778 77.14 284.568 76.5 284.148 75.98C283.748 75.44 283.088 75.17 282.168 75.17H274.368C273.448 75.17 272.778 75.44 272.358 75.98C271.958 76.5 271.758 77.14 271.758 77.9V78.56C271.758 79.3 271.958 79.93 272.358 80.45C272.778 80.97 273.418 81.25 274.278 81.29H282.258ZM298.854 72.02C299.334 72.46 299.574 73.02 299.574 73.7L299.064 86.81C299.044 87.37 298.794 87.81 298.314 88.13C297.854 88.45 297.374 88.61 296.874 88.61C296.214 88.61 295.674 88.46 295.254 88.16C294.854 87.84 294.644 87.39 294.624 86.81L294.174 73.7C294.154 73.02 294.374 72.46 294.834 72.02C295.294 71.56 295.974 71.33 296.874 71.33C297.734 71.33 298.394 71.56 298.854 72.02ZM294.774 94.4C294.214 93.96 293.934 93.34 293.934 92.54C293.934 91.74 294.214 91.11 294.774 90.65C295.334 90.19 296.044 89.96 296.904 89.96C297.764 89.96 298.474 90.19 299.034 90.65C299.614 91.11 299.904 91.74 299.904 92.54C299.904 93.34 299.614 93.96 299.034 94.4C298.474 94.86 297.764 95.09 296.904 95.09C296.044 95.09 295.334 94.86 294.774 94.4Z" fill="white"/>
<path d="M132.258 56.77C131.618 56.77 131.048 56.58 130.548 56.2C130.068 55.84 129.828 55.16 129.828 54.16V50.68H114.798C114.238 50.68 113.778 50.62 113.418 50.5C113.058 50.38 112.778 50.23 112.578 50.05C112.378 49.85 112.238 49.63 112.158 49.39C112.098 49.13 112.068 48.88 112.068 48.64C112.068 48.34 112.098 48.07 112.158 47.83C112.238 47.57 112.378 47.35 112.578 47.17C112.778 46.97 113.058 46.82 113.418 46.72C113.778 46.6 114.238 46.54 114.798 46.54H132.258C132.818 46.54 133.258 46.6 133.578 46.72C133.898 46.82 134.138 46.97 134.298 47.17C134.478 47.35 134.588 47.57 134.628 47.83C134.668 48.07 134.688 48.34 134.688 48.64V54.16C134.688 54.66 134.618 55.08 134.478 55.42C134.338 55.76 134.158 56.03 133.938 56.23C133.718 56.43 133.458 56.57 133.158 56.65C132.878 56.73 132.578 56.77 132.258 56.77ZM113.598 44.77C113.038 44.77 112.598 44.72 112.278 44.62C111.958 44.5 111.708 44.35 111.528 44.17C111.368 43.97 111.268 43.75 111.228 43.51C111.188 43.25 111.168 42.97 111.168 42.67V33.46C111.168 33.08 111.188 32.74 111.228 32.44C111.268 32.12 111.368 31.86 111.528 31.66C111.708 31.44 111.958 31.28 112.278 31.18C112.598 31.06 113.038 31 113.598 31H121.308C121.868 31 122.328 31.06 122.688 31.18C123.048 31.28 123.328 31.43 123.528 31.63C123.728 31.81 123.858 32.03 123.918 32.29C123.998 32.53 124.038 32.8 124.038 33.1C124.038 33.34 123.998 33.58 123.918 33.82C123.858 34.06 123.728 34.28 123.528 34.48C123.328 34.66 123.048 34.81 122.688 34.93C122.328 35.03 121.868 35.08 121.308 35.08H116.028V40.69H121.908C122.468 40.69 122.928 40.75 123.288 40.87C123.648 40.97 123.928 41.12 124.128 41.32C124.328 41.5 124.458 41.71 124.518 41.95C124.598 42.19 124.638 42.43 124.638 42.67C124.638 42.97 124.598 43.25 124.518 43.51C124.458 43.75 124.328 43.97 124.128 44.17C123.928 44.35 123.648 44.5 123.288 44.62C122.928 44.72 122.468 44.77 121.908 44.77H113.598ZM132.348 45.31C132.028 45.31 131.718 45.27 131.418 45.19C131.138 45.11 130.878 44.97 130.638 44.77C130.418 44.57 130.238 44.3 130.098 43.96C129.978 43.62 129.918 43.19 129.918 42.67V39.82H126.498C125.938 39.82 125.488 39.77 125.148 39.67C124.808 39.55 124.538 39.39 124.338 39.19C124.158 38.99 124.038 38.77 123.978 38.53C123.918 38.27 123.888 37.99 123.888 37.69C123.888 37.45 123.918 37.21 123.978 36.97C124.038 36.71 124.158 36.48 124.338 36.28C124.538 36.08 124.808 35.92 125.148 35.8C125.488 35.68 125.938 35.62 126.498 35.62H129.918V33.31C129.918 32.31 130.158 31.63 130.638 31.27C131.138 30.89 131.708 30.7 132.348 30.7C132.668 30.7 132.968 30.74 133.248 30.82C133.548 30.9 133.808 31.04 134.028 31.24C134.248 31.44 134.428 31.71 134.568 32.05C134.708 32.39 134.778 32.81 134.778 33.31V42.67C134.778 43.19 134.708 43.62 134.568 43.96C134.428 44.3 134.248 44.57 134.028 44.77C133.808 44.97 133.548 45.11 133.248 45.19C132.968 45.27 132.668 45.31 132.348 45.31ZM152.244 56.44C151.924 56.44 151.614 56.4 151.314 56.32C151.034 56.24 150.774 56.1 150.534 55.9C150.314 55.7 150.134 55.43 149.994 55.09C149.874 54.75 149.814 54.32 149.814 53.8V49.96H141.804C141.244 49.96 140.784 49.9 140.424 49.78C140.064 49.66 139.784 49.51 139.584 49.33C139.384 49.13 139.244 48.91 139.164 48.67C139.104 48.41 139.074 48.16 139.074 47.92C139.074 47.62 139.104 47.35 139.164 47.11C139.244 46.85 139.384 46.63 139.584 46.45C139.784 46.25 140.064 46.1 140.424 46C140.784 45.88 141.244 45.82 141.804 45.82H162.654C163.214 45.82 163.674 45.88 164.034 46C164.394 46.1 164.674 46.25 164.874 46.45C165.074 46.63 165.204 46.85 165.264 47.11C165.344 47.35 165.384 47.62 165.384 47.92C165.384 48.16 165.344 48.41 165.264 48.67C165.204 48.91 165.074 49.13 164.874 49.33C164.674 49.51 164.394 49.66 164.034 49.78C163.674 49.9 163.214 49.96 162.654 49.96H154.674V53.8C154.674 54.32 154.604 54.75 154.464 55.09C154.324 55.43 154.144 55.7 153.924 55.9C153.704 56.1 153.444 56.24 153.144 56.32C152.864 56.4 152.564 56.44 152.244 56.44ZM147.114 43.24C144.994 43.22 143.414 42.76 142.374 41.86C141.354 40.94 140.844 39.67 140.844 38.05V36.55C140.844 35.75 140.984 35.01 141.264 34.33C141.564 33.65 141.994 33.07 142.554 32.59C143.114 32.09 143.784 31.7 144.564 31.42C145.344 31.14 146.234 31 147.234 31H157.194C158.174 31 159.054 31.14 159.834 31.42C160.634 31.7 161.314 32.09 161.874 32.59C162.434 33.07 162.854 33.65 163.134 34.33C163.434 35.01 163.584 35.75 163.584 36.55V38.05C163.584 39.67 163.074 40.94 162.054 41.86C161.034 42.76 159.464 43.22 157.344 43.24H147.114ZM156.294 39.13C157.154 39.09 157.774 38.96 158.154 38.74C158.534 38.52 158.724 38.04 158.724 37.3V36.94C158.724 36.18 158.534 35.69 158.154 35.47C157.774 35.23 157.124 35.11 156.204 35.11H148.224C147.304 35.11 146.654 35.23 146.274 35.47C145.894 35.69 145.704 36.18 145.704 36.94V37.3C145.704 38.04 145.894 38.52 146.274 38.74C146.654 38.96 147.274 39.09 148.134 39.13H156.294ZM172.11 57.04C171.55 57.04 171.11 56.99 170.79 56.89C170.47 56.81 170.22 56.68 170.04 56.5C169.88 56.34 169.78 56.14 169.74 55.9C169.7 55.66 169.68 55.4 169.68 55.12V51.16C169.68 50.96 169.7 50.77 169.74 50.59C169.8 50.39 169.91 50.22 170.07 50.08C170.23 49.92 170.46 49.8 170.76 49.72C171.06 49.62 171.46 49.57 171.96 49.57H186.93V48.46H171.87C171.37 48.46 170.97 48.42 170.67 48.34C170.37 48.26 170.14 48.15 169.98 48.01C169.82 47.85 169.71 47.67 169.65 47.47C169.61 47.25 169.59 47.02 169.59 46.78C169.59 46.58 169.61 46.38 169.65 46.18C169.71 45.98 169.82 45.8 169.98 45.64C170.14 45.46 170.37 45.32 170.67 45.22C170.97 45.12 171.37 45.07 171.87 45.07H189.48C189.96 45.07 190.35 45.12 190.65 45.22C190.97 45.32 191.21 45.45 191.37 45.61C191.53 45.77 191.64 45.95 191.7 46.15C191.76 46.35 191.79 46.55 191.79 46.75V51.22C191.79 51.7 191.64 52.06 191.34 52.3C191.06 52.56 190.44 52.69 189.48 52.69H174.54V53.8H189.72C190.28 53.8 190.74 53.84 191.1 53.92C191.46 54 191.74 54.11 191.94 54.25C192.14 54.39 192.27 54.56 192.33 54.76C192.41 54.96 192.45 55.18 192.45 55.42C192.45 55.7 192.41 55.94 192.33 56.14C192.27 56.34 192.14 56.51 191.94 56.65C191.74 56.79 191.46 56.89 191.1 56.95C190.74 57.01 190.28 57.04 189.72 57.04H172.11ZM169.83 43.87C169.33 43.87 168.93 43.83 168.63 43.75C168.33 43.67 168.1 43.56 167.94 43.42C167.78 43.28 167.67 43.11 167.61 42.91C167.57 42.69 167.55 42.44 167.55 42.16C167.55 41.94 167.57 41.73 167.61 41.53C167.67 41.33 167.78 41.15 167.94 40.99C168.1 40.83 168.33 40.71 168.63 40.63C168.93 40.53 169.33 40.48 169.83 40.48H191.64C192.14 40.48 192.54 40.53 192.84 40.63C193.14 40.71 193.37 40.83 193.53 40.99C193.69 41.15 193.79 41.33 193.83 41.53C193.89 41.73 193.92 41.94 193.92 42.16C193.92 42.44 193.89 42.69 193.83 42.91C193.79 43.11 193.69 43.28 193.53 43.42C193.37 43.56 193.14 43.67 192.84 43.75C192.54 43.83 192.14 43.87 191.64 43.87H169.83ZM172.17 39.19C171.61 39.19 171.17 39.13 170.85 39.01C170.53 38.89 170.29 38.74 170.13 38.56C169.99 38.36 169.9 38.13 169.86 37.87C169.82 37.61 169.8 37.33 169.8 37.03V33.13C169.8 32.83 169.82 32.56 169.86 32.32C169.9 32.06 169.99 31.83 170.13 31.63C170.29 31.43 170.53 31.28 170.85 31.18C171.17 31.06 171.61 31 172.17 31H188.88C189.38 31 189.78 31.05 190.08 31.15C190.38 31.23 190.61 31.35 190.77 31.51C190.93 31.67 191.03 31.86 191.07 32.08C191.13 32.28 191.16 32.51 191.16 32.77C191.16 32.99 191.13 33.2 191.07 33.4C191.03 33.6 190.93 33.78 190.77 33.94C190.61 34.1 190.38 34.23 190.08 34.33C189.78 34.43 189.38 34.48 188.88 34.48H174.66V35.71H188.88C189.38 35.71 189.78 35.76 190.08 35.86C190.38 35.96 190.61 36.1 190.77 36.28C190.93 36.44 191.03 36.63 191.07 36.85C191.13 37.05 191.16 37.25 191.16 37.45C191.16 37.71 191.13 37.95 191.07 38.17C191.03 38.37 190.93 38.55 190.77 38.71C190.61 38.85 190.38 38.97 190.08 39.07C189.78 39.15 189.38 39.19 188.88 39.19H172.17ZM204.456 48.1C202.136 48.1 200.376 47.59 199.176 46.57C197.976 45.55 197.316 44.05 197.196 42.07C197.176 41.81 197.156 41.45 197.136 40.99C197.136 40.51 197.136 40.02 197.136 39.52C197.136 39 197.136 38.51 197.136 38.05C197.156 37.57 197.176 37.2 197.196 36.94C197.296 34.94 197.936 33.42 199.116 32.38C200.316 31.32 202.096 30.79 204.456 30.79C206.696 30.79 208.426 31.32 209.646 32.38C210.886 33.42 211.576 34.94 211.716 36.94C211.736 37.18 211.746 37.54 211.746 38.02V40.96C211.746 41.42 211.736 41.79 211.716 42.07C211.676 44.09 211.026 45.6 209.766 46.6C208.506 47.6 206.736 48.1 204.456 48.1ZM198.816 56.08C198.256 56.08 197.796 56.02 197.436 55.9C197.076 55.78 196.796 55.62 196.596 55.42C196.396 55.24 196.256 55.02 196.176 54.76C196.116 54.52 196.086 54.28 196.086 54.04C196.086 53.74 196.116 53.46 196.176 53.2C196.256 52.96 196.396 52.74 196.596 52.54C196.796 52.36 197.076 52.21 197.436 52.09C197.796 51.99 198.256 51.94 198.816 51.94H210.816C211.376 51.94 211.836 51.99 212.196 52.09C212.556 52.21 212.836 52.36 213.036 52.54C213.236 52.74 213.366 52.96 213.426 53.2C213.506 53.46 213.546 53.74 213.546 54.04C213.546 54.28 213.506 54.52 213.426 54.76C213.366 55.02 213.236 55.24 213.036 55.42C212.836 55.62 212.556 55.78 212.196 55.9C211.836 56.02 211.376 56.08 210.816 56.08H198.816ZM204.456 44.02C204.616 44.02 204.826 44.01 205.086 43.99C205.346 43.95 205.606 43.86 205.866 43.72C206.126 43.58 206.346 43.39 206.526 43.15C206.726 42.89 206.836 42.53 206.856 42.07C206.876 41.79 206.886 41.41 206.886 40.93V37.93C206.886 37.45 206.876 37.08 206.856 36.82C206.856 36.4 206.756 36.06 206.556 35.8C206.376 35.54 206.156 35.35 205.896 35.23C205.636 35.09 205.366 35 205.086 34.96C204.826 34.92 204.616 34.9 204.456 34.9C204.296 34.9 204.086 34.93 203.826 34.99C203.566 35.03 203.306 35.12 203.046 35.26C202.786 35.4 202.556 35.61 202.356 35.89C202.176 36.15 202.076 36.49 202.056 36.91C202.036 37.19 202.016 37.57 201.996 38.05C201.996 38.53 201.996 39.03 201.996 39.55C201.996 40.05 201.996 40.53 201.996 40.99C202.016 41.45 202.036 41.81 202.056 42.07C202.056 42.53 202.146 42.89 202.326 43.15C202.506 43.39 202.726 43.58 202.986 43.72C203.246 43.86 203.506 43.95 203.766 43.99C204.046 44.01 204.276 44.02 204.456 44.02ZM218.166 56.44C217.846 56.44 217.536 56.4 217.236 56.32C216.956 56.24 216.696 56.1 216.456 55.9C216.236 55.7 216.056 55.43 215.916 55.09C215.796 54.75 215.736 54.32 215.736 53.8V33.31C215.736 32.31 215.976 31.63 216.456 31.27C216.956 30.89 217.526 30.7 218.166 30.7C218.486 30.7 218.786 30.74 219.066 30.82C219.366 30.9 219.626 31.04 219.846 31.24C220.066 31.44 220.246 31.71 220.386 32.05C220.526 32.39 220.596 32.81 220.596 33.31V53.8C220.596 54.32 220.526 54.75 220.386 55.09C220.246 55.43 220.066 55.7 219.846 55.9C219.626 56.1 219.366 56.24 219.066 56.32C218.786 56.4 218.486 56.44 218.166 56.44ZM48.5279 89.71C49.2479 89.71 49.7779 89.89 50.1179 90.25C50.4579 90.61 50.6279 91.07 50.6279 91.63C50.6279 92.11 50.4579 92.53 50.1179 92.89C49.7979 93.27 49.2679 93.46 48.5279 93.46H36.5579C35.7979 93.46 35.1979 93.22 34.7579 92.74C34.3179 92.26 34.0979 91.69 34.0979 91.03C34.0979 90.55 34.2779 90.03 34.6379 89.47C35.5179 88.27 37.2379 86.53 39.7979 84.25C41.6179 82.63 42.9679 81.29 43.8479 80.23C44.7479 79.17 45.1979 78.16 45.1979 77.2C45.1979 76.36 45.0279 75.68 44.6879 75.16C44.3479 74.62 43.6579 74.35 42.6179 74.35C41.7379 74.35 40.9979 74.57 40.3979 75.01C39.8179 75.43 39.5279 76.04 39.5279 76.84C39.5279 77.32 39.3179 77.72 38.8979 78.04C38.4979 78.36 37.9279 78.52 37.1879 78.52C36.4879 78.52 35.8979 78.35 35.4179 78.01C34.9579 77.65 34.7279 77.09 34.7279 76.33C34.7279 75.19 35.0879 74.18 35.8079 73.3C36.5279 72.42 37.4779 71.74 38.6579 71.26C39.8579 70.78 41.1279 70.54 42.4679 70.54C44.9079 70.54 46.8179 71.12 48.1979 72.28C49.5779 73.44 50.2679 75 50.2679 76.96C50.2679 78.06 50.0179 79.1 49.5179 80.08C49.0179 81.06 48.3679 81.99 47.5679 82.87C46.7679 83.73 45.7079 84.76 44.3879 85.96L43.6679 86.62C42.2679 87.86 41.2079 88.89 40.4879 89.71H48.5279ZM62.5525 93.61C59.8525 93.61 57.7925 93.05 56.3725 91.93C54.9725 90.81 54.2725 89 54.2725 86.5V77.65C54.2725 75.15 54.9725 73.34 56.3725 72.22C57.7925 71.1 59.8525 70.54 62.5525 70.54C68.1325 70.54 70.9225 72.94 70.9225 77.74V86.5C70.8025 91.24 68.0125 93.61 62.5525 93.61ZM59.4625 86.53C59.4625 87.75 59.6725 88.62 60.0925 89.14C60.5125 89.64 61.3325 89.89 62.5525 89.89C63.7525 89.89 64.5725 89.63 65.0125 89.11C65.4725 88.57 65.7025 87.71 65.7025 86.53V77.68C65.6625 76.82 65.5525 76.15 65.3725 75.67C65.2125 75.19 64.9125 74.84 64.4725 74.62C64.0325 74.38 63.3925 74.26 62.5525 74.26C61.3325 74.26 60.5125 74.52 60.0925 75.04C59.6725 75.56 59.4625 76.44 59.4625 77.68V86.53ZM88.9576 89.71C89.6776 89.71 90.2076 89.89 90.5476 90.25C90.8876 90.61 91.0576 91.07 91.0576 91.63C91.0576 92.11 90.8876 92.53 90.5476 92.89C90.2276 93.27 89.6976 93.46 88.9576 93.46H76.9876C76.2276 93.46 75.6276 93.22 75.1876 92.74C74.7476 92.26 74.5276 91.69 74.5276 91.03C74.5276 90.55 74.7076 90.03 75.0676 89.47C75.9476 88.27 77.6676 86.53 80.2276 84.25C82.0476 82.63 83.3976 81.29 84.2776 80.23C85.1776 79.17 85.6276 78.16 85.6276 77.2C85.6276 76.36 85.4576 75.68 85.1176 75.16C84.7776 74.62 84.0876 74.35 83.0476 74.35C82.1676 74.35 81.4276 74.57 80.8276 75.01C80.2476 75.43 79.9576 76.04 79.9576 76.84C79.9576 77.32 79.7476 77.72 79.3276 78.04C78.9276 78.36 78.3576 78.52 77.6176 78.52C76.9176 78.52 76.3276 78.35 75.8476 78.01C75.3876 77.65 75.1576 77.09 75.1576 76.33C75.1576 75.19 75.5176 74.18 76.2376 73.3C76.9576 72.42 77.9076 71.74 79.0876 71.26C80.2876 70.78 81.5576 70.54 82.8976 70.54C85.3376 70.54 87.2476 71.12 88.6276 72.28C90.0076 73.44 90.6976 75 90.6976 76.96C90.6976 78.06 90.4476 79.1 89.9476 80.08C89.4476 81.06 88.7976 81.99 87.9976 82.87C87.1976 83.73 86.1376 84.76 84.8176 85.96L84.0976 86.62C82.6976 87.86 81.6376 88.89 80.9176 89.71H88.9576ZM109.784 85.42C110.604 85.42 111.164 85.59 111.464 85.93C111.764 86.25 111.914 86.69 111.914 87.25C111.914 87.83 111.754 88.29 111.434 88.63C111.134 88.97 110.584 89.14 109.784 89.14H108.344V91.18C108.344 91.78 108.144 92.31 107.744 92.77C107.364 93.23 106.694 93.46 105.734 93.46C104.774 93.46 104.094 93.23 103.694 92.77C103.314 92.31 103.124 91.78 103.124 91.18V89.14H94.0939C93.5539 89.14 93.1439 88.97 92.8639 88.63C92.5839 88.29 92.4439 87.88 92.4439 87.4C92.4439 86.96 92.5639 86.52 92.8039 86.08L101.024 71.74C101.484 70.94 102.144 70.54 103.004 70.54C103.384 70.54 103.794 70.64 104.234 70.84C105.114 71.26 105.554 71.89 105.554 72.73C105.554 73.17 105.414 73.64 105.134 74.14L98.5039 85.42H103.124V80.83C103.124 80.11 103.334 79.52 103.754 79.06C104.174 78.6 104.834 78.37 105.734 78.37C106.614 78.37 107.264 78.6 107.684 79.06C108.124 79.52 108.344 80.11 108.344 80.83V85.42H109.784ZM117.584 94.33C117.204 93.93 117.004 93.43 116.984 92.83C116.964 92.23 117.154 91.68 117.554 91.18C118.114 90.5 118.554 89.85 118.874 89.23C119.194 88.61 119.434 87.98 119.594 87.34C119.754 86.7 119.854 86.04 119.894 85.36C119.954 84.66 119.984 83.89 119.984 83.05V74.2H114.944C114.384 74.2 113.924 74.15 113.564 74.05C113.204 73.93 112.924 73.78 112.724 73.6C112.524 73.4 112.384 73.18 112.304 72.94C112.244 72.68 112.214 72.4 112.214 72.1C112.214 71.86 112.244 71.62 112.304 71.38C112.364 71.12 112.484 70.9 112.664 70.72C112.864 70.52 113.134 70.36 113.474 70.24C113.814 70.12 114.264 70.06 114.824 70.06H122.654C123.194 70.06 123.614 70.12 123.914 70.24C124.214 70.34 124.444 70.49 124.604 70.69C124.764 70.87 124.864 71.1 124.904 71.38C124.944 71.66 124.964 71.98 124.964 72.34V84.04C124.964 84.56 124.904 85.27 124.784 86.17C124.684 87.07 124.494 88.01 124.214 88.99C123.954 89.97 123.594 90.93 123.134 91.87C122.694 92.81 122.144 93.58 121.484 94.18C121.204 94.44 120.894 94.65 120.554 94.81C120.234 94.99 119.894 95.09 119.534 95.11C119.194 95.15 118.854 95.11 118.514 94.99C118.194 94.87 117.884 94.65 117.584 94.33ZM132.614 95.44C132.294 95.44 131.984 95.4 131.684 95.32C131.404 95.24 131.144 95.1 130.904 94.9C130.684 94.7 130.504 94.43 130.364 94.09C130.244 93.75 130.184 93.32 130.184 92.8V72.31C130.184 71.31 130.424 70.63 130.904 70.27C131.404 69.89 131.974 69.7 132.614 69.7C132.934 69.7 133.234 69.74 133.514 69.82C133.814 69.9 134.074 70.04 134.294 70.24C134.514 70.44 134.694 70.71 134.834 71.05C134.974 71.39 135.044 71.81 135.044 72.31V79.51H137.414C137.974 79.51 138.434 79.58 138.794 79.72C139.154 79.84 139.434 80 139.634 80.2C139.834 80.4 139.964 80.63 140.024 80.89C140.104 81.13 140.144 81.37 140.144 81.61C140.144 81.91 140.104 82.19 140.024 82.45C139.964 82.71 139.834 82.94 139.634 83.14C139.434 83.32 139.154 83.47 138.794 83.59C138.434 83.71 137.974 83.77 137.414 83.77H135.044V92.8C135.044 93.32 134.974 93.75 134.834 94.09C134.694 94.43 134.514 94.7 134.294 94.9C134.074 95.1 133.814 95.24 133.514 95.32C133.234 95.4 132.934 95.44 132.614 95.44ZM154.634 96.04C154.074 96.04 153.634 96 153.314 95.92C152.994 95.84 152.744 95.72 152.564 95.56C152.404 95.4 152.304 95.2 152.264 94.96C152.224 94.74 152.204 94.49 152.204 94.21V91.03C152.204 90.83 152.224 90.64 152.264 90.46C152.324 90.26 152.434 90.09 152.594 89.95C152.754 89.79 152.984 89.67 153.284 89.59C153.584 89.49 153.984 89.44 154.484 89.44H169.454V88.57H154.214C153.374 88.57 152.814 88.45 152.534 88.21C152.254 87.95 152.114 87.57 152.114 87.07C152.114 86.67 152.254 86.33 152.534 86.05C152.814 85.75 153.374 85.6 154.214 85.6H160.844V84.22H152.054C151.354 84.22 150.844 84.11 150.524 83.89C150.224 83.65 150.074 83.26 150.074 82.72C150.074 82.28 150.224 81.93 150.524 81.67C150.844 81.39 151.354 81.25 152.054 81.25H174.464C175.164 81.25 175.664 81.39 175.964 81.67C176.284 81.93 176.444 82.28 176.444 82.72C176.444 83.26 176.284 83.65 175.964 83.89C175.664 84.11 175.164 84.22 174.464 84.22H165.704V85.6H172.064C172.544 85.6 172.934 85.66 173.234 85.78C173.534 85.88 173.764 86.01 173.924 86.17C174.084 86.33 174.184 86.51 174.224 86.71C174.284 86.91 174.314 87.11 174.314 87.31V90.49C174.314 90.97 174.174 91.35 173.894 91.63C173.614 91.91 172.994 92.05 172.034 92.05H157.064V92.98H172.244C172.804 92.98 173.264 93.01 173.624 93.07C173.984 93.15 174.264 93.25 174.464 93.37C174.664 93.51 174.794 93.67 174.854 93.85C174.934 94.05 174.974 94.27 174.974 94.51C174.974 94.79 174.934 95.02 174.854 95.2C174.794 95.4 174.664 95.56 174.464 95.68C174.264 95.8 173.984 95.89 173.624 95.95C173.264 96.01 172.804 96.04 172.244 96.04H154.634ZM154.484 80.62C154.184 80.64 153.894 80.65 153.614 80.65C153.334 80.65 153.074 80.61 152.834 80.53C152.614 80.45 152.424 80.32 152.264 80.14C152.124 79.96 152.024 79.7 151.964 79.36C151.864 78.72 152.004 78.26 152.384 77.98C152.764 77.68 153.344 77.49 154.124 77.41C155.264 77.31 156.344 77.16 157.364 76.96C158.384 76.76 159.214 76.44 159.854 76H155.384C154.904 76 154.514 75.97 154.214 75.91C153.914 75.83 153.674 75.73 153.494 75.61C153.334 75.49 153.224 75.34 153.164 75.16C153.124 74.98 153.104 74.77 153.104 74.53C153.104 74.27 153.124 74.05 153.164 73.87C153.224 73.67 153.334 73.51 153.494 73.39C153.674 73.25 153.914 73.15 154.214 73.09C154.514 73.03 154.904 73 155.384 73H171.464C171.944 73 172.334 73.03 172.634 73.09C172.934 73.15 173.164 73.25 173.324 73.39C173.504 73.51 173.614 73.67 173.654 73.87C173.714 74.05 173.744 74.27 173.744 74.53C173.744 74.77 173.714 74.98 173.654 75.16C173.614 75.34 173.504 75.49 173.324 75.61C173.164 75.73 172.934 75.83 172.634 75.91C172.334 75.97 171.944 76 171.464 76H166.844C167.484 76.44 168.334 76.76 169.394 76.96C170.474 77.16 171.584 77.31 172.724 77.41C173.504 77.49 174.074 77.68 174.434 77.98C174.814 78.26 174.954 78.72 174.854 79.36C174.794 79.7 174.684 79.96 174.524 80.14C174.384 80.32 174.204 80.45 173.984 80.53C173.764 80.61 173.514 80.65 173.234 80.65C172.954 80.65 172.664 80.64 172.364 80.62C170.704 80.5 169.074 80.22 167.474 79.78C165.874 79.32 164.514 78.73 163.394 78.01C162.274 78.73 160.924 79.32 159.344 79.78C157.764 80.22 156.144 80.5 154.484 80.62ZM158.174 72.01C157.474 72.01 157.014 71.87 156.794 71.59C156.594 71.31 156.494 70.97 156.494 70.57C156.494 70.09 156.594 69.72 156.794 69.46C157.014 69.2 157.474 69.07 158.174 69.07H167.654C168.354 69.07 168.804 69.2 169.004 69.46C169.224 69.72 169.334 70.09 169.334 70.57C169.334 70.97 169.224 71.31 169.004 71.59C168.804 71.87 168.354 72.01 167.654 72.01H158.174ZM182.48 95.74C181.92 95.74 181.48 95.69 181.16 95.59C180.84 95.49 180.59 95.35 180.41 95.17C180.25 95.01 180.15 94.81 180.11 94.57C180.07 94.33 180.05 94.06 180.05 93.76V89.68C180.05 89.48 180.07 89.28 180.11 89.08C180.17 88.88 180.28 88.7 180.44 88.54C180.6 88.38 180.83 88.26 181.13 88.18C181.43 88.08 181.83 88.03 182.33 88.03H196.76V86.95H182.33C181.83 86.95 181.43 86.91 181.13 86.83C180.83 86.75 180.6 86.64 180.44 86.5C180.28 86.36 180.17 86.19 180.11 85.99C180.07 85.79 180.05 85.56 180.05 85.3C180.05 85.1 180.07 84.9 180.11 84.7C180.17 84.48 180.28 84.29 180.44 84.13C180.6 83.97 180.83 83.84 181.13 83.74C181.43 83.64 181.83 83.59 182.33 83.59H199.34C199.84 83.59 200.24 83.64 200.54 83.74C200.84 83.84 201.07 83.97 201.23 84.13C201.39 84.29 201.49 84.48 201.53 84.7C201.59 84.9 201.62 85.1 201.62 85.3V89.53C201.62 89.79 201.59 90.02 201.53 90.22C201.49 90.42 201.39 90.6 201.23 90.76C201.07 90.9 200.84 91.01 200.54 91.09C200.24 91.17 199.84 91.21 199.34 91.21H184.91V92.29H199.49C200.05 92.29 200.51 92.33 200.87 92.41C201.23 92.51 201.51 92.63 201.71 92.77C201.91 92.93 202.04 93.11 202.1 93.31C202.18 93.53 202.22 93.76 202.22 94C202.22 94.3 202.18 94.55 202.1 94.75C202.04 94.97 201.91 95.15 201.71 95.29C201.51 95.45 201.23 95.56 200.87 95.62C200.51 95.7 200.05 95.74 199.49 95.74H182.48ZM187.34 78.4V76.6H183.86V78.4H187.34ZM181.58 81.91C181.02 81.91 180.58 81.86 180.26 81.76C179.94 81.64 179.69 81.49 179.51 81.31C179.35 81.11 179.25 80.89 179.21 80.65C179.17 80.39 179.15 80.11 179.15 79.81V72.31C179.15 71.81 179.21 71.41 179.33 71.11C179.45 70.81 179.61 70.58 179.81 70.42C180.03 70.24 180.27 70.13 180.53 70.09C180.81 70.03 181.11 70 181.43 70C181.75 70 182.05 70.03 182.33 70.09C182.63 70.13 182.89 70.24 183.11 70.42C183.33 70.58 183.51 70.81 183.65 71.11C183.79 71.41 183.86 71.81 183.86 72.31V73.06H187.34V72.31C187.34 71.81 187.4 71.41 187.52 71.11C187.66 70.81 187.84 70.58 188.06 70.42C188.3 70.24 188.56 70.13 188.84 70.09C189.14 70.03 189.45 70 189.77 70C190.09 70 190.38 70.03 190.64 70.09C190.92 70.13 191.16 70.24 191.36 70.42C191.58 70.58 191.75 70.81 191.87 71.11C191.99 71.41 192.05 71.81 192.05 72.31V79.81C192.05 80.11 192.03 80.39 191.99 80.65C191.95 80.89 191.84 81.11 191.66 81.31C191.5 81.49 191.26 81.64 190.94 81.76C190.62 81.86 190.18 81.91 189.62 81.91H181.58ZM198.8 82.36C198.48 82.36 198.17 82.33 197.87 82.27C197.59 82.21 197.33 82.1 197.09 81.94C196.87 81.76 196.69 81.52 196.55 81.22C196.43 80.9 196.37 80.48 196.37 79.96V72.31C196.37 71.31 196.61 70.63 197.09 70.27C197.59 69.89 198.16 69.7 198.8 69.7C199.12 69.7 199.42 69.74 199.7 69.82C200 69.9 200.26 70.04 200.48 70.24C200.7 70.44 200.88 70.71 201.02 71.05C201.16 71.39 201.23 71.81 201.23 72.31V73.87H203.42C203.98 73.87 204.44 73.94 204.8 74.08C205.16 74.2 205.44 74.36 205.64 74.56C205.84 74.76 205.97 74.99 206.03 75.25C206.11 75.49 206.15 75.73 206.15 75.97C206.15 76.27 206.11 76.55 206.03 76.81C205.97 77.07 205.84 77.3 205.64 77.5C205.44 77.68 205.16 77.83 204.8 77.95C204.44 78.07 203.98 78.13 203.42 78.13H201.23V79.96C201.23 80.48 201.16 80.9 201.02 81.22C200.88 81.52 200.7 81.76 200.48 81.94C200.26 82.1 200 82.21 199.7 82.27C199.42 82.33 199.12 82.36 198.8 82.36ZM230.096 85.09C229.456 85.09 228.936 84.91 228.536 84.55C228.156 84.19 227.966 83.49 227.966 82.45V79.63H225.956V82.42C225.956 83.46 225.766 84.16 225.386 84.52C225.026 84.88 224.526 85.06 223.886 85.06C223.246 85.06 222.726 84.88 222.326 84.52C221.946 84.16 221.756 83.46 221.756 82.42V72.31C221.756 71.31 221.946 70.63 222.326 70.27C222.706 69.89 223.216 69.7 223.856 69.7C224.476 69.7 224.976 69.89 225.356 70.27C225.756 70.63 225.956 71.31 225.956 72.31V75.55H227.966V72.31C227.966 71.31 228.156 70.63 228.536 70.27C228.916 69.89 229.426 69.7 230.066 69.7C230.686 69.7 231.186 69.89 231.566 70.27C231.966 70.63 232.166 71.31 232.166 72.31V82.45C232.166 83.49 231.976 84.19 231.596 84.55C231.236 84.91 230.736 85.09 230.096 85.09ZM212.096 95.32C211.536 95.72 211.036 95.86 210.596 95.74C210.176 95.64 209.786 95.45 209.426 95.17C209.206 95.01 209.016 94.8 208.856 94.54C208.716 94.3 208.626 94.04 208.586 93.76C208.566 93.48 208.596 93.19 208.676 92.89C208.776 92.61 208.946 92.36 209.186 92.14C209.526 91.82 209.856 91.52 210.176 91.24C210.516 90.96 210.816 90.68 211.076 90.4C211.356 90.1 211.576 89.78 211.736 89.44C211.896 89.1 211.976 88.7 211.976 88.24V87.97C211.976 87.73 212.006 87.5 212.066 87.28C212.126 87.04 212.236 86.84 212.396 86.68C212.556 86.5 212.786 86.36 213.086 86.26C213.386 86.14 213.766 86.08 214.226 86.08C215.206 86.08 215.886 86.27 216.266 86.65C216.666 87.01 216.866 87.45 216.866 87.97V88.24C216.866 88.7 216.936 89.1 217.076 89.44C217.236 89.78 217.446 90.1 217.706 90.4C217.966 90.68 218.256 90.96 218.576 91.24C218.896 91.52 219.226 91.82 219.566 92.14C219.806 92.36 219.966 92.61 220.046 92.89C220.146 93.19 220.176 93.48 220.136 93.76C220.116 94.04 220.026 94.3 219.866 94.54C219.726 94.8 219.546 95.01 219.326 95.17C218.966 95.45 218.566 95.64 218.126 95.74C217.686 95.86 217.186 95.72 216.626 95.32C216.286 95.06 215.896 94.7 215.456 94.24C215.016 93.78 214.656 93.36 214.376 92.98C214.076 93.36 213.706 93.78 213.266 94.24C212.826 94.7 212.436 95.06 212.096 95.32ZM213.806 81.43C214.206 81.43 214.526 81.37 214.766 81.25C215.006 81.13 215.186 80.98 215.306 80.8C215.446 80.6 215.536 80.39 215.576 80.17C215.616 79.93 215.636 79.71 215.636 79.51C215.636 79.29 215.616 79.07 215.576 78.85C215.536 78.61 215.446 78.39 215.306 78.19C215.186 77.99 215.006 77.83 214.766 77.71C214.526 77.59 214.206 77.53 213.806 77.53C213.406 77.53 213.086 77.59 212.846 77.71C212.626 77.83 212.446 77.99 212.306 78.19C212.166 78.39 212.076 78.61 212.036 78.85C211.996 79.07 211.976 79.29 211.976 79.51C211.976 79.71 211.996 79.93 212.036 80.17C212.076 80.39 212.166 80.6 212.306 80.8C212.446 80.98 212.626 81.13 212.846 81.25C213.086 81.37 213.406 81.43 213.806 81.43ZM213.806 84.73C212.926 84.73 212.136 84.64 211.436 84.46C210.736 84.26 210.126 83.96 209.606 83.56C209.106 83.14 208.716 82.61 208.436 81.97C208.176 81.33 208.046 80.57 208.046 79.69C208.046 79.17 208.096 78.7 208.196 78.28C208.316 77.86 208.476 77.47 208.676 77.11C207.896 77.05 207.376 76.89 207.116 76.63C206.876 76.35 206.756 75.99 206.756 75.55C206.756 75.25 206.786 75 206.846 74.8C206.926 74.58 207.066 74.4 207.266 74.26C207.466 74.1 207.746 73.99 208.106 73.93C208.466 73.85 208.926 73.81 209.486 73.81H218.006C218.566 73.81 219.026 73.85 219.386 73.93C219.746 73.99 220.026 74.1 220.226 74.26C220.426 74.4 220.556 74.58 220.616 74.8C220.696 75 220.736 75.25 220.736 75.55C220.736 75.97 220.616 76.32 220.376 76.6C220.136 76.86 219.656 77.03 218.936 77.11C219.136 77.45 219.286 77.84 219.386 78.28C219.506 78.7 219.566 79.17 219.566 79.69C219.566 80.63 219.426 81.43 219.146 82.09C218.886 82.73 218.496 83.25 217.976 83.65C217.476 84.03 216.866 84.31 216.146 84.49C215.446 84.65 214.666 84.73 213.806 84.73ZM224.096 95.32C223.536 95.72 223.036 95.86 222.596 95.74C222.176 95.64 221.786 95.45 221.426 95.17C221.206 95.01 221.016 94.8 220.856 94.54C220.716 94.3 220.626 94.04 220.586 93.76C220.566 93.48 220.596 93.19 220.676 92.89C220.776 92.61 220.946 92.36 221.186 92.14C221.526 91.82 221.856 91.52 222.176 91.24C222.516 90.96 222.816 90.68 223.076 90.4C223.356 90.1 223.576 89.78 223.736 89.44C223.896 89.1 223.976 88.7 223.976 88.24V87.97C223.976 87.73 224.006 87.5 224.066 87.28C224.126 87.04 224.236 86.84 224.396 86.68C224.556 86.5 224.786 86.36 225.086 86.26C225.386 86.14 225.766 86.08 226.226 86.08C227.206 86.08 227.886 86.27 228.266 86.65C228.666 87.01 228.866 87.45 228.866 87.97V88.24C228.866 88.7 228.936 89.1 229.076 89.44C229.236 89.78 229.446 90.1 229.706 90.4C229.966 90.68 230.256 90.96 230.576 91.24C230.896 91.52 231.226 91.82 231.566 92.14C231.806 92.36 231.966 92.61 232.046 92.89C232.146 93.19 232.176 93.48 232.136 93.76C232.116 94.04 232.026 94.3 231.866 94.54C231.726 94.8 231.546 95.01 231.326 95.17C230.966 95.45 230.566 95.64 230.126 95.74C229.686 95.86 229.186 95.72 228.626 95.32C228.286 95.06 227.896 94.7 227.456 94.24C227.016 93.78 226.656 93.36 226.376 92.98C226.076 93.36 225.706 93.78 225.266 94.24C224.826 94.7 224.436 95.06 224.096 95.32ZM211.376 72.52C210.256 72.52 209.516 72.39 209.156 72.13C208.816 71.85 208.646 71.46 208.646 70.96C208.646 70.38 208.816 69.97 209.156 69.73C209.516 69.47 210.256 69.34 211.376 69.34H216.116C217.236 69.34 217.966 69.47 218.306 69.73C218.666 69.97 218.846 70.38 218.846 70.96C218.846 71.46 218.666 71.85 218.306 72.13C217.966 72.39 217.236 72.52 216.116 72.52H211.376ZM243.212 95.14C242.052 95.14 241.082 95.01 240.302 94.75C239.522 94.49 238.882 94.1 238.382 93.58C237.902 93.08 237.542 92.45 237.302 91.69C237.062 90.95 236.912 90.09 236.852 89.11C236.832 88.93 236.822 88.51 236.822 87.85C236.822 87.17 236.812 86.37 236.792 85.45C236.792 84.53 236.792 83.55 236.792 82.51C236.792 81.47 236.792 80.49 236.792 79.57C236.812 78.65 236.822 77.86 236.822 77.2C236.822 76.54 236.832 76.12 236.852 75.94C236.912 74.94 237.052 74.06 237.272 73.3C237.512 72.54 237.872 71.9 238.352 71.38C238.852 70.86 239.492 70.47 240.272 70.21C241.052 69.93 242.032 69.79 243.212 69.79C244.312 69.79 245.252 69.93 246.032 70.21C246.812 70.47 247.452 70.86 247.952 71.38C248.452 71.9 248.832 72.55 249.092 73.33C249.352 74.09 249.512 74.96 249.572 75.94C249.572 76.12 249.572 76.55 249.572 77.23C249.592 77.89 249.602 78.68 249.602 79.6C249.602 80.52 249.602 81.5 249.602 82.54C249.622 83.58 249.622 84.56 249.602 85.48C249.602 86.4 249.592 87.2 249.572 87.88C249.572 88.54 249.572 88.95 249.572 89.11C249.532 91.13 249.022 92.64 248.042 93.64C247.082 94.64 245.472 95.14 243.212 95.14ZM243.212 91.06C243.372 91.06 243.532 91.04 243.692 91C243.872 90.98 244.032 90.9 244.172 90.76C244.312 90.62 244.432 90.43 244.532 90.19C244.632 89.93 244.692 89.57 244.712 89.11C244.712 88.93 244.712 88.5 244.712 87.82C244.732 87.12 244.742 86.31 244.742 85.39V79.48C244.742 78.54 244.732 77.74 244.712 77.08C244.712 76.42 244.712 76 244.712 75.82C244.712 75.4 244.662 75.06 244.562 74.8C244.482 74.54 244.362 74.35 244.202 74.23C244.062 74.09 243.902 74 243.722 73.96C243.542 73.92 243.372 73.9 243.212 73.9C243.052 73.9 242.882 73.93 242.702 73.99C242.542 74.03 242.392 74.12 242.252 74.26C242.112 74.4 241.992 74.61 241.892 74.89C241.792 75.15 241.732 75.49 241.712 75.91C241.692 76.09 241.682 76.52 241.682 77.2C241.682 77.88 241.672 78.68 241.652 79.6C241.652 80.52 241.652 81.5 241.652 82.54C241.652 83.58 241.652 84.56 241.652 85.48C241.672 86.4 241.682 87.2 241.682 87.88C241.682 88.54 241.692 88.95 241.712 89.11C241.712 89.57 241.752 89.93 241.832 90.19C241.932 90.43 242.052 90.62 242.192 90.76C242.332 90.9 242.492 90.98 242.672 91C242.852 91.04 243.032 91.06 243.212 91.06ZM258.002 95.44C257.682 95.44 257.372 95.4 257.072 95.32C256.792 95.24 256.532 95.1 256.292 94.9C256.072 94.7 255.892 94.43 255.752 94.09C255.632 93.75 255.572 93.32 255.572 92.8V83.53H253.142C252.582 83.53 252.132 83.48 251.792 83.38C251.452 83.26 251.182 83.11 250.982 82.93C250.802 82.73 250.682 82.51 250.622 82.27C250.562 82.01 250.532 81.73 250.532 81.43C250.532 81.19 250.562 80.95 250.622 80.71C250.682 80.45 250.802 80.23 250.982 80.05C251.182 79.85 251.452 79.69 251.792 79.57C252.132 79.45 252.582 79.39 253.142 79.39H255.572V72.31C255.572 71.31 255.812 70.63 256.292 70.27C256.792 69.89 257.362 69.7 258.002 69.7C258.322 69.7 258.622 69.74 258.902 69.82C259.202 69.9 259.462 70.04 259.682 70.24C259.902 70.44 260.082 70.71 260.222 71.05C260.362 71.39 260.432 71.81 260.432 72.31V92.8C260.432 93.32 260.362 93.75 260.222 94.09C260.082 94.43 259.902 94.7 259.682 94.9C259.462 95.1 259.202 95.24 258.902 95.32C258.622 95.4 258.322 95.44 258.002 95.44ZM266.858 95.08C266.298 95.08 265.838 95.02 265.478 94.9C265.118 94.78 264.838 94.62 264.638 94.42C264.438 94.24 264.298 94.02 264.218 93.76C264.158 93.52 264.128 93.28 264.128 93.04C264.128 92.74 264.158 92.46 264.218 92.2C264.298 91.96 264.438 91.74 264.638 91.54C264.838 91.36 265.118 91.21 265.478 91.09C265.838 90.99 266.298 90.94 266.858 90.94H269.408V83.92C268.228 83.42 267.348 82.66 266.768 81.64C266.188 80.62 265.898 79.51 265.898 78.31V76.51C265.898 75.71 266.048 74.92 266.348 74.14C266.648 73.36 267.078 72.67 267.638 72.07C268.218 71.45 268.898 70.95 269.678 70.57C270.478 70.19 271.378 70 272.378 70H282.158C283.138 70 284.028 70.19 284.828 70.57C285.628 70.95 286.308 71.45 286.868 72.07C287.448 72.67 287.888 73.36 288.188 74.14C288.488 74.92 288.638 75.71 288.638 76.51V78.31C288.638 79.51 288.348 80.62 287.768 81.64C287.188 82.64 286.328 83.39 285.188 83.89V90.94H287.708C288.268 90.94 288.728 90.99 289.088 91.09C289.448 91.21 289.728 91.36 289.928 91.54C290.128 91.74 290.258 91.96 290.318 92.2C290.398 92.46 290.438 92.74 290.438 93.04C290.438 93.28 290.398 93.52 290.318 93.76C290.258 94.02 290.128 94.24 289.928 94.42C289.728 94.62 289.448 94.78 289.088 94.9C288.728 95.02 288.268 95.08 287.708 95.08H266.858ZM280.328 90.94V84.46H274.268V90.94H280.328ZM281.258 80.29C282.118 80.25 282.748 79.97 283.148 79.45C283.568 78.93 283.778 78.3 283.778 77.56V76.9C283.778 76.14 283.568 75.5 283.148 74.98C282.748 74.44 282.088 74.17 281.168 74.17H273.368C272.448 74.17 271.778 74.44 271.358 74.98C270.958 75.5 270.758 76.14 270.758 76.9V77.56C270.758 78.3 270.958 78.93 271.358 79.45C271.778 79.97 272.418 80.25 273.278 80.29H281.258ZM297.854 71.02C298.334 71.46 298.574 72.02 298.574 72.7L298.064 85.81C298.044 86.37 297.794 86.81 297.314 87.13C296.854 87.45 296.374 87.61 295.874 87.61C295.214 87.61 294.674 87.46 294.254 87.16C293.854 86.84 293.644 86.39 293.624 85.81L293.174 72.7C293.154 72.02 293.374 71.46 293.834 71.02C294.294 70.56 294.974 70.33 295.874 70.33C296.734 70.33 297.394 70.56 297.854 71.02ZM293.774 93.4C293.214 92.96 292.934 92.34 292.934 91.54C292.934 90.74 293.214 90.11 293.774 89.65C294.334 89.19 295.044 88.96 295.904 88.96C296.764 88.96 297.474 89.19 298.034 89.65C298.614 90.11 298.904 90.74 298.904 91.54C298.904 92.34 298.614 92.96 298.034 93.4C297.474 93.86 296.764 94.09 295.904 94.09C295.044 94.09 294.334 93.86 293.774 93.4Z" fill="#FFDAE6"/>
<defs>
<filter id="filter0_i_20_6" x="51.0625" y="93.1246" width="84.5132" height="61.849" filterUnits="userSpaceOnUse" color-interpolation-filters="sRGB">
<feFlood flood-opacity="0" result="BackgroundImageFix"/>
<feBlend mode="normal" in="SourceGraphic" in2="BackgroundImageFix" result="shape"/>
<feColorMatrix in="SourceAlpha" type="matrix" values="0 0 0 0 0 0 0 0 0 0 0 0 0 0 0 0 0 0 127 0" result="hardAlpha"/>
<feOffset dy="4"/>
<feGaussianBlur stdDeviation="2"/>
<feComposite in2="hardAlpha" operator="arithmetic" k2="-1" k3="1"/>
<feColorMatrix type="matrix" values="0 0 0 0 0 0 0 0 0 0 0 0 0 0 0 0 0 0 0.25 0"/>
<feBlend mode="normal" in2="shape" result="effect1_innerShadow_20_6"/>
</filter>
<filter id="filter1_i_20_6" x="14.4612" y="0" width="304.539" height="134.016" filterUnits="userSpaceOnUse" color-interpolation-filters="sRGB">
<feFlood flood-opacity="0" result="BackgroundImageFix"/>
<feBlend mode="normal" in="SourceGraphic" in2="BackgroundImageFix" result="shape"/>
<feColorMatrix in="SourceAlpha" type="matrix" values="0 0 0 0 0 0 0 0 0 0 0 0 0 0 0 0 0 0 127 0" result="hardAlpha"/>
<feOffset dy="4"/>
<feGaussianBlur stdDeviation="4"/>
<feComposite in2="hardAlpha" operator="arithmetic" k2="-1" k3="1"/>
<feColorMatrix type="matrix" values="0 0 0 0 0 0 0 0 0 0 0 0 0 0 0 0 0 0 0.25 0"/>
<feBlend mode="normal" in2="shape" result="effect1_innerShadow_20_6"/>
</filter>
</defs>
</svg>
