<svg width="217" height="39" viewBox="0 0 217 39" fill="none" xmlns="http://www.w3.org/2000/svg">
<rect width="217" height="39" rx="19.5" fill="#FFDAE6"/>
<path d="M82.1479 31.816C81.6359 31.816 81.1799 31.664 80.7799 31.36C80.3959 31.072 80.2039 30.528 80.2039 29.728V26.944H68.1799C67.7319 26.944 67.3639 26.896 67.0759 26.8C66.7879 26.704 66.5639 26.584 66.4039 26.44C66.2439 26.28 66.1319 26.104 66.0679 25.912C66.0199 25.704 65.9959 25.504 65.9959 25.312C65.9959 25.072 66.0199 24.856 66.0679 24.664C66.1319 24.456 66.2439 24.28 66.4039 24.136C66.5639 23.976 66.7879 23.856 67.0759 23.776C67.3639 23.68 67.7319 23.632 68.1799 23.632H82.1479C82.5959 23.632 82.9479 23.68 83.2039 23.776C83.4599 23.856 83.6519 23.976 83.7799 24.136C83.9239 24.28 84.0119 24.456 84.0439 24.664C84.0759 24.856 84.0919 25.072 84.0919 25.312V29.728C84.0919 30.128 84.0359 30.464 83.9239 30.736C83.8119 31.008 83.6679 31.224 83.4919 31.384C83.3159 31.544 83.1079 31.656 82.8679 31.72C82.6439 31.784 82.4039 31.816 82.1479 31.816ZM67.5319 22.264C67.2599 22.28 66.9799 22.232 66.6919 22.12C66.4039 22.008 66.1639 21.792 65.9719 21.472C65.6519 20.96 65.5719 20.488 65.7319 20.056C65.8919 19.624 66.2359 19.232 66.7639 18.88C67.2599 18.56 67.6999 18.264 68.0839 17.992C68.4679 17.704 68.7879 17.4 69.0439 17.08C69.3159 16.76 69.5319 16.376 69.6919 15.928C69.8199 15.576 69.8999 15.12 69.9319 14.56H68.2039C67.7559 14.56 67.3879 14.52 67.0999 14.44C66.8119 14.344 66.5879 14.224 66.4279 14.08C66.2679 13.92 66.1559 13.744 66.0919 13.552C66.0439 13.36 66.0199 13.168 66.0199 12.976C66.0199 12.736 66.0439 12.52 66.0919 12.328C66.1559 12.12 66.2679 11.944 66.4279 11.8C66.5879 11.656 66.8119 11.544 67.0999 11.464C67.3879 11.384 67.7559 11.344 68.2039 11.344H75.3319C75.7799 11.344 76.1479 11.384 76.4359 11.464C76.7239 11.544 76.9479 11.656 77.1079 11.8C77.2679 11.944 77.3719 12.12 77.4199 12.328C77.4839 12.52 77.5159 12.736 77.5159 12.976C77.5159 13.168 77.4839 13.36 77.4199 13.552C77.3719 13.744 77.2679 13.92 77.1079 14.08C76.9479 14.224 76.7239 14.344 76.4359 14.44C76.1479 14.52 75.7799 14.56 75.3319 14.56H73.9639C73.9799 15.104 74.0679 15.552 74.2279 15.904C74.4199 16.336 74.6519 16.704 74.9239 17.008C75.1959 17.312 75.5159 17.6 75.8839 17.872C76.2519 18.128 76.6599 18.408 77.1079 18.712C77.6199 19.064 77.9559 19.456 78.1159 19.888C78.2919 20.32 78.2199 20.792 77.8999 21.304C77.7239 21.576 77.5079 21.784 77.2519 21.928C77.0119 22.056 76.7479 22.128 76.4599 22.144C76.2839 22.144 76.0999 22.128 75.9079 22.096C75.7159 22.048 75.5319 21.96 75.3559 21.832C74.7959 21.416 74.2359 20.968 73.6759 20.488C73.1159 19.992 72.6039 19.464 72.1399 18.904C71.7079 19.496 71.2199 20.04 70.6759 20.536C70.1479 21.032 69.5799 21.456 68.9719 21.808C68.7639 21.936 68.5319 22.04 68.2759 22.12C68.0359 22.2 67.7879 22.248 67.5319 22.264ZM82.1959 22.432C81.9399 22.432 81.6919 22.4 81.4519 22.336C81.2279 22.272 81.0199 22.16 80.8279 22C80.6519 21.84 80.5079 21.624 80.3959 21.352C80.2999 21.08 80.2519 20.736 80.2519 20.32V13.048C80.2519 12.248 80.4439 11.704 80.8279 11.416C81.2279 11.112 81.6839 10.96 82.1959 10.96C82.4519 10.96 82.6919 10.992 82.9159 11.056C83.1559 11.12 83.3639 11.232 83.5399 11.392C83.7159 11.552 83.8599 11.768 83.9719 12.04C84.0839 12.312 84.1399 12.648 84.1399 13.048V15.064H85.8439C86.2919 15.064 86.6599 15.12 86.9479 15.232C87.2359 15.328 87.4599 15.456 87.6199 15.616C87.7799 15.776 87.8839 15.96 87.9319 16.168C87.9959 16.36 88.0279 16.552 88.0279 16.744C88.0279 16.984 87.9959 17.208 87.9319 17.416C87.8839 17.624 87.7799 17.808 87.6199 17.968C87.4599 18.112 87.2359 18.232 86.9479 18.328C86.6599 18.424 86.2919 18.472 85.8439 18.472H84.1399V20.32C84.1399 20.736 84.0839 21.08 83.9719 21.352C83.8599 21.624 83.7159 21.84 83.5399 22C83.3639 22.16 83.1559 22.272 82.9159 22.336C82.6919 22.4 82.4519 22.432 82.1959 22.432ZM94.0806 31.84C93.3286 31.824 92.6886 31.688 92.1606 31.432C91.6326 31.176 91.2086 30.84 90.8886 30.424C90.5686 30.024 90.3366 29.56 90.1926 29.032C90.0486 28.52 89.9766 27.984 89.9766 27.424C89.9766 26.864 90.0406 26.32 90.1686 25.792C90.2966 25.264 90.5126 24.8 90.8166 24.4C91.1366 23.984 91.5606 23.656 92.0886 23.416C92.6326 23.16 93.3126 23.024 94.1286 23.008H104.401C105.217 23.008 105.889 23.136 106.417 23.392C106.961 23.632 107.385 23.96 107.689 24.376C108.009 24.776 108.233 25.248 108.361 25.792C108.489 26.32 108.553 26.864 108.553 27.424C108.553 27.984 108.481 28.52 108.337 29.032C108.193 29.56 107.953 30.024 107.617 30.424C107.297 30.84 106.873 31.176 106.345 31.432C105.833 31.688 105.201 31.824 104.449 31.84H94.0806ZM103.369 28.576C103.833 28.544 104.169 28.448 104.377 28.288C104.585 28.144 104.689 27.856 104.689 27.424C104.689 26.976 104.585 26.68 104.377 26.536C104.169 26.376 103.833 26.28 103.369 26.248H95.1606C94.6966 26.28 94.3606 26.376 94.1526 26.536C93.9446 26.68 93.8406 26.976 93.8406 27.424C93.8406 27.856 93.9446 28.144 94.1526 28.288C94.3606 28.448 94.6966 28.544 95.1606 28.576H103.369ZM90.2166 21.832C89.9446 21.848 89.6646 21.8 89.3766 21.688C89.0886 21.576 88.8486 21.36 88.6566 21.04C88.3366 20.528 88.2566 20.064 88.4166 19.648C88.5926 19.216 88.9366 18.816 89.4486 18.448C90.0566 18.016 90.5606 17.632 90.9606 17.296C91.3606 16.96 91.6806 16.616 91.9206 16.264C92.1606 15.912 92.3366 15.528 92.4486 15.112C92.5606 14.68 92.6246 14.16 92.6406 13.552V13.168C92.6406 12.768 92.6966 12.432 92.8086 12.16C92.9206 11.888 93.0646 11.672 93.2406 11.512C93.4326 11.352 93.6486 11.24 93.8886 11.176C94.1286 11.112 94.3766 11.08 94.6326 11.08C94.8886 11.08 95.1366 11.112 95.3766 11.176C95.6166 11.24 95.8246 11.352 96.0006 11.512C96.1926 11.672 96.3446 11.888 96.4566 12.16C96.5686 12.432 96.6246 12.768 96.6246 13.168V13.552C96.6406 14.16 96.6966 14.672 96.7926 15.088C96.9046 15.488 97.0806 15.856 97.3206 16.192C97.5606 16.512 97.8806 16.832 98.2806 17.152C98.6806 17.472 99.1846 17.848 99.7926 18.28C100.305 18.648 100.641 19.048 100.801 19.48C100.977 19.896 100.905 20.36 100.585 20.872C100.409 21.144 100.193 21.352 99.9366 21.496C99.6966 21.624 99.4326 21.696 99.1446 21.712C98.9686 21.712 98.7846 21.696 98.5926 21.664C98.4006 21.616 98.2166 21.528 98.0406 21.4C97.4806 20.984 96.9206 20.52 96.3606 20.008C95.8006 19.496 95.2886 18.944 94.8246 18.352C94.3926 18.96 93.9046 19.528 93.3606 20.056C92.8326 20.584 92.2646 21.024 91.6566 21.376C91.4486 21.504 91.2166 21.608 90.9606 21.688C90.7206 21.768 90.4726 21.816 90.2166 21.832ZM106.201 22.192C105.945 22.192 105.697 22.16 105.457 22.096C105.233 22.032 105.025 21.92 104.833 21.76C104.657 21.6 104.513 21.384 104.401 21.112C104.305 20.84 104.257 20.496 104.257 20.08V17.776H102.049C101.601 17.776 101.233 17.736 100.945 17.656C100.657 17.56 100.433 17.44 100.273 17.296C100.113 17.136 100.001 16.96 99.9366 16.768C99.8886 16.56 99.8646 16.336 99.8646 16.096C99.8646 15.904 99.8886 15.712 99.9366 15.52C100.001 15.312 100.113 15.136 100.273 14.992C100.433 14.832 100.657 14.704 100.945 14.608C101.233 14.512 101.601 14.464 102.049 14.464H104.257V13.048C104.257 12.248 104.449 11.704 104.833 11.416C105.233 11.112 105.689 10.96 106.201 10.96C106.457 10.96 106.697 10.992 106.921 11.056C107.161 11.12 107.369 11.232 107.545 11.392C107.721 11.552 107.865 11.768 107.977 12.04C108.089 12.312 108.145 12.648 108.145 13.048V20.08C108.145 20.496 108.089 20.84 107.977 21.112C107.865 21.384 107.721 21.6 107.545 21.76C107.369 21.92 107.161 22.032 106.921 22.096C106.697 22.16 106.457 22.192 106.201 22.192ZM127.709 31.552C127.453 31.552 127.205 31.52 126.965 31.456C126.741 31.392 126.533 31.28 126.341 31.12C126.165 30.96 126.021 30.744 125.909 30.472C125.813 30.2 125.765 29.856 125.765 29.44V13.048C125.765 12.248 125.957 11.704 126.341 11.416C126.741 11.112 127.197 10.96 127.709 10.96C127.965 10.96 128.205 10.992 128.429 11.056C128.669 11.12 128.877 11.232 129.053 11.392C129.229 11.552 129.373 11.768 129.485 12.04C129.597 12.312 129.653 12.648 129.653 13.048V19.264H131.021C131.469 19.264 131.837 19.312 132.125 19.408C132.413 19.504 132.637 19.632 132.797 19.792C132.957 19.936 133.061 20.112 133.109 20.32C133.173 20.512 133.205 20.704 133.205 20.896C133.205 21.136 133.173 21.36 133.109 21.568C133.061 21.76 132.957 21.936 132.797 22.096C132.637 22.24 132.413 22.36 132.125 22.456C131.837 22.536 131.469 22.576 131.021 22.576H129.653V29.44C129.653 29.856 129.597 30.2 129.485 30.472C129.373 30.744 129.229 30.96 129.053 31.12C128.877 31.28 128.669 31.392 128.429 31.456C128.205 31.52 127.965 31.552 127.709 31.552ZM117.461 31.456C116.533 31.456 115.757 31.352 115.133 31.144C114.509 30.936 113.997 30.624 113.597 30.208C113.213 29.808 112.925 29.304 112.733 28.696C112.541 28.104 112.421 27.416 112.373 26.632V24.208C112.421 23.408 112.533 22.704 112.709 22.096C112.901 21.488 113.189 20.976 113.573 20.56C113.973 20.144 114.485 19.832 115.109 19.624C115.733 19.4 116.517 19.288 117.461 19.288C118.341 19.288 119.093 19.4 119.717 19.624C120.341 19.832 120.853 20.144 121.253 20.56C121.653 20.976 121.957 21.496 122.165 22.12C122.373 22.728 122.501 23.424 122.549 24.208V26.632C122.517 28.248 122.109 29.456 121.325 30.256C120.557 31.056 119.269 31.456 117.461 31.456ZM117.461 28.264C117.589 28.264 117.717 28.248 117.845 28.216C117.989 28.2 118.117 28.136 118.229 28.024C118.341 27.912 118.437 27.76 118.517 27.568C118.597 27.36 118.645 27.072 118.661 26.704V24.04C118.661 23.704 118.621 23.432 118.541 23.224C118.477 23.016 118.381 22.864 118.253 22.768C118.141 22.656 118.013 22.584 117.869 22.552C117.725 22.52 117.589 22.504 117.461 22.504C117.333 22.504 117.197 22.528 117.053 22.576C116.925 22.608 116.805 22.68 116.693 22.792C116.581 22.904 116.485 23.072 116.405 23.296C116.325 23.504 116.277 23.776 116.261 24.112V26.704C116.261 27.072 116.293 27.36 116.357 27.568C116.437 27.76 116.533 27.912 116.645 28.024C116.757 28.136 116.885 28.2 117.029 28.216C117.173 28.248 117.317 28.264 117.461 28.264ZM113.357 18.304C112.909 18.304 112.541 18.264 112.253 18.184C111.965 18.088 111.741 17.968 111.581 17.824C111.421 17.68 111.309 17.512 111.245 17.32C111.197 17.128 111.173 16.936 111.173 16.744C111.173 16.504 111.197 16.288 111.245 16.096C111.309 15.904 111.421 15.736 111.581 15.592C111.741 15.448 111.965 15.336 112.253 15.256C112.541 15.176 112.909 15.136 113.357 15.136H121.229C121.677 15.136 122.045 15.176 122.333 15.256C122.621 15.336 122.845 15.448 123.005 15.592C123.165 15.736 123.269 15.904 123.317 16.096C123.381 16.288 123.413 16.504 123.413 16.744C123.413 16.936 123.381 17.128 123.317 17.32C123.269 17.512 123.165 17.68 123.005 17.824C122.845 17.968 122.621 18.088 122.333 18.184C122.045 18.264 121.677 18.304 121.229 18.304H113.357ZM114.869 13.864C114.421 13.864 114.053 13.824 113.765 13.744C113.477 13.648 113.253 13.528 113.093 13.384C112.933 13.24 112.821 13.072 112.757 12.88C112.709 12.688 112.685 12.496 112.685 12.304C112.685 12.064 112.709 11.848 112.757 11.656C112.821 11.464 112.933 11.296 113.093 11.152C113.253 11.008 113.477 10.896 113.765 10.816C114.053 10.736 114.421 10.696 114.869 10.696H119.717C120.165 10.696 120.533 10.736 120.821 10.816C121.109 10.896 121.333 11.008 121.493 11.152C121.653 11.296 121.757 11.464 121.805 11.656C121.869 11.848 121.901 12.064 121.901 12.304C121.901 12.496 121.869 12.688 121.805 12.88C121.757 13.072 121.653 13.24 121.493 13.384C121.333 13.528 121.109 13.648 120.821 13.744C120.533 13.824 120.165 13.864 119.717 13.864H114.869ZM140.77 31.096C140.29 31.336 139.85 31.384 139.45 31.24C139.066 31.096 138.746 30.888 138.49 30.616C138.33 30.472 138.218 30.288 138.154 30.064C138.09 29.856 138.066 29.632 138.082 29.392C138.098 29.152 138.146 28.904 138.226 28.648C138.322 28.408 138.442 28.184 138.586 27.976C138.97 27.432 139.282 26.92 139.522 26.44C139.762 25.944 139.946 25.456 140.074 24.976C140.202 24.48 140.29 23.96 140.338 23.416C140.386 22.872 140.41 22.264 140.41 21.592V14.56H136.09C135.642 14.56 135.274 14.52 134.986 14.44C134.698 14.344 134.474 14.224 134.314 14.08C134.154 13.92 134.042 13.744 133.978 13.552C133.93 13.344 133.906 13.12 133.906 12.88C133.906 12.688 133.93 12.496 133.978 12.304C134.042 12.096 134.154 11.92 134.314 11.776C134.474 11.616 134.698 11.488 134.986 11.392C135.274 11.296 135.642 11.248 136.09 11.248H142.546C142.978 11.248 143.314 11.296 143.554 11.392C143.794 11.472 143.978 11.592 144.106 11.752C144.234 11.896 144.314 12.08 144.346 12.304C144.378 12.528 144.394 12.784 144.394 13.072V22.48C144.394 22.8 144.37 23.2 144.322 23.68C144.274 24.16 144.194 24.68 144.082 25.24C143.97 25.8 143.818 26.376 143.626 26.968C143.45 27.56 143.226 28.12 142.954 28.648C142.682 29.176 142.362 29.656 141.994 30.088C141.642 30.52 141.234 30.856 140.77 31.096ZM151.93 31.552C151.674 31.552 151.426 31.52 151.186 31.456C150.962 31.392 150.754 31.28 150.562 31.12C150.386 30.96 150.242 30.744 150.13 30.472C150.034 30.2 149.986 29.856 149.986 29.44V13.048C149.986 12.248 150.178 11.704 150.562 11.416C150.962 11.112 151.418 10.96 151.93 10.96C152.186 10.96 152.426 10.992 152.65 11.056C152.89 11.12 153.098 11.232 153.274 11.392C153.45 11.552 153.594 11.768 153.706 12.04C153.818 12.312 153.874 12.648 153.874 13.048V29.44C153.874 29.856 153.818 30.2 153.706 30.472C153.594 30.744 153.45 30.96 153.274 31.12C153.098 31.28 152.89 31.392 152.65 31.456C152.426 31.52 152.186 31.552 151.93 31.552Z" fill="white"/>
<path d="M81.208 30.816C80.696 30.816 80.24 30.664 79.84 30.36C79.456 30.072 79.264 29.528 79.264 28.728V25.944H67.24C66.792 25.944 66.424 25.896 66.136 25.8C65.848 25.704 65.624 25.584 65.464 25.44C65.304 25.28 65.192 25.104 65.128 24.912C65.08 24.704 65.056 24.504 65.056 24.312C65.056 24.072 65.08 23.856 65.128 23.664C65.192 23.456 65.304 23.28 65.464 23.136C65.624 22.976 65.848 22.856 66.136 22.776C66.424 22.68 66.792 22.632 67.24 22.632H81.208C81.656 22.632 82.008 22.68 82.264 22.776C82.52 22.856 82.712 22.976 82.84 23.136C82.984 23.28 83.072 23.456 83.104 23.664C83.136 23.856 83.152 24.072 83.152 24.312V28.728C83.152 29.128 83.096 29.464 82.984 29.736C82.872 30.008 82.728 30.224 82.552 30.384C82.376 30.544 82.168 30.656 81.928 30.72C81.704 30.784 81.464 30.816 81.208 30.816ZM66.592 21.264C66.32 21.28 66.04 21.232 65.752 21.12C65.464 21.008 65.224 20.792 65.032 20.472C64.712 19.96 64.632 19.488 64.792 19.056C64.952 18.624 65.296 18.232 65.824 17.88C66.32 17.56 66.76 17.264 67.144 16.992C67.528 16.704 67.848 16.4 68.104 16.08C68.376 15.76 68.592 15.376 68.752 14.928C68.88 14.576 68.96 14.12 68.992 13.56H67.264C66.816 13.56 66.448 13.52 66.16 13.44C65.872 13.344 65.648 13.224 65.488 13.08C65.328 12.92 65.216 12.744 65.152 12.552C65.104 12.36 65.08 12.168 65.08 11.976C65.08 11.736 65.104 11.52 65.152 11.328C65.216 11.12 65.328 10.944 65.488 10.8C65.648 10.656 65.872 10.544 66.16 10.464C66.448 10.384 66.816 10.344 67.264 10.344H74.392C74.84 10.344 75.208 10.384 75.496 10.464C75.784 10.544 76.008 10.656 76.168 10.8C76.328 10.944 76.432 11.12 76.48 11.328C76.544 11.52 76.576 11.736 76.576 11.976C76.576 12.168 76.544 12.36 76.48 12.552C76.432 12.744 76.328 12.92 76.168 13.08C76.008 13.224 75.784 13.344 75.496 13.44C75.208 13.52 74.84 13.56 74.392 13.56H73.024C73.04 14.104 73.128 14.552 73.288 14.904C73.48 15.336 73.712 15.704 73.984 16.008C74.256 16.312 74.576 16.6 74.944 16.872C75.312 17.128 75.72 17.408 76.168 17.712C76.68 18.064 77.016 18.456 77.176 18.888C77.352 19.32 77.28 19.792 76.96 20.304C76.784 20.576 76.568 20.784 76.312 20.928C76.072 21.056 75.808 21.128 75.52 21.144C75.344 21.144 75.16 21.128 74.968 21.096C74.776 21.048 74.592 20.96 74.416 20.832C73.856 20.416 73.296 19.968 72.736 19.488C72.176 18.992 71.664 18.464 71.2 17.904C70.768 18.496 70.28 19.04 69.736 19.536C69.208 20.032 68.64 20.456 68.032 20.808C67.824 20.936 67.592 21.04 67.336 21.12C67.096 21.2 66.848 21.248 66.592 21.264ZM81.256 21.432C81 21.432 80.752 21.4 80.512 21.336C80.288 21.272 80.08 21.16 79.888 21C79.712 20.84 79.568 20.624 79.456 20.352C79.36 20.08 79.312 19.736 79.312 19.32V12.048C79.312 11.248 79.504 10.704 79.888 10.416C80.288 10.112 80.744 9.96 81.256 9.96C81.512 9.96 81.752 9.992 81.976 10.056C82.216 10.12 82.424 10.232 82.6 10.392C82.776 10.552 82.92 10.768 83.032 11.04C83.144 11.312 83.2 11.648 83.2 12.048V14.064H84.904C85.352 14.064 85.72 14.12 86.008 14.232C86.296 14.328 86.52 14.456 86.68 14.616C86.84 14.776 86.944 14.96 86.992 15.168C87.056 15.36 87.088 15.552 87.088 15.744C87.088 15.984 87.056 16.208 86.992 16.416C86.944 16.624 86.84 16.808 86.68 16.968C86.52 17.112 86.296 17.232 86.008 17.328C85.72 17.424 85.352 17.472 84.904 17.472H83.2V19.32C83.2 19.736 83.144 20.08 83.032 20.352C82.92 20.624 82.776 20.84 82.6 21C82.424 21.16 82.216 21.272 81.976 21.336C81.752 21.4 81.512 21.432 81.256 21.432ZM93.1407 30.84C92.3887 30.824 91.7487 30.688 91.2207 30.432C90.6927 30.176 90.2687 29.84 89.9487 29.424C89.6287 29.024 89.3967 28.56 89.2527 28.032C89.1087 27.52 89.0367 26.984 89.0367 26.424C89.0367 25.864 89.1007 25.32 89.2287 24.792C89.3567 24.264 89.5727 23.8 89.8767 23.4C90.1967 22.984 90.6207 22.656 91.1487 22.416C91.6927 22.16 92.3727 22.024 93.1887 22.008H103.461C104.277 22.008 104.949 22.136 105.477 22.392C106.021 22.632 106.445 22.96 106.749 23.376C107.069 23.776 107.293 24.248 107.421 24.792C107.549 25.32 107.613 25.864 107.613 26.424C107.613 26.984 107.541 27.52 107.397 28.032C107.253 28.56 107.013 29.024 106.677 29.424C106.357 29.84 105.933 30.176 105.405 30.432C104.893 30.688 104.261 30.824 103.509 30.84H93.1407ZM102.429 27.576C102.893 27.544 103.229 27.448 103.437 27.288C103.645 27.144 103.749 26.856 103.749 26.424C103.749 25.976 103.645 25.68 103.437 25.536C103.229 25.376 102.893 25.28 102.429 25.248H94.2207C93.7567 25.28 93.4207 25.376 93.2127 25.536C93.0047 25.68 92.9007 25.976 92.9007 26.424C92.9007 26.856 93.0047 27.144 93.2127 27.288C93.4207 27.448 93.7567 27.544 94.2207 27.576H102.429ZM89.2767 20.832C89.0047 20.848 88.7247 20.8 88.4367 20.688C88.1487 20.576 87.9087 20.36 87.7167 20.04C87.3967 19.528 87.3167 19.064 87.4767 18.648C87.6527 18.216 87.9967 17.816 88.5087 17.448C89.1167 17.016 89.6207 16.632 90.0207 16.296C90.4207 15.96 90.7407 15.616 90.9807 15.264C91.2207 14.912 91.3967 14.528 91.5087 14.112C91.6207 13.68 91.6847 13.16 91.7007 12.552V12.168C91.7007 11.768 91.7567 11.432 91.8687 11.16C91.9807 10.888 92.1247 10.672 92.3007 10.512C92.4927 10.352 92.7087 10.24 92.9487 10.176C93.1887 10.112 93.4367 10.08 93.6927 10.08C93.9487 10.08 94.1967 10.112 94.4367 10.176C94.6767 10.24 94.8847 10.352 95.0607 10.512C95.2527 10.672 95.4047 10.888 95.5167 11.16C95.6287 11.432 95.6847 11.768 95.6847 12.168V12.552C95.7007 13.16 95.7567 13.672 95.8527 14.088C95.9647 14.488 96.1407 14.856 96.3807 15.192C96.6207 15.512 96.9407 15.832 97.3407 16.152C97.7407 16.472 98.2447 16.848 98.8527 17.28C99.3647 17.648 99.7007 18.048 99.8607 18.48C100.037 18.896 99.9647 19.36 99.6447 19.872C99.4687 20.144 99.2527 20.352 98.9967 20.496C98.7567 20.624 98.4927 20.696 98.2047 20.712C98.0287 20.712 97.8447 20.696 97.6527 20.664C97.4607 20.616 97.2767 20.528 97.1007 20.4C96.5407 19.984 95.9807 19.52 95.4207 19.008C94.8607 18.496 94.3487 17.944 93.8847 17.352C93.4527 17.96 92.9647 18.528 92.4207 19.056C91.8927 19.584 91.3247 20.024 90.7167 20.376C90.5087 20.504 90.2767 20.608 90.0207 20.688C89.7807 20.768 89.5327 20.816 89.2767 20.832ZM105.261 21.192C105.005 21.192 104.757 21.16 104.517 21.096C104.293 21.032 104.085 20.92 103.893 20.76C103.717 20.6 103.573 20.384 103.461 20.112C103.365 19.84 103.317 19.496 103.317 19.08V16.776H101.109C100.661 16.776 100.293 16.736 100.005 16.656C99.7167 16.56 99.4927 16.44 99.3327 16.296C99.1727 16.136 99.0607 15.96 98.9967 15.768C98.9487 15.56 98.9247 15.336 98.9247 15.096C98.9247 14.904 98.9487 14.712 98.9967 14.52C99.0607 14.312 99.1727 14.136 99.3327 13.992C99.4927 13.832 99.7167 13.704 100.005 13.608C100.293 13.512 100.661 13.464 101.109 13.464H103.317V12.048C103.317 11.248 103.509 10.704 103.893 10.416C104.293 10.112 104.749 9.96 105.261 9.96C105.517 9.96 105.757 9.992 105.981 10.056C106.221 10.12 106.429 10.232 106.605 10.392C106.781 10.552 106.925 10.768 107.037 11.04C107.149 11.312 107.205 11.648 107.205 12.048V19.08C107.205 19.496 107.149 19.84 107.037 20.112C106.925 20.384 106.781 20.6 106.605 20.76C106.429 20.92 106.221 21.032 105.981 21.096C105.757 21.16 105.517 21.192 105.261 21.192ZM126.769 30.552C126.513 30.552 126.265 30.52 126.025 30.456C125.801 30.392 125.593 30.28 125.401 30.12C125.225 29.96 125.081 29.744 124.969 29.472C124.873 29.2 124.825 28.856 124.825 28.44V12.048C124.825 11.248 125.017 10.704 125.401 10.416C125.801 10.112 126.257 9.96 126.769 9.96C127.025 9.96 127.265 9.992 127.489 10.056C127.729 10.12 127.937 10.232 128.113 10.392C128.289 10.552 128.433 10.768 128.545 11.04C128.657 11.312 128.713 11.648 128.713 12.048V18.264H130.081C130.529 18.264 130.897 18.312 131.185 18.408C131.473 18.504 131.697 18.632 131.857 18.792C132.017 18.936 132.121 19.112 132.169 19.32C132.233 19.512 132.265 19.704 132.265 19.896C132.265 20.136 132.233 20.36 132.169 20.568C132.121 20.76 132.017 20.936 131.857 21.096C131.697 21.24 131.473 21.36 131.185 21.456C130.897 21.536 130.529 21.576 130.081 21.576H128.713V28.44C128.713 28.856 128.657 29.2 128.545 29.472C128.433 29.744 128.289 29.96 128.113 30.12C127.937 30.28 127.729 30.392 127.489 30.456C127.265 30.52 127.025 30.552 126.769 30.552ZM116.521 30.456C115.593 30.456 114.817 30.352 114.193 30.144C113.569 29.936 113.057 29.624 112.657 29.208C112.273 28.808 111.985 28.304 111.793 27.696C111.601 27.104 111.481 26.416 111.433 25.632V23.208C111.481 22.408 111.593 21.704 111.769 21.096C111.961 20.488 112.249 19.976 112.633 19.56C113.033 19.144 113.545 18.832 114.169 18.624C114.793 18.4 115.577 18.288 116.521 18.288C117.401 18.288 118.153 18.4 118.777 18.624C119.401 18.832 119.913 19.144 120.313 19.56C120.713 19.976 121.017 20.496 121.225 21.12C121.433 21.728 121.561 22.424 121.609 23.208V25.632C121.577 27.248 121.169 28.456 120.385 29.256C119.617 30.056 118.329 30.456 116.521 30.456ZM116.521 27.264C116.649 27.264 116.777 27.248 116.905 27.216C117.049 27.2 117.177 27.136 117.289 27.024C117.401 26.912 117.497 26.76 117.577 26.568C117.657 26.36 117.705 26.072 117.721 25.704V23.04C117.721 22.704 117.681 22.432 117.601 22.224C117.537 22.016 117.441 21.864 117.313 21.768C117.201 21.656 117.073 21.584 116.929 21.552C116.785 21.52 116.649 21.504 116.521 21.504C116.393 21.504 116.257 21.528 116.113 21.576C115.985 21.608 115.865 21.68 115.753 21.792C115.641 21.904 115.545 22.072 115.465 22.296C115.385 22.504 115.337 22.776 115.321 23.112V25.704C115.321 26.072 115.353 26.36 115.417 26.568C115.497 26.76 115.593 26.912 115.705 27.024C115.817 27.136 115.945 27.2 116.089 27.216C116.233 27.248 116.377 27.264 116.521 27.264ZM112.417 17.304C111.969 17.304 111.601 17.264 111.313 17.184C111.025 17.088 110.801 16.968 110.641 16.824C110.481 16.68 110.369 16.512 110.305 16.32C110.257 16.128 110.233 15.936 110.233 15.744C110.233 15.504 110.257 15.288 110.305 15.096C110.369 14.904 110.481 14.736 110.641 14.592C110.801 14.448 111.025 14.336 111.313 14.256C111.601 14.176 111.969 14.136 112.417 14.136H120.289C120.737 14.136 121.105 14.176 121.393 14.256C121.681 14.336 121.905 14.448 122.065 14.592C122.225 14.736 122.329 14.904 122.377 15.096C122.441 15.288 122.473 15.504 122.473 15.744C122.473 15.936 122.441 16.128 122.377 16.32C122.329 16.512 122.225 16.68 122.065 16.824C121.905 16.968 121.681 17.088 121.393 17.184C121.105 17.264 120.737 17.304 120.289 17.304H112.417ZM113.929 12.864C113.481 12.864 113.113 12.824 112.825 12.744C112.537 12.648 112.313 12.528 112.153 12.384C111.993 12.24 111.881 12.072 111.817 11.88C111.769 11.688 111.745 11.496 111.745 11.304C111.745 11.064 111.769 10.848 111.817 10.656C111.881 10.464 111.993 10.296 112.153 10.152C112.313 10.008 112.537 9.896 112.825 9.816C113.113 9.736 113.481 9.696 113.929 9.696H118.777C119.225 9.696 119.593 9.736 119.881 9.816C120.169 9.896 120.393 10.008 120.553 10.152C120.713 10.296 120.817 10.464 120.865 10.656C120.929 10.848 120.961 11.064 120.961 11.304C120.961 11.496 120.929 11.688 120.865 11.88C120.817 12.072 120.713 12.24 120.553 12.384C120.393 12.528 120.169 12.648 119.881 12.744C119.593 12.824 119.225 12.864 118.777 12.864H113.929ZM139.83 30.096C139.35 30.336 138.91 30.384 138.51 30.24C138.126 30.096 137.806 29.888 137.55 29.616C137.39 29.472 137.278 29.288 137.214 29.064C137.15 28.856 137.126 28.632 137.142 28.392C137.158 28.152 137.206 27.904 137.286 27.648C137.382 27.408 137.502 27.184 137.646 26.976C138.03 26.432 138.342 25.92 138.582 25.44C138.822 24.944 139.006 24.456 139.134 23.976C139.262 23.48 139.35 22.96 139.398 22.416C139.446 21.872 139.47 21.264 139.47 20.592V13.56H135.15C134.702 13.56 134.334 13.52 134.046 13.44C133.758 13.344 133.534 13.224 133.374 13.08C133.214 12.92 133.102 12.744 133.038 12.552C132.99 12.344 132.966 12.12 132.966 11.88C132.966 11.688 132.99 11.496 133.038 11.304C133.102 11.096 133.214 10.92 133.374 10.776C133.534 10.616 133.758 10.488 134.046 10.392C134.334 10.296 134.702 10.248 135.15 10.248H141.606C142.038 10.248 142.374 10.296 142.614 10.392C142.854 10.472 143.038 10.592 143.166 10.752C143.294 10.896 143.374 11.08 143.406 11.304C143.438 11.528 143.454 11.784 143.454 12.072V21.48C143.454 21.8 143.43 22.2 143.382 22.68C143.334 23.16 143.254 23.68 143.142 24.24C143.03 24.8 142.878 25.376 142.686 25.968C142.51 26.56 142.286 27.12 142.014 27.648C141.742 28.176 141.422 28.656 141.054 29.088C140.702 29.52 140.294 29.856 139.83 30.096ZM150.99 30.552C150.734 30.552 150.486 30.52 150.246 30.456C150.022 30.392 149.814 30.28 149.622 30.12C149.446 29.96 149.302 29.744 149.19 29.472C149.094 29.2 149.046 28.856 149.046 28.44V12.048C149.046 11.248 149.238 10.704 149.622 10.416C150.022 10.112 150.478 9.96 150.99 9.96C151.246 9.96 151.486 9.992 151.71 10.056C151.95 10.12 152.158 10.232 152.334 10.392C152.51 10.552 152.654 10.768 152.766 11.04C152.878 11.312 152.934 11.648 152.934 12.048V28.44C152.934 28.856 152.878 29.2 152.766 29.472C152.654 29.744 152.51 29.96 152.334 30.12C152.158 30.28 151.95 30.392 151.71 30.456C151.486 30.52 151.246 30.552 150.99 30.552Z" fill="#C72A5F"/>
</svg>
